<svg xmlns="http://www.w3.org/2000/svg" width="810.3675537109375" height="793.8343505859375" viewBox="-314.1656494140625 -328.3738708496094 810.3675537109375 793.8343505859375"><title>Neo4j Graph Visualization</title><desc>Created using Neo4j (http://www.neo4j.com/)</desc><g class="layer relationships"><g class="relationship" transform="translate(42.67324242031182 248.97258652949657) rotate(280.9014638334411)"><path class="outline" fill="#A5ABB6" stroke="none" d="M 25 0.5 L 74.0656135697918 0.5 L 74.0656135697918 -0.5 L 25 -0.5 Z M 108.5109260697918 0.5 L 157.5765396395836 0.5 L 157.5765396395836 3.5 L 164.5765396395836 0 L 157.5765396395836 -3.5 L 157.5765396395836 -0.5 L 108.5109260697918 -0.5 Z"/><text text-anchor="middle" pointer-events="none" font-size="8px" fill="#000000" x="91.2882698197918" y="3" font-family="sans-serif">ORIGIN</text></g><g class="relationship" transform="translate(42.67324242031182 248.97258652949657) rotate(473.7137926663531)"><path class="outline" fill="#A5ABB6" stroke="none" d="M 25 0.5 L 57.640189268582475 0.5 L 57.640189268582475 -0.5 L 25 -0.5 Z M 116.82768926858247 0.5 L 149.46787853716495 0.5 L 149.46787853716495 3.5 L 156.46787853716495 0 L 149.46787853716495 -3.5 L 149.46787853716495 -0.5 L 116.82768926858247 -0.5 Z"/><text text-anchor="middle" pointer-events="none" font-size="8px" fill="#000000" x="87.23393926858247" y="3" transform="rotate(180 87.23393926858247 0)" font-family="sans-serif">DESTINATION</text></g><g class="relationship" transform="translate(29.366303341509703 421.304774553402) rotate(274.41543474048774)"><path class="outline" fill="#A5ABB6" stroke="none" d="M 25 0.5 L 64.8073576608121 0.5 L 64.8073576608121 -0.5 L 25 -0.5 Z M 101.0378264108121 0.5 L 140.8451840716242 0.5 L 140.8451840716242 3.5 L 147.8451840716242 0 L 140.8451840716242 -3.5 L 140.8451840716242 -0.5 L 101.0378264108121 -0.5 Z"/><text text-anchor="middle" pointer-events="none" font-size="8px" fill="#000000" x="82.9225920358121" y="3" font-family="sans-serif">ASSIGN</text></g><g class="relationship" transform="translate(150.38795417095636 220.4235469658228) rotate(402.7061117741686)"><path class="outline" fill="#A5ABB6" stroke="none" d="M 25 0.5 L 35.75129066231541 0.5 L 35.75129066231541 -0.5 L 25 -0.5 Z M 94.93879066231541 0.5 L 105.69008132463082 0.5 L 105.69008132463082 3.5 L 112.69008132463082 0 L 105.69008132463082 -3.5 L 105.69008132463082 -0.5 L 94.93879066231541 -0.5 Z"/><text text-anchor="middle" pointer-events="none" font-size="8px" fill="#000000" x="65.34504066231541" y="3" font-family="sans-serif">DESTINATION</text></g><g class="relationship" transform="translate(150.38795417095636 220.4235469658228) rotate(245.48900445823148)"><path class="outline" fill="#A5ABB6" stroke="none" d="M 25 0.5 L 65.88551728991837 0.5 L 65.88551728991837 -0.5 L 25 -0.5 Z M 100.33082978991837 0.5 L 141.21634707983674 0.5 L 141.21634707983674 3.5 L 148.21634707983674 0 L 141.21634707983674 -3.5 L 141.21634707983674 -0.5 L 100.33082978991837 -0.5 Z"/><text text-anchor="middle" pointer-events="none" font-size="8px" fill="#000000" x="83.10817353991837" y="3" transform="rotate(180 83.10817353991837 0)" font-family="sans-serif">ORIGIN</text></g><g class="relationship" transform="translate(229.85793909948492 385.27305588448127) rotate(244.26240179474752)"><path class="outline" fill="#A5ABB6" stroke="none" d="M 25 0.5 L 69.88727801573086 0.5 L 69.88727801573086 -0.5 L 25 -0.5 Z M 106.11774676573086 0.5 L 151.0050247814617 0.5 L 151.0050247814617 3.5 L 158.0050247814617 0 L 151.0050247814617 -3.5 L 151.0050247814617 -0.5 L 106.11774676573086 -0.5 Z"/><text text-anchor="middle" pointer-events="none" font-size="8px" fill="#000000" x="88.00251239073086" y="3" transform="rotate(180 88.00251239073086 0)" font-family="sans-serif">ASSIGN</text></g><g class="relationship" transform="translate(200.21750174656546 187.14780466187275) rotate(427.93158692137075)"><path class="outline" fill="#A5ABB6" stroke="none" d="M 25 0.5 L 35.24416363196944 0.5 L 35.24416363196944 -0.5 L 25 -0.5 Z M 94.43166363196944 0.5 L 104.67582726393888 0.5 L 104.67582726393888 3.5 L 111.67582726393888 0 L 104.67582726393888 -3.5 L 104.67582726393888 -0.5 L 94.43166363196944 -0.5 Z"/><text text-anchor="middle" pointer-events="none" font-size="8px" fill="#000000" x="64.83791363196944" y="3" font-family="sans-serif">DESTINATION</text></g><g class="relationship" transform="translate(200.21750174656546 187.14780466187275) rotate(225.61461494589287)"><path class="outline" fill="#A5ABB6" stroke="none" d="M 25 0.5 L 66.26428922597644 0.5 L 66.26428922597644 -0.5 L 25 -0.5 Z M 100.70960172597644 0.5 L 141.97389095195288 0.5 L 141.97389095195288 3.5 L 148.97389095195288 0 L 141.97389095195288 -3.5 L 141.97389095195288 -0.5 L 100.70960172597644 -0.5 Z"/><text text-anchor="middle" pointer-events="none" font-size="8px" fill="#000000" x="83.48694547597644" y="3" transform="rotate(180 83.48694547597644 0)" font-family="sans-serif">ORIGIN</text></g><g class="relationship" transform="translate(325.42042103515035 321.50152496371436) rotate(227.01915548219978)"><path class="outline" fill="#A5ABB6" stroke="none" d="M 25 0.5 L 70.20890890623268 0.5 L 70.20890890623268 -0.5 L 25 -0.5 Z M 106.43937765623268 0.5 L 151.64828656246536 0.5 L 151.64828656246536 3.5 L 158.64828656246536 0 L 151.64828656246536 -3.5 L 151.64828656246536 -0.5 L 106.43937765623268 -0.5 Z"/><text text-anchor="middle" pointer-events="none" font-size="8px" fill="#000000" x="88.32414328123268" y="3" transform="rotate(180 88.32414328123268 0)" font-family="sans-serif">ASSIGN</text></g><g class="relationship" transform="translate(104.78339433416872 259.4486223341154) rotate(431.045121811374)"><path class="outline" fill="#A5ABB6" stroke="none" d="M 25 0.5 L 59.18739051561259 0.5 L 59.18739051561259 -0.5 L 25 -0.5 Z M 118.37489051561259 0.5 L 152.56228103122518 0.5 L 152.56228103122518 3.5 L 159.56228103122518 0 L 152.56228103122518 -3.5 L 152.56228103122518 -0.5 L 118.37489051561259 -0.5 Z"/><text text-anchor="middle" pointer-events="none" font-size="8px" fill="#000000" x="88.78114051561259" y="3" font-family="sans-serif">DESTINATION</text></g><g class="relationship" transform="translate(104.78339433416872 259.4486223341154) rotate(262.39395978710087)"><path class="outline" fill="#A5ABB6" stroke="none" d="M 25 0.5 L 78.46577134562318 0.5 L 78.46577134562318 -0.5 L 25 -0.5 Z M 112.91108384562318 0.5 L 166.37685519124636 0.5 L 166.37685519124636 3.5 L 173.37685519124636 0 L 166.37685519124636 -3.5 L 166.37685519124636 -0.5 L 112.91108384562318 -0.5 Z"/><text text-anchor="middle" pointer-events="none" font-size="8px" fill="#000000" x="95.68842759562318" y="3" transform="rotate(180 95.68842759562318 0)" font-family="sans-serif">ORIGIN</text></g><g class="relationship" transform="translate(103.86506724733206 436.4604491523015) rotate(270.2972445129267)"><path class="outline" fill="#A5ABB6" stroke="none" d="M 25 0.5 L 66.89187008298961 0.5 L 66.89187008298961 -0.5 L 25 -0.5 Z M 103.12233883298961 0.5 L 145.01420891597922 0.5 L 145.01420891597922 3.5 L 152.01420891597922 0 L 145.01420891597922 -3.5 L 145.01420891597922 -0.5 L 103.12233883298961 -0.5 Z"/><text text-anchor="middle" pointer-events="none" font-size="8px" fill="#000000" x="85.00710445798961" y="3" font-family="sans-serif">ASSIGN</text></g><g class="relationship" transform="translate(254.74108183277644 162.02736246008055) rotate(209.3797916831785)"><path class="outline" fill="#A5ABB6" stroke="none" d="M 25 0.5 L 80.38915971087575 0.5 L 80.38915971087575 -0.5 L 25 -0.5 Z M 114.83447221087575 0.5 L 170.2236319217515 0.5 L 170.2236319217515 3.5 L 177.2236319217515 0 L 170.2236319217515 -3.5 L 170.2236319217515 -0.5 L 114.83447221087575 -0.5 Z"/><text text-anchor="middle" pointer-events="none" font-size="8px" fill="#000000" x="97.61181596087575" y="3" transform="rotate(180 97.61181596087575 0)" font-family="sans-serif">ORIGIN</text></g><g class="relationship" transform="translate(254.74108183277644 162.02736246008055) rotate(399.4802268094301)"><path class="outline" fill="#A5ABB6" stroke="none" d="M 25 0.5 L 57.600367601765456 0.5 L 57.600367601765456 -0.5 L 25 -0.5 Z M 116.78786760176546 0.5 L 149.3882352035309 0.5 L 149.3882352035309 3.5 L 156.3882352035309 0 L 149.3882352035309 -3.5 L 149.3882352035309 -0.5 L 116.78786760176546 -0.5 Z"/><text text-anchor="middle" pointer-events="none" font-size="8px" fill="#000000" x="87.19411760176546" y="3" font-family="sans-serif">DESTINATION</text></g><g class="relationship" transform="translate(423.8729983639462 219.76378218569343) rotate(198.848321985005)"><path class="outline" fill="#A5ABB6" stroke="none" d="M 25 0.5 L 67.74233294898033 0.5 L 67.74233294898033 -0.5 L 25 -0.5 Z M 103.97280169898033 0.5 L 146.71513464796067 0.5 L 146.71513464796067 3.5 L 153.71513464796067 0 L 146.71513464796067 -3.5 L 146.71513464796067 -0.5 L 103.97280169898033 -0.5 Z"/><text text-anchor="middle" pointer-events="none" font-size="8px" fill="#000000" x="85.85756732398033" y="3" transform="rotate(180 85.85756732398033 0)" font-family="sans-serif">ASSIGN</text></g><g class="relationship" transform="translate(201.63260660278198 -5.962837210180999) rotate(329.85668205198374)"><path class="outline" fill="#A5ABB6" stroke="none" d="M 25 0.5 L 30.210697003077215 0.5 L 30.210697003077215 -0.5 L 25 -0.5 Z M 89.39819700307721 0.5 L 94.60889400615443 0.5 L 94.60889400615443 3.5 L 101.60889400615443 0 L 94.60889400615443 -3.5 L 94.60889400615443 -0.5 L 89.39819700307721 -0.5 Z"/><text text-anchor="middle" pointer-events="none" font-size="8px" fill="#000000" x="59.804447003077215" y="3" font-family="sans-serif">DESTINATION</text></g><g class="relationship" transform="translate(201.63260660278198 -5.962837210180999) rotate(510.8077742110123)"><path class="outline" fill="#A5ABB6" stroke="none" d="M 25 0.5 L 49.78605123551877 0.5 L 49.78605123551877 -0.5 L 25 -0.5 Z M 84.23136373551877 0.5 L 109.01741497103754 0.5 L 109.01741497103754 3.5 L 116.01741497103754 0 L 109.01741497103754 -3.5 L 109.01741497103754 -0.5 L 84.23136373551877 -0.5 Z"/><text text-anchor="middle" pointer-events="none" font-size="8px" fill="#000000" x="67.00870748551877" y="3" transform="rotate(180 67.00870748551877 0)" font-family="sans-serif">ORIGIN</text></g><g class="relationship" transform="translate(373.659423288728 -89.17243992004263) rotate(514.1868834283442)"><path class="outline" fill="#A5ABB6" stroke="none" d="M 25 0.5 L 73.93195768504054 0.5 L 73.93195768504054 -0.5 L 25 -0.5 Z M 110.16242643504054 0.5 L 159.0943841200811 0.5 L 159.0943841200811 3.5 L 166.0943841200811 0 L 159.0943841200811 -3.5 L 159.0943841200811 -0.5 L 110.16242643504054 -0.5 Z"/><text text-anchor="middle" pointer-events="none" font-size="8px" fill="#000000" x="92.04719206004054" y="3" transform="rotate(180 92.04719206004054 0)" font-family="sans-serif">ASSIGN</text></g><g class="relationship" transform="translate(279.66349037430786 65.90835864695273) rotate(180.8804838276203)"><path class="outline" fill="#A5ABB6" stroke="none" d="M 25 0.5 L 79.85793591453258 0.5 L 79.85793591453258 -0.5 L 25 -0.5 Z M 114.30324841453258 0.5 L 169.16118432906515 0.5 L 169.16118432906515 3.5 L 176.16118432906515 0 L 169.16118432906515 -3.5 L 169.16118432906515 -0.5 L 114.30324841453258 -0.5 Z"/><text text-anchor="middle" pointer-events="none" font-size="8px" fill="#000000" x="97.08059216453258" y="3" transform="rotate(180 97.08059216453258 0)" font-family="sans-serif">ORIGIN</text></g><g class="relationship" transform="translate(279.66349037430786 65.90835864695273) rotate(283.0746404633544)"><path class="outline" fill="#A5ABB6" stroke="none" d="M 25 0.5 L 36.433517231071946 0.5 L 36.433517231071946 -0.5 L 25 -0.5 Z M 95.62101723107195 0.5 L 107.05453446214389 0.5 L 107.05453446214389 3.5 L 114.05453446214389 0 L 107.05453446214389 -3.5 L 107.05453446214389 -0.5 L 95.62101723107195 -0.5 Z"/><text text-anchor="middle" pointer-events="none" font-size="8px" fill="#000000" x="66.02726723107195" y="3" font-family="sans-serif">DESTINATION</text></g><g class="relationship" transform="translate(467.20188192891953 82.42205759024186) rotate(185.03220239982085)"><path class="outline" fill="#A5ABB6" stroke="none" d="M 25 0.5 L 72.51678801865788 0.5 L 72.51678801865788 -0.5 L 25 -0.5 Z M 108.74725676865788 0.5 L 156.26404478731575 0.5 L 156.26404478731575 3.5 L 163.26404478731575 0 L 156.26404478731575 -3.5 L 156.26404478731575 -0.5 L 108.74725676865788 -0.5 Z"/><text text-anchor="middle" pointer-events="none" font-size="8px" fill="#000000" x="90.63202239365788" y="3" transform="rotate(180 90.63202239365788 0)" font-family="sans-serif">ASSIGN</text></g><g class="relationship" transform="translate(217.30472640364832 -63.79718129465845) rotate(356.4962540306451)"><path class="outline" fill="#A5ABB6" stroke="none" d="M 25 0.5 L 25.82772939999144 0.5 L 25.82772939999144 -0.5 L 25 -0.5 Z M 61.16366689999144 0.5 L 61.99139629998288 0.5 L 61.99139629998288 3.5 L 68.99139629998288 0 L 61.99139629998288 -3.5 L 61.99139629998288 -0.5 L 61.16366689999144 -0.5 Z"/><text text-anchor="middle" pointer-events="none" font-size="8px" fill="#000000" x="43.49569814999144" y="3" font-family="sans-serif">DEST…</text></g><g class="relationship" transform="translate(217.30472640364832 -63.79718129465845) rotate(497.62432185297286)"><path class="outline" fill="#A5ABB6" stroke="none" d="M 25 0.5 L 73.20645545477765 0.5 L 73.20645545477765 -0.5 L 25 -0.5 Z M 107.65176795477765 0.5 L 155.8582234095553 0.5 L 155.8582234095553 3.5 L 162.8582234095553 0 L 155.8582234095553 -3.5 L 155.8582234095553 -0.5 L 107.65176795477765 -0.5 Z"/><text text-anchor="middle" pointer-events="none" font-size="8px" fill="#000000" x="90.42911170477765" y="3" transform="rotate(180 90.42911170477765 0)" font-family="sans-serif">ORIGIN</text></g><g class="relationship" transform="translate(351.0493143199647 -189.47993483856163) rotate(496.77992219970963)"><path class="outline" fill="#A5ABB6" stroke="none" d="M 25 0.5 L 70.15045820027945 0.5 L 70.15045820027945 -0.5 L 25 -0.5 Z M 106.38092695027945 0.5 L 151.5313851505589 0.5 L 151.5313851505589 3.5 L 158.5313851505589 0 L 151.5313851505589 -3.5 L 151.5313851505589 -0.5 L 106.38092695027945 -0.5 Z"/><text text-anchor="middle" pointer-events="none" font-size="8px" fill="#000000" x="88.26569257527945" y="3" transform="rotate(180 88.26569257527945 0)" font-family="sans-serif">ASSIGN</text></g><g class="relationship" transform="translate(220.71964256181448 55.02802120800637) rotate(536.864558734303)"><path class="outline" fill="#A5ABB6" stroke="none" d="M 25 0.5 L 50.480725400367504 0.5 L 50.480725400367504 -0.5 L 25 -0.5 Z M 84.9260379003675 0.5 L 110.40676330073501 0.5 L 110.40676330073501 3.5 L 117.40676330073501 0 L 110.40676330073501 -3.5 L 110.40676330073501 -0.5 L 84.9260379003675 -0.5 Z"/><text text-anchor="middle" pointer-events="none" font-size="8px" fill="#000000" x="67.7033816503675" y="3" transform="rotate(180 67.7033816503675 0)" font-family="sans-serif">ORIGIN</text></g><g class="relationship" transform="translate(220.71964256181448 55.02802120800637) rotate(305.9686323158576)"><path class="outline" fill="#A5ABB6" stroke="none" d="M 25 0.5 L 43.86375778270455 0.5 L 43.86375778270455 -0.5 L 25 -0.5 Z M 103.05125778270455 0.5 L 121.9150155654091 0.5 L 121.9150155654091 3.5 L 128.9150155654091 0 L 121.9150155654091 -3.5 L 121.9150155654091 -0.5 L 103.05125778270455 -0.5 Z"/><text text-anchor="middle" pointer-events="none" font-size="8px" fill="#000000" x="73.45750778270455" y="3" font-family="sans-serif">DESTINATION</text></g><g class="relationship" transform="translate(386.8545752942223 97.26064195772426) rotate(194.26286862666257)"><path class="outline" fill="#A5ABB6" stroke="none" d="M 25 0.5 L 64.0941731153554 0.5 L 64.0941731153554 -0.5 L 25 -0.5 Z M 100.3246418653554 0.5 L 139.4188149807108 0.5 L 139.4188149807108 3.5 L 146.4188149807108 0 L 139.4188149807108 -3.5 L 139.4188149807108 -0.5 L 100.3246418653554 -0.5 Z"/><text text-anchor="middle" pointer-events="none" font-size="8px" fill="#000000" x="82.2094074903554" y="3" transform="rotate(180 82.2094074903554 0)" font-family="sans-serif">ASSIGN</text></g><g class="relationship" transform="translate(14.395439095310902 -117.10412200446069) rotate(241.75573701069715)"><path class="outline" fill="#A5ABB6" stroke="none" d="M 25 0.5 L 26.693873362794754 0.5 L 26.693873362794754 -0.5 L 25 -0.5 Z M 70.02981086279476 0.5 L 71.72368422558951 0.5 L 71.72368422558951 3.5 L 78.72368422558951 0 L 71.72368422558951 -3.5 L 71.72368422558951 -0.5 L 70.02981086279476 -0.5 Z"/><text text-anchor="middle" pointer-events="none" font-size="8px" fill="#000000" x="48.361842112794754" y="3" transform="rotate(180 48.361842112794754 0)" font-family="sans-serif">DESTIN…</text></g><g class="relationship" transform="translate(14.395439095310902 -117.10412200446069) rotate(430.3820475673941)"><path class="outline" fill="#A5ABB6" stroke="none" d="M 25 0.5 L 74.78180277551606 0.5 L 74.78180277551606 -0.5 L 25 -0.5 Z M 109.22711527551606 0.5 L 159.0089180510321 0.5 L 159.0089180510321 3.5 L 166.0089180510321 0 L 159.0089180510321 -3.5 L 159.0089180510321 -0.5 L 109.22711527551606 -0.5 Z"/><text text-anchor="middle" pointer-events="none" font-size="8px" fill="#000000" x="92.00445902551606" y="3" font-family="sans-serif">ORIGIN</text></g><g class="relationship" transform="translate(-37.346447108229015 -292.1658497344739) rotate(433.534235111599)"><path class="outline" fill="#A5ABB6" stroke="none" d="M 25 0.5 L 69.65884642524327 0.5 L 69.65884642524327 -0.5 L 25 -0.5 Z M 105.88931517524327 0.5 L 150.54816160048654 0.5 L 150.54816160048654 3.5 L 157.54816160048654 0 L 150.54816160048654 -3.5 L 150.54816160048654 -0.5 L 105.88931517524327 -0.5 Z"/><text text-anchor="middle" pointer-events="none" font-size="8px" fill="#000000" x="87.77408080024327" y="3" font-family="sans-serif">ASSIGN</text></g><g class="relationship" transform="translate(73.90412837175698 -124.19404228694215) rotate(217.8164956676835)"><path class="outline" fill="#A5ABB6" stroke="none" d="M 25 0.5 L 35.6384984139094 0.5 L 35.6384984139094 -0.5 L 25 -0.5 Z M 94.8259984139094 0.5 L 105.4644968278188 0.5 L 105.4644968278188 3.5 L 112.4644968278188 0 L 105.4644968278188 -3.5 L 105.4644968278188 -0.5 L 94.8259984139094 -0.5 Z"/><text text-anchor="middle" pointer-events="none" font-size="8px" fill="#000000" x="65.2322484139094" y="3" transform="rotate(180 65.2322484139094 0)" font-family="sans-serif">DESTINATION</text></g><g class="relationship" transform="translate(73.90412837175698 -124.19404228694215) rotate(448.58423901791735)"><path class="outline" fill="#A5ABB6" stroke="none" d="M 25 0.5 L 72.81150178034991 0.5 L 72.81150178034991 -0.5 L 25 -0.5 Z M 107.25681428034991 0.5 L 155.06831606069983 0.5 L 155.06831606069983 3.5 L 162.06831606069983 0 L 155.06831606069983 -3.5 L 155.06831606069983 -0.5 L 107.25681428034991 -0.5 Z"/><text text-anchor="middle" pointer-events="none" font-size="8px" fill="#000000" x="90.03415803034991" y="3" font-family="sans-serif">ORIGIN</text></g><g class="relationship" transform="translate(85.27346652783609 -299.37386301003625) rotate(453.71334311290997)"><path class="outline" fill="#A5ABB6" stroke="none" d="M 25 0.5 L 66.15895237526655 0.5 L 66.15895237526655 -0.5 L 25 -0.5 Z M 102.38942112526655 0.5 L 143.5483735005331 0.5 L 143.5483735005331 3.5 L 150.5483735005331 0 L 143.5483735005331 -3.5 L 143.5483735005331 -0.5 L 102.38942112526655 -0.5 Z"/><text text-anchor="middle" pointer-events="none" font-size="8px" fill="#000000" x="84.27418675026655" y="3" transform="rotate(180 84.27418675026655 0)" font-family="sans-serif">ASSIGN</text></g><g class="relationship" transform="translate(-3.1989490621269847 -59.83416453817396) rotate(258.0384918918158)"><path class="outline" fill="#A5ABB6" stroke="none" d="M 25 0.5 L 42.87787024005743 0.5 L 42.87787024005743 -0.5 L 25 -0.5 Z M 102.06537024005743 0.5 L 119.94324048011487 0.5 L 119.94324048011487 3.5 L 126.94324048011487 0 L 119.94324048011487 -3.5 L 119.94324048011487 -0.5 L 102.06537024005743 -0.5 Z"/><text text-anchor="middle" pointer-events="none" font-size="8px" fill="#000000" x="72.47162024005743" y="3" transform="rotate(180 72.47162024005743 0)" font-family="sans-serif">DESTINATION</text></g><g class="relationship" transform="translate(-3.1989490621269847 -59.83416453817396) rotate(416.3236948451186)"><path class="outline" fill="#A5ABB6" stroke="none" d="M 25 0.5 L 52.96982318016266 0.5 L 52.96982318016266 -0.5 L 25 -0.5 Z M 87.41513568016266 0.5 L 115.38495886032533 0.5 L 115.38495886032533 3.5 L 122.38495886032533 0 L 115.38495886032533 -3.5 L 115.38495886032533 -0.5 L 87.41513568016266 -0.5 Z"/><text text-anchor="middle" pointer-events="none" font-size="8px" fill="#000000" x="70.19247943016266" y="3" font-family="sans-serif">ORIGIN</text></g><g class="relationship" transform="translate(-118.28946547678888 -185.69304358096684) rotate(407.55892508572424)"><path class="outline" fill="#A5ABB6" stroke="none" d="M 25 0.5 L 63.65827323800653 0.5 L 63.65827323800653 -0.5 L 25 -0.5 Z M 99.88874198800653 0.5 L 138.54701522601306 0.5 L 138.54701522601306 3.5 L 145.54701522601306 0 L 138.54701522601306 -3.5 L 138.54701522601306 -0.5 L 99.88874198800653 -0.5 Z"/><text text-anchor="middle" pointer-events="none" font-size="8px" fill="#000000" x="81.77350761300653" y="3" font-family="sans-serif">ASSIGN</text></g><g class="relationship" transform="translate(-59.2718843211526 -80.94062855349544) rotate(406.21263191336897)"><path class="outline" fill="#A5ABB6" stroke="none" d="M 25 0.5 L 78.84462870275863 0.5 L 78.84462870275863 -0.5 L 25 -0.5 Z M 113.28994120275863 0.5 L 167.13456990551725 0.5 L 167.13456990551725 3.5 L 174.13456990551725 0 L 167.13456990551725 -3.5 L 167.13456990551725 -0.5 L 113.28994120275863 -0.5 Z"/><text text-anchor="middle" pointer-events="none" font-size="8px" fill="#000000" x="96.06728495275863" y="3" font-family="sans-serif">ORIGIN</text></g><g class="relationship" transform="translate(-59.2718843211526 -80.94062855349544) rotate(280.9095877842178)"><path class="outline" fill="#A5ABB6" stroke="none" d="M 25 0.5 L 31.848773374232564 0.5 L 31.848773374232564 -0.5 L 25 -0.5 Z M 91.03627337423256 0.5 L 97.88504674846513 0.5 L 97.88504674846513 3.5 L 104.88504674846513 0 L 97.88504674846513 -3.5 L 97.88504674846513 -0.5 L 91.03627337423256 -0.5 Z"/><text text-anchor="middle" pointer-events="none" font-size="8px" fill="#000000" x="61.442523374232564" y="3" font-family="sans-serif">DESTINATION</text></g><g class="relationship" transform="translate(-199.40748524699086 -190.85262952299593) rotate(398.1080137281463)"><path class="outline" fill="#A5ABB6" stroke="none" d="M 25 0.5 L 67.43339644541925 0.5 L 67.43339644541925 -0.5 L 25 -0.5 Z M 103.66386519541925 0.5 L 146.0972616408385 0.5 L 146.0972616408385 3.5 L 153.0972616408385 0 L 146.0972616408385 -3.5 L 146.0972616408385 -0.5 L 103.66386519541925 -0.5 Z"/><text text-anchor="middle" pointer-events="none" font-size="8px" fill="#000000" x="85.54863082041925" y="3" font-family="sans-serif">ASSIGN</text></g><g class="relationship" transform="translate(259.58270074774384 9.423534499863324) rotate(303.1311372724017)"><path class="outline" fill="#A5ABB6" stroke="none" d="M 25 0.5 L 25.979648790898622 0.5 L 25.979648790898622 -0.5 L 25 -0.5 Z M 61.31558629089862 0.5 L 62.295235081797244 0.5 L 62.295235081797244 3.5 L 69.29523508179724 0 L 62.295235081797244 -3.5 L 62.295235081797244 -0.5 L 61.31558629089862 -0.5 Z"/><text text-anchor="middle" pointer-events="none" font-size="8px" fill="#000000" x="43.64761754089862" y="3" font-family="sans-serif">DEST…</text></g><g class="relationship" transform="translate(259.58270074774384 9.423534499863324) rotate(523.5692032809322)"><path class="outline" fill="#A5ABB6" stroke="none" d="M 25 0.5 L 73.66005915385271 0.5 L 73.66005915385271 -0.5 L 25 -0.5 Z M 108.10537165385271 0.5 L 156.76543080770543 0.5 L 156.76543080770543 3.5 L 163.76543080770543 0 L 156.76543080770543 -3.5 L 156.76543080770543 -0.5 L 108.10537165385271 -0.5 Z"/><text text-anchor="middle" pointer-events="none" font-size="8px" fill="#000000" x="90.88271540385271" y="3" transform="rotate(180 90.88271540385271 0)" font-family="sans-serif">ORIGIN</text></g><g class="relationship" transform="translate(444.39236689022357 -29.840511824300947) rotate(528.0054760553397)"><path class="outline" fill="#A5ABB6" stroke="none" d="M 25 0.5 L 72.85205895110431 0.5 L 72.85205895110431 -0.5 L 25 -0.5 Z M 109.08252770110431 0.5 L 156.93458665220862 0.5 L 156.93458665220862 3.5 L 163.93458665220862 0 L 156.93458665220862 -3.5 L 156.93458665220862 -0.5 L 109.08252770110431 -0.5 Z"/><text text-anchor="middle" pointer-events="none" font-size="8px" fill="#000000" x="90.96729332610431" y="3" transform="rotate(180 90.96729332610431 0)" font-family="sans-serif">ASSIGN</text></g><g class="relationship" transform="translate(186.4616523015798 -115.21139417723516) rotate(380.12083391528813)"><path class="outline" fill="#A5ABB6" stroke="none" d="M 25 0.5 L 33.286903587672796 0.5 L 33.286903587672796 -0.5 L 25 -0.5 Z M 92.4744035876728 0.5 L 100.76130717534559 0.5 L 100.76130717534559 3.5 L 107.76130717534559 0 L 100.76130717534559 -3.5 L 100.76130717534559 -0.5 L 92.4744035876728 -0.5 Z"/><text text-anchor="middle" pointer-events="none" font-size="8px" fill="#000000" x="62.880653587672796" y="3" font-family="sans-serif">DESTINATION</text></g><g class="relationship" transform="translate(186.4616523015798 -115.21139417723516) rotate(481.22769835078793)"><path class="outline" fill="#A5ABB6" stroke="none" d="M 25 0.5 L 83.37376695379088 0.5 L 83.37376695379088 -0.5 L 25 -0.5 Z M 117.81907945379088 0.5 L 176.19284640758175 0.5 L 176.19284640758175 3.5 L 183.19284640758175 0 L 176.19284640758175 -3.5 L 176.19284640758175 -0.5 L 117.81907945379088 -0.5 Z"/><text text-anchor="middle" pointer-events="none" font-size="8px" fill="#000000" x="100.59642320379088" y="3" transform="rotate(180 100.59642320379088 0)" font-family="sans-serif">ORIGIN</text></g><g class="relationship" transform="translate(273.9116687596471 -276.4823587732738) rotate(478.46899258937447)"><path class="outline" fill="#A5ABB6" stroke="none" d="M 25 0.5 L 70.11239150762736 0.5 L 70.11239150762736 -0.5 L 25 -0.5 Z M 106.34286025762736 0.5 L 151.45525176525473 0.5 L 151.45525176525473 3.5 L 158.45525176525473 0 L 151.45525176525473 -3.5 L 151.45525176525473 -0.5 L 106.34286025762736 -0.5 Z"/><text text-anchor="middle" pointer-events="none" font-size="8px" fill="#000000" x="88.22762588262736" y="3" transform="rotate(180 88.22762588262736 0)" font-family="sans-serif">ASSIGN</text></g><g class="relationship" transform="translate(157.36747785476396 -62.83483407986222) rotate(357.50241044478435)"><path class="outline" fill="#A5ABB6" stroke="none" d="M 25 0.5 L 43.85582610433062 0.5 L 43.85582610433062 -0.5 L 25 -0.5 Z M 103.04332610433062 0.5 L 121.89915220866123 0.5 L 121.89915220866123 3.5 L 128.89915220866123 0 L 121.89915220866123 -3.5 L 121.89915220866123 -0.5 L 103.04332610433062 -0.5 Z"/><text text-anchor="middle" pointer-events="none" font-size="8px" fill="#000000" x="73.44957610433062" y="3" font-family="sans-serif">DESTINATION</text></g><g class="relationship" transform="translate(157.36747785476396 -62.83483407986222) rotate(482.1065661133981)"><path class="outline" fill="#A5ABB6" stroke="none" d="M 25 0.5 L 53.446736002300455 0.5 L 53.446736002300455 -0.5 L 25 -0.5 Z M 87.89204850230045 0.5 L 116.33878450460091 0.5 L 116.33878450460091 3.5 L 123.33878450460091 0 L 116.33878450460091 -3.5 L 116.33878450460091 -0.5 L 87.89204850230045 -0.5 Z"/><text text-anchor="middle" pointer-events="none" font-size="8px" fill="#000000" x="70.66939225230045" y="3" transform="rotate(180 70.66939225230045 0)" font-family="sans-serif">ORIGIN</text></g><g class="relationship" transform="translate(201.97093698806455 -230.98741212010248) rotate(464.85592473684045)"><path class="outline" fill="#A5ABB6" stroke="none" d="M 25 0.5 L 65.36861192452147 0.5 L 65.36861192452147 -0.5 L 25 -0.5 Z M 101.59908067452147 0.5 L 141.96769259904295 0.5 L 141.96769259904295 3.5 L 148.96769259904295 0 L 141.96769259904295 -3.5 L 141.96769259904295 -0.5 L 101.59908067452147 -0.5 Z"/><text text-anchor="middle" pointer-events="none" font-size="8px" fill="#000000" x="83.48384629952147" y="3" transform="rotate(180 83.48384629952147 0)" font-family="sans-serif">ASSIGN</text></g><g class="relationship" transform="translate(-94.44965280073491 -6.898187759849048) rotate(381.9511854794689)"><path class="outline" fill="#A5ABB6" stroke="none" d="M 25 0.5 L 72.5254367294257 0.5 L 72.5254367294257 -0.5 L 25 -0.5 Z M 106.9707492294257 0.5 L 154.4961859588514 0.5 L 154.4961859588514 3.5 L 161.4961859588514 0 L 154.4961859588514 -3.5 L 154.4961859588514 -0.5 L 106.9707492294257 -0.5 Z"/><text text-anchor="middle" pointer-events="none" font-size="8px" fill="#000000" x="89.7480929794257" y="3" font-family="sans-serif">ORIGIN</text></g><g class="relationship" transform="translate(-94.44965280073491 -6.898187759849048) rotate(538.5572588920147)"><path class="outline" fill="#A5ABB6" stroke="none" d="M 25 0.5 L 36.71393704654061 0.5 L 36.71393704654061 -0.5 L 25 -0.5 Z M 95.90143704654061 0.5 L 107.61537409308121 0.5 L 107.61537409308121 3.5 L 114.61537409308121 0 L 107.61537409308121 -3.5 L 107.61537409308121 -0.5 L 95.90143704654061 -0.5 Z"/><text text-anchor="middle" pointer-events="none" font-size="8px" fill="#000000" x="66.30768704654061" y="3" transform="rotate(180 66.30768704654061 0)" font-family="sans-serif">DESTINATION</text></g><g class="relationship" transform="translate(-253.94937945525197 -83.61437832971062) rotate(385.68662734279786)"><path class="outline" fill="#A5ABB6" stroke="none" d="M 25 0.5 L 66.87987382090112 0.5 L 66.87987382090112 -0.5 L 25 -0.5 Z M 103.11034257090112 0.5 L 144.99021639180225 0.5 L 144.99021639180225 3.5 L 151.99021639180225 0 L 144.99021639180225 -3.5 L 144.99021639180225 -0.5 L 103.11034257090112 -0.5 Z"/><text text-anchor="middle" pointer-events="none" font-size="8px" fill="#000000" x="84.99510819590112" y="3" font-family="sans-serif">ASSIGN</text></g><g class="relationship" transform="translate(-105.41650304319069 52.06250743773906) rotate(203.32244145138316)"><path class="outline" fill="#A5ABB6" stroke="none" d="M 25 0.5 L 36.929918926621724 0.5 L 36.929918926621724 -0.5 L 25 -0.5 Z M 96.11741892662172 0.5 L 108.04733785324345 0.5 L 108.04733785324345 3.5 L 115.04733785324345 0 L 108.04733785324345 -3.5 L 108.04733785324345 -0.5 L 96.11741892662172 -0.5 Z"/><text text-anchor="middle" pointer-events="none" font-size="8px" fill="#000000" x="66.52366892662172" y="3" transform="rotate(180 66.52366892662172 0)" font-family="sans-serif">DESTINATION</text></g><g class="relationship" transform="translate(-105.41650304319069 52.06250743773906) rotate(363.346131133775)"><path class="outline" fill="#A5ABB6" stroke="none" d="M 25 0.5 L 71.40568976165576 0.5 L 71.40568976165576 -0.5 L 25 -0.5 Z M 105.85100226165576 0.5 L 152.25669202331153 0.5 L 152.25669202331153 3.5 L 159.25669202331153 0 L 152.25669202331153 -3.5 L 152.25669202331153 -0.5 L 105.85100226165576 -0.5 Z"/><text text-anchor="middle" pointer-events="none" font-size="8px" fill="#000000" x="88.62834601165576" y="3" font-family="sans-serif">ORIGIN</text></g><g class="relationship" transform="translate(-285.16563775712694 59.91259786671994) rotate(357.49934025105586)"><path class="outline" fill="#A5ABB6" stroke="none" d="M 25 0.5 L 68.34500038201915 0.5 L 68.34500038201915 -0.5 L 25 -0.5 Z M 104.57546913201915 0.5 L 147.9204695140383 0.5 L 147.9204695140383 3.5 L 154.9204695140383 0 L 147.9204695140383 -3.5 L 147.9204695140383 -0.5 L 104.57546913201915 -0.5 Z"/><text text-anchor="middle" pointer-events="none" font-size="8px" fill="#000000" x="86.46023475701915" y="3" font-family="sans-serif">ASSIGN</text></g><g class="relationship" transform="translate(-64.06334200680874 194.43195630116122) rotate(317.29195438291356)"><path class="outline" fill="#A5ABB6" stroke="none" d="M 25 0.5 L 76.30078118606957 0.5 L 76.30078118606957 -0.5 L 25 -0.5 Z M 110.74609368606957 0.5 L 162.04687487213914 0.5 L 162.04687487213914 3.5 L 169.04687487213914 0 L 162.04687487213914 -3.5 L 162.04687487213914 -0.5 L 110.74609368606957 -0.5 Z"/><text text-anchor="middle" pointer-events="none" font-size="8px" fill="#000000" x="93.52343743606957" y="3" font-family="sans-serif">ORIGIN</text></g><g class="relationship" transform="translate(-64.06334200680874 194.43195630116122) rotate(501.51497631473626)"><path class="outline" fill="#A5ABB6" stroke="none" d="M 25 0.5 L 27.038521204989458 0.5 L 27.038521204989458 -0.5 L 25 -0.5 Z M 64.59711495498945 0.5 L 66.63563615997892 0.5 L 66.63563615997892 3.5 L 73.63563615997892 0 L 66.63563615997892 -3.5 L 66.63563615997892 -0.5 L 64.59711495498945 -0.5 Z"/><text text-anchor="middle" pointer-events="none" font-size="8px" fill="#000000" x="45.81781807998946" y="3" transform="rotate(180 45.81781807998946 0)" font-family="sans-serif">DESTI…</text></g><g class="relationship" transform="translate(-196.09801760725216 327.2161750240593) rotate(314.8378305184435)"><path class="outline" fill="#A5ABB6" stroke="none" d="M 25 0.5 L 72.01275863826068 0.5 L 72.01275863826068 -0.5 L 25 -0.5 Z M 108.24322738826068 0.5 L 155.25598602652136 0.5 L 155.25598602652136 3.5 L 162.25598602652136 0 L 155.25598602652136 -3.5 L 155.25598602652136 -0.5 L 108.24322738826068 -0.5 Z"/><text text-anchor="middle" pointer-events="none" font-size="8px" fill="#000000" x="90.12799301326068" y="3" font-family="sans-serif">ASSIGN</text></g><g class="relationship" transform="translate(-105.60310634201937 132.50838740924013) rotate(339.26879996579487)"><path class="outline" fill="#A5ABB6" stroke="none" d="M 25 0.5 L 77.7156687947361 0.5 L 77.7156687947361 -0.5 L 25 -0.5 Z M 112.1609812947361 0.5 L 164.8766500894722 0.5 L 164.8766500894722 3.5 L 171.8766500894722 0 L 164.8766500894722 -3.5 L 164.8766500894722 -0.5 L 112.1609812947361 -0.5 Z"/><text text-anchor="middle" pointer-events="none" font-size="8px" fill="#000000" x="94.9383250447361" y="3" font-family="sans-serif">ORIGIN</text></g><g class="relationship" transform="translate(-105.60310634201937 132.50838740924013) rotate(466.13389151633214)"><path class="outline" fill="#A5ABB6" stroke="none" d="M 25 0.5 L 31.08676108919326 0.5 L 31.08676108919326 -0.5 L 25 -0.5 Z M 90.27426108919326 0.5 L 96.36102217838652 0.5 L 96.36102217838652 3.5 L 103.36102217838652 0 L 96.36102217838652 -3.5 L 96.36102217838652 -0.5 L 90.27426108919326 -0.5 Z"/><text text-anchor="middle" pointer-events="none" font-size="8px" fill="#000000" x="60.68051108919326" y="3" transform="rotate(180 60.68051108919326 0)" font-family="sans-serif">DESTINATION</text></g><g class="relationship" transform="translate(-283.58142927429 177.93200923725232) rotate(345.68261504499446)"><path class="outline" fill="#A5ABB6" stroke="none" d="M 25 0.5 L 70.22646211107035 0.5 L 70.22646211107035 -0.5 L 25 -0.5 Z M 106.45693086107035 0.5 L 151.6833929721407 0.5 L 151.6833929721407 3.5 L 158.6833929721407 0 L 151.6833929721407 -3.5 L 151.6833929721407 -0.5 L 106.45693086107035 -0.5 Z"/><text text-anchor="middle" pointer-events="none" font-size="8px" fill="#000000" x="88.34169648607035" y="3" font-family="sans-serif">ASSIGN</text></g><g class="relationship" transform="translate(-7.847926221681376 215.11386602808193) rotate(299.5594300654625)"><path class="outline" fill="#A5ABB6" stroke="none" d="M 25 0.5 L 66.8198327567272 0.5 L 66.8198327567272 -0.5 L 25 -0.5 Z M 101.2651452567272 0.5 L 143.0849780134544 0.5 L 143.0849780134544 3.5 L 150.0849780134544 0 L 143.0849780134544 -3.5 L 143.0849780134544 -0.5 L 101.2651452567272 -0.5 Z"/><text text-anchor="middle" pointer-events="none" font-size="8px" fill="#000000" x="84.0424890067272" y="3" font-family="sans-serif">ORIGIN</text></g><g class="relationship" transform="translate(-7.847926221681376 215.11386602808193) rotate(523.0361094470859)"><path class="outline" fill="#A5ABB6" stroke="none" d="M 25 0.5 L 36.65328333757353 0.5 L 36.65328333757353 -0.5 L 25 -0.5 Z M 95.84078333757353 0.5 L 107.49406667514705 0.5 L 107.49406667514705 3.5 L 114.49406667514705 0 L 107.49406667514705 -3.5 L 107.49406667514705 -0.5 L 95.84078333757353 -0.5 Z"/><text text-anchor="middle" pointer-events="none" font-size="8px" fill="#000000" x="66.24703333757353" y="3" transform="rotate(180 66.24703333757353 0)" font-family="sans-serif">DESTINATION</text></g><g class="relationship" transform="translate(-98.12459378835177 367.573411604888) rotate(300.6312696016296)"><path class="outline" fill="#A5ABB6" stroke="none" d="M 25 0.5 L 66.97622930016078 0.5 L 66.97622930016078 -0.5 L 25 -0.5 Z M 103.20669805016078 0.5 L 145.18292735032156 0.5 L 145.18292735032156 3.5 L 152.18292735032156 0 L 145.18292735032156 -3.5 L 145.18292735032156 -0.5 L 103.20669805016078 -0.5 Z"/><text text-anchor="middle" pointer-events="none" font-size="8px" fill="#000000" x="85.09146367516078" y="3" font-family="sans-serif">ASSIGN</text></g><g class="relationship" transform="translate(-45.87163951704731 137.3645865308185) rotate(488.84847412888683)"><path class="outline" fill="#A5ABB6" stroke="none" d="M 25 0.5 L 42.95155567453334 0.5 L 42.95155567453334 -0.5 L 25 -0.5 Z M 102.13905567453334 0.5 L 120.09061134906668 0.5 L 120.09061134906668 3.5 L 127.09061134906668 0 L 120.09061134906668 -3.5 L 120.09061134906668 -0.5 L 102.13905567453334 -0.5 Z"/><text text-anchor="middle" pointer-events="none" font-size="8px" fill="#000000" x="72.54530567453334" y="3" transform="rotate(180 72.54530567453334 0)" font-family="sans-serif">DESTINATION</text></g><g class="relationship" transform="translate(-45.87163951704731 137.3645865308185) rotate(329.0671396949928)"><path class="outline" fill="#A5ABB6" stroke="none" d="M 25 0.5 L 51.78959247793138 0.5 L 51.78959247793138 -0.5 L 25 -0.5 Z M 86.23490497793138 0.5 L 113.02449745586276 0.5 L 113.02449745586276 3.5 L 120.02449745586276 0 L 113.02449745586276 -3.5 L 113.02449745586276 -0.5 L 86.23490497793138 -0.5 Z"/><text text-anchor="middle" pointer-events="none" font-size="8px" fill="#000000" x="69.01224872793138" y="3" font-family="sans-serif">ORIGIN</text></g><g class="relationship" transform="translate(-207.24340753812737 206.5620124409697) rotate(336.7899829644292)"><path class="outline" fill="#A5ABB6" stroke="none" d="M 25 0.5 L 66.17589739074293 0.5 L 66.17589739074293 -0.5 L 25 -0.5 Z M 102.40636614074293 0.5 L 143.58226353148586 0.5 L 143.58226353148586 3.5 L 150.58226353148586 0 L 143.58226353148586 -3.5 L 143.58226353148586 -0.5 L 102.40636614074293 -0.5 Z"/><text text-anchor="middle" pointer-events="none" font-size="8px" fill="#000000" x="84.29113176574293" y="3" font-family="sans-serif">ASSIGN</text></g></g><g class="layer nodes"><g class="node" transform="translate(78.52605820706705,62.81716764011907)"><circle class="outline" cx="0" cy="0" r="25" fill="#D9C8AE" stroke="#c0a378" stroke-width="2px"/><text text-anchor="middle" pointer-events="none" font-family="sans-serif" dy="1.5625" font-size="25" fill="#2A2C34"/><text text-anchor="middle" pointer-events="none" x="0" y="5" font-size="10px" fill="#2A2C34" font-family="sans-serif"> LAX</text></g><g class="node" transform="translate(42.67324242031182,248.97258652949657)"><circle class="outline" cx="0" cy="0" r="25" fill="#8DCC93" stroke="#5db665" stroke-width="2px"/><text text-anchor="middle" pointer-events="none" font-family="sans-serif" dy="1.5625" font-size="25" fill="#2A2C34"/><text text-anchor="middle" pointer-events="none" x="0" y="5" font-size="10px" fill="#2A2C34" font-family="sans-serif"> 11/30/20…</text></g><g class="node" transform="translate(-30.307365855877993,415.11837117784864)"><circle class="outline" cx="0" cy="0" r="25" fill="#D9C8AE" stroke="#c0a378" stroke-width="2px"/><text text-anchor="middle" pointer-events="none" font-family="sans-serif" dy="1.5625" font-size="25" fill="#2A2C34"/><text text-anchor="middle" pointer-events="none" x="0" y="5" font-size="10px" fill="#2A2C34" font-family="sans-serif"> IAH</text></g><g class="node" transform="translate(29.366303341509703,421.304774553402)"><circle class="outline" cx="0" cy="0" r="25" fill="#ECB5C9" stroke="#da7298" stroke-width="2px"/><text text-anchor="middle" pointer-events="none" font-family="sans-serif" dy="1.5625" font-size="25" fill="#2A2C34"/><text text-anchor="middle" pointer-events="none" x="0" y="5" font-size="10px" fill="#2A2C34" font-family="sans-serif"> 1070.25</text></g><g class="node" transform="translate(150.38795417095636,220.4235469658228)"><circle class="outline" cx="0" cy="0" r="25" fill="#8DCC93" stroke="#5db665" stroke-width="2px"/><text text-anchor="middle" pointer-events="none" font-family="sans-serif" dy="1.5625" font-size="25" fill="#2A2C34"/><text text-anchor="middle" pointer-events="none" x="0" y="5" font-size="10px" fill="#2A2C34" font-family="sans-serif"> 11/30/20…</text></g><g class="node" transform="translate(251.56844351075122,313.8102005740505)"><circle class="outline" cx="0" cy="0" r="25" fill="#D9C8AE" stroke="#c0a378" stroke-width="2px"/><text text-anchor="middle" pointer-events="none" font-family="sans-serif" dy="1.5625" font-size="25" fill="#2A2C34"/><text text-anchor="middle" pointer-events="none" x="0" y="5" font-size="10px" fill="#2A2C34" font-family="sans-serif"> EWR</text></g><g class="node" transform="translate(229.85793909948492,385.27305588448127)"><circle class="outline" cx="0" cy="0" r="25" fill="#ECB5C9" stroke="#da7298" stroke-width="2px"/><text text-anchor="middle" pointer-events="none" font-family="sans-serif" dy="1.5625" font-size="25" fill="#2A2C34"/><text text-anchor="middle" pointer-events="none" x="0" y="5" font-size="10px" fill="#2A2C34" font-family="sans-serif"> 1905.0</text></g><g class="node" transform="translate(200.21750174656546,187.14780466187275)"><circle class="outline" cx="0" cy="0" r="25" fill="#8DCC93" stroke="#5db665" stroke-width="2px"/><text text-anchor="middle" pointer-events="none" font-family="sans-serif" dy="1.5625" font-size="25" fill="#2A2C34"/><text text-anchor="middle" pointer-events="none" x="0" y="5" font-size="10px" fill="#2A2C34" font-family="sans-serif"> 11/29/20…</text></g><g class="node" transform="translate(325.42042103515035,321.50152496371436)"><circle class="outline" cx="0" cy="0" r="25" fill="#ECB5C9" stroke="#da7298" stroke-width="2px"/><text text-anchor="middle" pointer-events="none" font-family="sans-serif" dy="1.5625" font-size="25" fill="#2A2C34"/><text text-anchor="middle" pointer-events="none" x="0" y="5" font-size="10px" fill="#2A2C34" font-family="sans-serif"> 1907.25</text></g><g class="node" transform="translate(104.78339433416872,259.4486223341154)"><circle class="outline" cx="0" cy="0" r="25" fill="#8DCC93" stroke="#5db665" stroke-width="2px"/><text text-anchor="middle" pointer-events="none" font-family="sans-serif" dy="1.5625" font-size="25" fill="#2A2C34"/><text text-anchor="middle" pointer-events="none" x="0" y="5" font-size="10px" fill="#2A2C34" font-family="sans-serif"> 11/29/20…</text></g><g class="node" transform="translate(164.73354840102814,434.0029537235391)"><circle class="outline" cx="0" cy="0" r="25" fill="#D9C8AE" stroke="#c0a378" stroke-width="2px"/><text text-anchor="middle" pointer-events="none" font-family="sans-serif" dy="1.5625" font-size="25" fill="#2A2C34"/><text text-anchor="middle" pointer-events="none" x="0" y="5" font-size="10px" fill="#2A2C34" font-family="sans-serif"> BOS</text></g><g class="node" transform="translate(103.86506724733206,436.4604491523015)"><circle class="outline" cx="0" cy="0" r="25" fill="#ECB5C9" stroke="#da7298" stroke-width="2px"/><text text-anchor="middle" pointer-events="none" font-family="sans-serif" dy="1.5625" font-size="25" fill="#2A2C34"/><text text-anchor="middle" pointer-events="none" x="0" y="5" font-size="10px" fill="#2A2C34" font-family="sans-serif"> 2025.0</text></g><g class="node" transform="translate(254.74108183277644,162.02736246008055)"><circle class="outline" cx="0" cy="0" r="25" fill="#8DCC93" stroke="#5db665" stroke-width="2px"/><text text-anchor="middle" pointer-events="none" font-family="sans-serif" dy="1.5625" font-size="25" fill="#2A2C34"/><text text-anchor="middle" pointer-events="none" x="0" y="5" font-size="10px" fill="#2A2C34" font-family="sans-serif"> 11/29/20…</text></g><g class="node" transform="translate(394.74451239663733,277.35615895341795)"><circle class="outline" cx="0" cy="0" r="25" fill="#D9C8AE" stroke="#c0a378" stroke-width="2px"/><text text-anchor="middle" pointer-events="none" font-family="sans-serif" dy="1.5625" font-size="25" fill="#2A2C34"/><text text-anchor="middle" pointer-events="none" x="0" y="5" font-size="10px" fill="#2A2C34" font-family="sans-serif"> LAS</text></g><g class="node" transform="translate(423.8729983639462,219.76378218569343)"><circle class="outline" cx="0" cy="0" r="25" fill="#ECB5C9" stroke="#da7298" stroke-width="2px"/><text text-anchor="middle" pointer-events="none" font-family="sans-serif" dy="1.5625" font-size="25" fill="#2A2C34"/><text text-anchor="middle" pointer-events="none" x="0" y="5" font-size="10px" fill="#2A2C34" font-family="sans-serif"> 186.75</text></g><g class="node" transform="translate(201.63260660278198,-5.962837210180999)"><circle class="outline" cx="0" cy="0" r="25" fill="#8DCC93" stroke="#5db665" stroke-width="2px"/><text text-anchor="middle" pointer-events="none" font-family="sans-serif" dy="1.5625" font-size="25" fill="#2A2C34"/><text text-anchor="middle" pointer-events="none" x="0" y="5" font-size="10px" fill="#2A2C34" font-family="sans-serif"> 11/2/2015</text></g><g class="node" transform="translate(311.1204344523996,-69.54135240387001)"><circle class="outline" cx="0" cy="0" r="25" fill="#D9C8AE" stroke="#c0a378" stroke-width="2px"/><text text-anchor="middle" pointer-events="none" font-family="sans-serif" dy="1.5625" font-size="25" fill="#2A2C34"/><text text-anchor="middle" pointer-events="none" x="0" y="5" font-size="10px" fill="#2A2C34" font-family="sans-serif"> ABQ</text></g><g class="node" transform="translate(373.659423288728,-89.17243992004263)"><circle class="outline" cx="0" cy="0" r="25" fill="#ECB5C9" stroke="#da7298" stroke-width="2px"/><text text-anchor="middle" pointer-events="none" font-family="sans-serif" dy="1.5625" font-size="25" fill="#2A2C34"/><text text-anchor="middle" pointer-events="none" x="0" y="5" font-size="10px" fill="#2A2C34" font-family="sans-serif"> 530.25</text></g><g class="node" transform="translate(279.66349037430786,65.90835864695273)"><circle class="outline" cx="0" cy="0" r="25" fill="#8DCC93" stroke="#5db665" stroke-width="2px"/><text text-anchor="middle" pointer-events="none" font-family="sans-serif" dy="1.5625" font-size="25" fill="#2A2C34"/><text text-anchor="middle" pointer-events="none" x="0" y="5" font-size="10px" fill="#2A2C34" font-family="sans-serif"> 11/4/2015</text></g><g class="node" transform="translate(467.20188192891953,82.42205759024186)"><circle class="outline" cx="0" cy="0" r="25" fill="#ECB5C9" stroke="#da7298" stroke-width="2px"/><text text-anchor="middle" pointer-events="none" font-family="sans-serif" dy="1.5625" font-size="25" fill="#2A2C34"/><text text-anchor="middle" pointer-events="none" x="0" y="5" font-size="10px" fill="#2A2C34" font-family="sans-serif"> 528.75</text></g><g class="node" transform="translate(217.30472640364832,-63.79718129465845)"><circle class="outline" cx="0" cy="0" r="25" fill="#8DCC93" stroke="#5db665" stroke-width="2px"/><text text-anchor="middle" pointer-events="none" font-family="sans-serif" dy="1.5625" font-size="25" fill="#2A2C34"/><text text-anchor="middle" pointer-events="none" x="0" y="5" font-size="10px" fill="#2A2C34" font-family="sans-serif"> 11/1/2015</text></g><g class="node" transform="translate(351.0493143199647,-189.47993483856163)"><circle class="outline" cx="0" cy="0" r="25" fill="#ECB5C9" stroke="#da7298" stroke-width="2px"/><text text-anchor="middle" pointer-events="none" font-family="sans-serif" dy="1.5625" font-size="25" fill="#2A2C34"/><text text-anchor="middle" pointer-events="none" x="0" y="5" font-size="10px" fill="#2A2C34" font-family="sans-serif"> 529.5</text></g><g class="node" transform="translate(220.71964256181448,55.02802120800637)"><circle class="outline" cx="0" cy="0" r="25" fill="#8DCC93" stroke="#5db665" stroke-width="2px"/><text text-anchor="middle" pointer-events="none" font-family="sans-serif" dy="1.5625" font-size="25" fill="#2A2C34"/><text text-anchor="middle" pointer-events="none" x="0" y="5" font-size="10px" fill="#2A2C34" font-family="sans-serif"> 11/3/2015</text></g><g class="node" transform="translate(386.8545752942223,97.26064195772426)"><circle class="outline" cx="0" cy="0" r="25" fill="#ECB5C9" stroke="#da7298" stroke-width="2px"/><text text-anchor="middle" pointer-events="none" font-family="sans-serif" dy="1.5625" font-size="25" fill="#2A2C34"/><text text-anchor="middle" pointer-events="none" x="0" y="5" font-size="10px" fill="#2A2C34" font-family="sans-serif"> 528.75</text></g><g class="node" transform="translate(14.395439095310902,-117.10412200446069)"><circle class="outline" cx="0" cy="0" r="25" fill="#8DCC93" stroke="#5db665" stroke-width="2px"/><text text-anchor="middle" pointer-events="none" font-family="sans-serif" dy="1.5625" font-size="25" fill="#2A2C34"/><text text-anchor="middle" pointer-events="none" x="0" y="5" font-size="10px" fill="#2A2C34" font-family="sans-serif"> 11/3/2015</text></g><g class="node" transform="translate(-34.6898715792051,-208.47827012807414)"><circle class="outline" cx="0" cy="0" r="25" fill="#D9C8AE" stroke="#c0a378" stroke-width="2px"/><text text-anchor="middle" pointer-events="none" font-family="sans-serif" dy="1.5625" font-size="25" fill="#2A2C34"/><text text-anchor="middle" pointer-events="none" x="0" y="5" font-size="10px" fill="#2A2C34" font-family="sans-serif"> FAT</text></g><g class="node" transform="translate(-37.346447108229015,-292.1658497344739)"><circle class="outline" cx="0" cy="0" r="25" fill="#ECB5C9" stroke="#da7298" stroke-width="2px"/><text text-anchor="middle" pointer-events="none" font-family="sans-serif" dy="1.5625" font-size="25" fill="#2A2C34"/><text text-anchor="middle" pointer-events="none" x="0" y="5" font-size="10px" fill="#2A2C34" font-family="sans-serif"> 165.75</text></g><g class="node" transform="translate(73.90412837175698,-124.19404228694215)"><circle class="outline" cx="0" cy="0" r="25" fill="#8DCC93" stroke="#5db665" stroke-width="2px"/><text text-anchor="middle" pointer-events="none" font-family="sans-serif" dy="1.5625" font-size="25" fill="#2A2C34"/><text text-anchor="middle" pointer-events="none" x="0" y="5" font-size="10px" fill="#2A2C34" font-family="sans-serif"> 11/2/2015</text></g><g class="node" transform="translate(85.27346652783609,-299.37386301003625)"><circle class="outline" cx="0" cy="0" r="25" fill="#ECB5C9" stroke="#da7298" stroke-width="2px"/><text text-anchor="middle" pointer-events="none" font-family="sans-serif" dy="1.5625" font-size="25" fill="#2A2C34"/><text text-anchor="middle" pointer-events="none" x="0" y="5" font-size="10px" fill="#2A2C34" font-family="sans-serif"> 166.5</text></g><g class="node" transform="translate(-3.1989490621269847,-59.83416453817396)"><circle class="outline" cx="0" cy="0" r="25" fill="#8DCC93" stroke="#5db665" stroke-width="2px"/><text text-anchor="middle" pointer-events="none" font-family="sans-serif" dy="1.5625" font-size="25" fill="#2A2C34"/><text text-anchor="middle" pointer-events="none" x="0" y="5" font-size="10px" fill="#2A2C34" font-family="sans-serif"> 11/1/2015</text></g><g class="node" transform="translate(-118.28946547678888,-185.69304358096684)"><circle class="outline" cx="0" cy="0" r="25" fill="#ECB5C9" stroke="#da7298" stroke-width="2px"/><text text-anchor="middle" pointer-events="none" font-family="sans-serif" dy="1.5625" font-size="25" fill="#2A2C34"/><text text-anchor="middle" pointer-events="none" x="0" y="5" font-size="10px" fill="#2A2C34" font-family="sans-serif"> 165.75</text></g><g class="node" transform="translate(-59.2718843211526,-80.94062855349544)"><circle class="outline" cx="0" cy="0" r="25" fill="#8DCC93" stroke="#5db665" stroke-width="2px"/><text text-anchor="middle" pointer-events="none" font-family="sans-serif" dy="1.5625" font-size="25" fill="#2A2C34"/><text text-anchor="middle" pointer-events="none" x="0" y="5" font-size="10px" fill="#2A2C34" font-family="sans-serif"> 11/4/2015</text></g><g class="node" transform="translate(-199.40748524699086,-190.85262952299593)"><circle class="outline" cx="0" cy="0" r="25" fill="#ECB5C9" stroke="#da7298" stroke-width="2px"/><text text-anchor="middle" pointer-events="none" font-family="sans-serif" dy="1.5625" font-size="25" fill="#2A2C34"/><text text-anchor="middle" pointer-events="none" x="0" y="5" font-size="10px" fill="#2A2C34" font-family="sans-serif"> 167.25</text></g><g class="node" transform="translate(259.58270074774384,9.423534499863324)"><circle class="outline" cx="0" cy="0" r="25" fill="#8DCC93" stroke="#5db665" stroke-width="2px"/><text text-anchor="middle" pointer-events="none" font-family="sans-serif" dy="1.5625" font-size="25" fill="#2A2C34"/><text text-anchor="middle" pointer-events="none" x="0" y="5" font-size="10px" fill="#2A2C34" font-family="sans-serif"> 11/3/2015</text></g><g class="node" transform="translate(444.39236689022357,-29.840511824300947)"><circle class="outline" cx="0" cy="0" r="25" fill="#ECB5C9" stroke="#da7298" stroke-width="2px"/><text text-anchor="middle" pointer-events="none" font-family="sans-serif" dy="1.5625" font-size="25" fill="#2A2C34"/><text text-anchor="middle" pointer-events="none" x="0" y="5" font-size="10px" fill="#2A2C34" font-family="sans-serif"> 528.75</text></g><g class="node" transform="translate(186.4616523015798,-115.21139417723516)"><circle class="outline" cx="0" cy="0" r="25" fill="#8DCC93" stroke="#5db665" stroke-width="2px"/><text text-anchor="middle" pointer-events="none" font-family="sans-serif" dy="1.5625" font-size="25" fill="#2A2C34"/><text text-anchor="middle" pointer-events="none" x="0" y="5" font-size="10px" fill="#2A2C34" font-family="sans-serif"> 11/1/2015</text></g><g class="node" transform="translate(273.9116687596471,-276.4823587732738)"><circle class="outline" cx="0" cy="0" r="25" fill="#ECB5C9" stroke="#da7298" stroke-width="2px"/><text text-anchor="middle" pointer-events="none" font-family="sans-serif" dy="1.5625" font-size="25" fill="#2A2C34"/><text text-anchor="middle" pointer-events="none" x="0" y="5" font-size="10px" fill="#2A2C34" font-family="sans-serif"> 529.5</text></g><g class="node" transform="translate(157.36747785476396,-62.83483407986222)"><circle class="outline" cx="0" cy="0" r="25" fill="#8DCC93" stroke="#5db665" stroke-width="2px"/><text text-anchor="middle" pointer-events="none" font-family="sans-serif" dy="1.5625" font-size="25" fill="#2A2C34"/><text text-anchor="middle" pointer-events="none" x="0" y="5" font-size="10px" fill="#2A2C34" font-family="sans-serif"> 11/2/2015</text></g><g class="node" transform="translate(201.97093698806455,-230.98741212010248)"><circle class="outline" cx="0" cy="0" r="25" fill="#ECB5C9" stroke="#da7298" stroke-width="2px"/><text text-anchor="middle" pointer-events="none" font-family="sans-serif" dy="1.5625" font-size="25" fill="#2A2C34"/><text text-anchor="middle" pointer-events="none" x="0" y="5" font-size="10px" fill="#2A2C34" font-family="sans-serif"> 528.0</text></g><g class="node" transform="translate(-94.44965280073491,-6.898187759849048)"><circle class="outline" cx="0" cy="0" r="25" fill="#8DCC93" stroke="#5db665" stroke-width="2px"/><text text-anchor="middle" pointer-events="none" font-family="sans-serif" dy="1.5625" font-size="25" fill="#2A2C34"/><text text-anchor="middle" pointer-events="none" x="0" y="5" font-size="10px" fill="#2A2C34" font-family="sans-serif"> 11/1/2015</text></g><g class="node" transform="translate(-234.02076684904574,-3.3829628076701153)"><circle class="outline" cx="0" cy="0" r="25" fill="#D9C8AE" stroke="#c0a378" stroke-width="2px"/><text text-anchor="middle" pointer-events="none" font-family="sans-serif" dy="1.5625" font-size="25" fill="#2A2C34"/><text text-anchor="middle" pointer-events="none" x="0" y="5" font-size="10px" fill="#2A2C34" font-family="sans-serif"> TUS</text></g><g class="node" transform="translate(-253.94937945525197,-83.61437832971062)"><circle class="outline" cx="0" cy="0" r="25" fill="#ECB5C9" stroke="#da7298" stroke-width="2px"/><text text-anchor="middle" pointer-events="none" font-family="sans-serif" dy="1.5625" font-size="25" fill="#2A2C34"/><text text-anchor="middle" pointer-events="none" x="0" y="5" font-size="10px" fill="#2A2C34" font-family="sans-serif"> 354.0</text></g><g class="node" transform="translate(-105.41650304319069,52.06250743773906)"><circle class="outline" cx="0" cy="0" r="25" fill="#8DCC93" stroke="#5db665" stroke-width="2px"/><text text-anchor="middle" pointer-events="none" font-family="sans-serif" dy="1.5625" font-size="25" fill="#2A2C34"/><text text-anchor="middle" pointer-events="none" x="0" y="5" font-size="10px" fill="#2A2C34" font-family="sans-serif"> 11/2/2015</text></g><g class="node" transform="translate(-285.16563775712694,59.91259786671994)"><circle class="outline" cx="0" cy="0" r="25" fill="#ECB5C9" stroke="#da7298" stroke-width="2px"/><text text-anchor="middle" pointer-events="none" font-family="sans-serif" dy="1.5625" font-size="25" fill="#2A2C34"/><text text-anchor="middle" pointer-events="none" x="0" y="5" font-size="10px" fill="#2A2C34" font-family="sans-serif"> 354.0</text></g><g class="node" transform="translate(-64.06334200680874,194.43195630116122)"><circle class="outline" cx="0" cy="0" r="25" fill="#8DCC93" stroke="#5db665" stroke-width="2px"/><text text-anchor="middle" pointer-events="none" font-family="sans-serif" dy="1.5625" font-size="25" fill="#2A2C34"/><text text-anchor="middle" pointer-events="none" x="0" y="5" font-size="10px" fill="#2A2C34" font-family="sans-serif"> 11/2/2015</text></g><g class="node" transform="translate(-141.27244244127752,255.81390422385144)"><circle class="outline" cx="0" cy="0" r="25" fill="#D9C8AE" stroke="#c0a378" stroke-width="2px"/><text text-anchor="middle" pointer-events="none" font-family="sans-serif" dy="1.5625" font-size="25" fill="#2A2C34"/><text text-anchor="middle" pointer-events="none" x="0" y="5" font-size="10px" fill="#2A2C34" font-family="sans-serif"> SMF</text></g><g class="node" transform="translate(-196.09801760725216,327.2161750240593)"><circle class="outline" cx="0" cy="0" r="25" fill="#ECB5C9" stroke="#da7298" stroke-width="2px"/><text text-anchor="middle" pointer-events="none" font-family="sans-serif" dy="1.5625" font-size="25" fill="#2A2C34"/><text text-anchor="middle" pointer-events="none" x="0" y="5" font-size="10px" fill="#2A2C34" font-family="sans-serif"> 294.75</text></g><g class="node" transform="translate(-105.60310634201937,132.50838740924013)"><circle class="outline" cx="0" cy="0" r="25" fill="#8DCC93" stroke="#5db665" stroke-width="2px"/><text text-anchor="middle" pointer-events="none" font-family="sans-serif" dy="1.5625" font-size="25" fill="#2A2C34"/><text text-anchor="middle" pointer-events="none" x="0" y="5" font-size="10px" fill="#2A2C34" font-family="sans-serif"> 11/1/2015</text></g><g class="node" transform="translate(-283.58142927429,177.93200923725232)"><circle class="outline" cx="0" cy="0" r="25" fill="#ECB5C9" stroke="#da7298" stroke-width="2px"/><text text-anchor="middle" pointer-events="none" font-family="sans-serif" dy="1.5625" font-size="25" fill="#2A2C34"/><text text-anchor="middle" pointer-events="none" x="0" y="5" font-size="10px" fill="#2A2C34" font-family="sans-serif"> 295.5</text></g><g class="node" transform="translate(-7.847926221681376,215.11386602808193)"><circle class="outline" cx="0" cy="0" r="25" fill="#8DCC93" stroke="#5db665" stroke-width="2px"/><text text-anchor="middle" pointer-events="none" font-family="sans-serif" dy="1.5625" font-size="25" fill="#2A2C34"/><text text-anchor="middle" pointer-events="none" x="0" y="5" font-size="10px" fill="#2A2C34" font-family="sans-serif"> 11/4/2015</text></g><g class="node" transform="translate(-98.12459378835177,367.573411604888)"><circle class="outline" cx="0" cy="0" r="25" fill="#ECB5C9" stroke="#da7298" stroke-width="2px"/><text text-anchor="middle" pointer-events="none" font-family="sans-serif" dy="1.5625" font-size="25" fill="#2A2C34"/><text text-anchor="middle" pointer-events="none" x="0" y="5" font-size="10px" fill="#2A2C34" font-family="sans-serif"> 296.25</text></g><g class="node" transform="translate(-45.87163951704731,137.3645865308185)"><circle class="outline" cx="0" cy="0" r="25" fill="#8DCC93" stroke="#5db665" stroke-width="2px"/><text text-anchor="middle" pointer-events="none" font-family="sans-serif" dy="1.5625" font-size="25" fill="#2A2C34"/><text text-anchor="middle" pointer-events="none" x="0" y="5" font-size="10px" fill="#2A2C34" font-family="sans-serif"> 11/3/2015</text></g><g class="node" transform="translate(-207.24340753812737,206.5620124409697)"><circle class="outline" cx="0" cy="0" r="25" fill="#ECB5C9" stroke="#da7298" stroke-width="2px"/><text text-anchor="middle" pointer-events="none" font-family="sans-serif" dy="1.5625" font-size="25" fill="#2A2C34"/><text text-anchor="middle" pointer-events="none" x="0" y="5" font-size="10px" fill="#2A2C34" font-family="sans-serif"> 294.75</text></g></g></svg>