<svg xmlns="http://www.w3.org/2000/svg" width="654.8564453125" height="93.59332275390625" viewBox="-407.3255920410156 61.86014175415039 654.8564453125 93.59332275390625"><title>Neo4j Graph Visualization</title><desc>Created using Neo4j (http://www.neo4j.com/)</desc><g class="layer relationships"><g class="relationship" transform="translate(218.53084953211624 109.91516085836281) rotate(180.61946002735135)"><path class="outline" fill="#A5ABB6" stroke="none" d="M 21.40063509461097,12.933012701892217 L 21.90063509461097,12.06698729810778 A 187.83267798769572 187.83267798769572 0 0 0 82.46755247021792,34.24751654101104 L 82.29000390957596,35.23162858169238 A 188.83267798769572 188.83267798769572 0 0 1 21.40063509461097,12.933012701892217 Z M 143.89721505002376,36.13229604640068 L 143.74851069831513,35.14341434681123 A 187.83267798769572 187.83267798769572 0 0 0 204.93794216803897,14.742903708818558 L 203.51453221028788,12.102088665659528 L 211.33707892836856,11.861749647925844 L 206.8358221117071,18.2639904330306 L 205.412412153956,15.623175389871568 A 188.83267798769572 188.83267798769572 0 0 1 143.89721505002376,36.13229604640068"/><text text-anchor="middle" pointer-events="none" font-size="8px" fill="#000000" x="113.06393611827326" y="40.71167152465728" transform="rotate(180 113.06393611827326 37.71167152465728)" font-family="sans-serif">PublicTransport</text></g><g class="relationship" transform="translate(-14.799383648805541 107.3923854308757) rotate(539.6869470322673)"><path class="outline" fill="#A5ABB6" stroke="none" d="M 25 0.5 L 94.17747205657756 0.5 L 94.17747205657756 -0.5 L 25 -0.5 Z M 113.51340955657756 0.5 L 182.6908816131551 0.5 L 182.6908816131551 3.5 L 189.6908816131551 0 L 182.6908816131551 -3.5 L 182.6908816131551 -0.5 L 113.51340955657756 -0.5 Z"/><text text-anchor="middle" pointer-events="none" font-size="8px" fill="#000000" x="103.84544080657756" y="3" transform="rotate(180 103.84544080657756 0)" font-family="sans-serif">trek</text></g><g class="relationship" transform="translate(-229.48706066874462 108.565408711168) rotate(539.3750293295095)"><path class="outline" fill="#A5ABB6" stroke="none" d="M 25 0.5 L 61.25572580632905 0.5 L 61.25572580632905 -0.5 L 25 -0.5 Z M 80.59166330632905 0.5 L 116.8473891126581 0.5 L 116.8473891126581 3.5 L 123.8473891126581 0 L 116.8473891126581 -3.5 L 116.8473891126581 -0.5 L 80.59166330632905 -0.5 Z"/><text text-anchor="middle" pointer-events="none" font-size="8px" fill="#000000" x="70.92369455632905" y="3" transform="rotate(180 70.92369455632905 0)" font-family="sans-serif">trek</text></g><g class="relationship" transform="translate(218.53084953211624 109.91516085836281) rotate(180.61946002735135)"><path class="outline" fill="#A5ABB6" stroke="none" d="M 25 0.5 L 103.50396672734696 0.5 L 103.50396672734696 -0.5 L 25 -0.5 Z M 122.83990422734696 0.5 L 201.34387095469393 0.5 L 201.34387095469393 3.5 L 208.34387095469393 0 L 201.34387095469393 -3.5 L 201.34387095469393 -0.5 L 122.83990422734696 -0.5 Z"/><text text-anchor="middle" pointer-events="none" font-size="8px" fill="#000000" x="113.17193547734696" y="3" transform="rotate(180 113.17193547734696 0)" font-family="sans-serif">trek</text></g><g class="relationship selected" transform="translate(218.53084953211624 109.91516085836281) rotate(180.61946002735135)"><path class="outline" fill="#A5ABB6" stroke="none" d="M 21.40063509461097,-12.933012701892217 L 21.90063509461097,-12.06698729810778 A 187.83267798769572 187.83267798769572 0 0 1 102.10671069701641,-36.7307571743122 L 102.03371880051402,-37.728089708146825 A 188.83267798769572 188.83267798769572 0 0 0 21.40063509461097,-12.933012701892217 Z M 124.08895951375818,-38.050526600987894 L 124.04515361367008,-37.05148654017077 A 187.83267798769572 187.83267798769572 0 0 1 204.93794216803897,-14.742903708818558 L 203.51453221028788,-12.102088665659528 L 211.33707892836856,-11.861749647925844 L 206.8358221117071,-18.2639904330306 L 205.412412153956,-15.623175389871568 A 188.83267798769572 188.83267798769572 0 0 0 124.08895951375818,-38.050526600987894"/><text text-anchor="middle" pointer-events="none" font-size="8px" fill="#000000" x="113.06393611827326" y="-34.71167152465728" transform="rotate(180 113.06393611827326 -37.71167152465728)" font-family="sans-serif">road</text></g></g><g class="layer nodes"><g class="node" transform="translate(218.53084953211624,109.91516085836281)"><circle class="outline" cx="0" cy="0" r="25" fill="#F79767" stroke="#f36924" stroke-width="2px"/><text text-anchor="middle" pointer-events="none" font-family="sans-serif" dy="1.5625" font-size="25" fill="#FFFFFF"/><text text-anchor="middle" pointer-events="none" x="0" y="5" font-size="10px" fill="#FFFFFF" font-family="sans-serif"> Darjeeling</text></g><g class="node" transform="translate(-378.32559493712637,110.18897346035317)"><circle class="outline" cx="0" cy="0" r="25" fill="#F16667" stroke="#eb2728" stroke-width="2px"/><text text-anchor="middle" pointer-events="none" font-family="sans-serif" dy="1.5625" font-size="25" fill="#FFFFFF"/><text text-anchor="middle" pointer-events="none" x="0" y="5" font-size="10px" fill="#FFFFFF" font-family="sans-serif"> Sandak…</text></g><g class="node" transform="translate(-14.799383648805541,107.3923854308757)"><circle class="outline" cx="0" cy="0" r="25" fill="#F79767" stroke="#f36924" stroke-width="2px"/><text text-anchor="middle" pointer-events="none" font-family="sans-serif" dy="1.5625" font-size="25" fill="#FFFFFF"/><text text-anchor="middle" pointer-events="none" x="0" y="5" font-size="10px" fill="#FFFFFF" font-family="sans-serif"> Rimbik</text></g><g class="node" transform="translate(-229.48706066874462,108.565408711168)"><circle class="outline" cx="0" cy="0" r="25" fill="#57C7E3" stroke="#23b3d7" stroke-width="2px"/><text text-anchor="middle" pointer-events="none" font-family="sans-serif" dy="1.5625" font-size="25" fill="#2A2C34"/><text text-anchor="middle" pointer-events="none" x="0" y="5" font-size="10px" fill="#2A2C34" font-family="sans-serif"> BhikeBh…</text></g></g></svg>