<svg xmlns="http://www.w3.org/2000/svg" width="185.85122680664062" height="185.5367431640625" viewBox="15.3779296875 0.4933795928955078 185.85122680664062 185.5367431640625"><title>Neo4j Graph Visualization</title><desc>Created using Neo4j (http://www.neo4j.com/)</desc><g class="layer relationships"><g class="relationship" transform="translate(84.24966043157166 29.493379521883007) rotate(443.72055831257535)"><path class="outline" fill="#A5ABB6" stroke="none" d="M 25 0.5 L 43.430616335734314 0.5 L 43.430616335734314 -0.5 L 25 -0.5 Z M 77.87592883573431 0.5 L 96.30654517146863 0.5 L 96.30654517146863 3.5 L 103.30654517146863 0 L 96.30654517146863 -3.5 L 96.30654517146863 -0.5 L 77.87592883573431 -0.5 Z"/><text text-anchor="middle" pointer-events="none" font-size="8px" fill="#000000" x="60.653272585734314" y="3" font-family="sans-serif">ORIGIN</text></g><g class="relationship" transform="translate(84.24966043157166 29.493379521883007) rotate(475.66922006039886)"><path class="outline" fill="#A5ABB6" stroke="none" d="M 25 0.5 L 27.298056542923327 0.5 L 27.298056542923327 -0.5 L 25 -0.5 Z M 57.74727529292333 0.5 L 60.04533183584665 0.5 L 60.04533183584665 3.5 L 67.04533183584665 0 L 60.04533183584665 -3.5 L 60.04533183584665 -0.5 L 57.74727529292333 -0.5 Z"/><text text-anchor="middle" pointer-events="none" font-size="8px" fill="#000000" x="42.52266591792333" y="3" transform="rotate(180 42.52266591792333 0)" font-family="sans-serif">DES…</text></g><g class="relationship" transform="translate(172.22913677976194 102.00020678948248) rotate(535.3252601486467)"><path class="outline" fill="#A5ABB6" stroke="none" d="M 25 0.5 L 43.41631184984443 0.5 L 43.41631184984443 -0.5 L 25 -0.5 Z M 77.86162434984443 0.5 L 96.27793619968887 0.5 L 96.27793619968887 3.5 L 103.27793619968887 0 L 96.27793619968887 -3.5 L 96.27793619968887 -0.5 L 77.86162434984443 -0.5 Z"/><text text-anchor="middle" pointer-events="none" font-size="8px" fill="#000000" x="60.63896809984443" y="3" transform="rotate(180 60.63896809984443 0)" font-family="sans-serif">ORIGIN</text></g><g class="relationship" transform="translate(172.22913677976194 102.00020678948248) rotate(503.3435803948284)"><path class="outline" fill="#A5ABB6" stroke="none" d="M 25 0.5 L 27.362926961218548 0.5 L 27.362926961218548 -0.5 L 25 -0.5 Z M 57.81214571121855 0.5 L 60.175072672437096 0.5 L 60.175072672437096 3.5 L 67.1750726724371 0 L 60.175072672437096 -3.5 L 60.175072672437096 -0.5 L 57.81214571121855 -0.5 Z"/><text text-anchor="middle" pointer-events="none" font-size="8px" fill="#000000" x="42.58753633621855" y="3" transform="rotate(180 42.58753633621855 0)" font-family="sans-serif">DES…</text></g></g><g class="layer nodes"><g class="node" transform="translate(98.28353019015077,157.03011945762609)"><circle class="outline" cx="0" cy="0" r="25" fill="#D9C8AE" stroke="#c0a378" stroke-width="2px"/><text text-anchor="middle" pointer-events="none" font-family="sans-serif" dy="1.5625" font-size="25" fill="#2A2C34"/><text text-anchor="middle" pointer-events="none" x="0" y="5" font-size="10px" fill="#2A2C34" font-family="sans-serif"> ORD</text></g><g class="node" transform="translate(172.22913677976194,102.00020678948248)"><circle class="outline" cx="0" cy="0" r="25" fill="#8DCC93" stroke="#5db665" stroke-width="2px"/><text text-anchor="middle" pointer-events="none" font-family="sans-serif" dy="1.5625" font-size="25" fill="#2A2C34"/><text text-anchor="middle" pointer-events="none" x="0" y="5" font-size="10px" fill="#2A2C34" font-family="sans-serif"> 11/30/20…</text></g><g class="node" transform="translate(84.24966043157166,29.493379521883007)"><circle class="outline" cx="0" cy="0" r="25" fill="#8DCC93" stroke="#5db665" stroke-width="2px"/><text text-anchor="middle" pointer-events="none" font-family="sans-serif" dy="1.5625" font-size="25" fill="#2A2C34"/><text text-anchor="middle" pointer-events="none" x="0" y="5" font-size="10px" fill="#2A2C34" font-family="sans-serif"> 11/30/20…</text></g><g class="node" transform="translate(44.3779281133808,112.45474447399586)"><circle class="outline" cx="0" cy="0" r="25" fill="#D9C8AE" stroke="#c0a378" stroke-width="2px"/><text text-anchor="middle" pointer-events="none" font-family="sans-serif" dy="1.5625" font-size="25" fill="#2A2C34"/><text text-anchor="middle" pointer-events="none" x="0" y="5" font-size="10px" fill="#2A2C34" font-family="sans-serif"> MSN</text></g></g></svg>