<svg xmlns="http://www.w3.org/2000/svg" width="316.3515930175781" height="412.34295654296875" viewBox="-64.02513885498047 -113.01985931396484 316.3515930175781 412.34295654296875"><title>Neo4j Graph Visualization</title><desc>Created using Neo4j (http://www.neo4j.com/)</desc><g class="layer relationships"><g class="relationship" transform="translate(175.55418917067558 270.32309721287686) rotate(242.97953421058776)"><path class="outline" fill="#A5ABB6" stroke="none" d="M 21.40063509461097,12.933012701892217 L 21.90063509461097,12.06698729810778 A 63.98841062707227 63.98841062707227 0 0 0 42.45709291119179,19.609277930305026 L 42.278345738307394,20.593172969516957 A 64.98841062707227 64.98841062707227 0 0 1 21.40063509461097,12.933012701892217 Z M 61.68267489935229,21.171496951990903 L 61.562840694821666,20.178703034088244 A 63.98841062707227 63.98841062707227 0 0 0 82.53199135166595,13.87403597896455 L 81.18938177614058,11.19123901912812 L 89.01561918720517,11.188413129378093 L 84.32213745236643,17.451098592079788 L 82.97952787684106,14.768301632243361 A 64.98841062707227 64.98841062707227 0 0 1 61.68267489935229,21.171496951990903"/><text text-anchor="middle" pointer-events="none" font-size="8px" fill="#000000" x="51.973689665543105" y="24.111186271576386" transform="rotate(180 51.973689665543105 21.111186271576386)" font-family="sans-serif">trek</text></g><g class="relationship" transform="translate(124.9567984680084 171.10775330260896) rotate(315.6785163619444)"><path class="outline" fill="#A5ABB6" stroke="none" d="M 24.018736134675446,-6.953439040707552 L 24.277555179777966,-5.987513214418485 A 138.43961054181767 138.43961054181767 0 0 1 35.17031497279241,-8.440077266525407 L 34.9901783203258,-9.4237188610293 A 139.43961054181767 139.43961054181767 0 0 0 24.018736134675446,-6.953439040707552 Z M 81.4007405802518,-10.069470787999705 L 81.24804094552864,-9.08119814264549 A 138.43961054181767 138.43961054181767 0 0 1 92.20482020415076,-6.932646394181599 L 91.50928681394639,-4.014387786191072 L 99.13001252116273,-5.796111585036472 L 93.13219805775661,-10.8236578715023 L 92.43666466755224,-7.905399263511774 A 139.43961054181767 139.43961054181767 0 0 0 81.4007405802518,-10.069470787999705"/><text text-anchor="middle" pointer-events="none" font-size="8px" fill="#000000" x="58.17535822579698" y="-8.191281385738762" font-family="sans-serif">twowheeler</text></g><g class="relationship" transform="translate(213.27589739048017 84.85607827946991) rotate(274.8864964055983)"><path class="outline" fill="#A5ABB6" stroke="none" d="M 24.018736134675446,-6.953439040707552 L 24.277555179777966,-5.987513214418485 A 127.60333552414329 127.60333552414329 0 0 1 32.468481265574354,-7.8953363001970445 L 32.27385275320478,-8.876213327236016 A 128.6033355241433 128.6033355241433 0 0 0 24.018736134675446,-6.953439040707552 Z M 78.65988070665608,-9.5498702749871 L 78.49381851248684,-8.563754993862375 A 127.60333552414329 127.60333552414329 0 0 1 86.73669252315099,-6.894597387784786 L 86.04471302817417,-3.975494035977652 L 93.6632635931971,-5.766495791473418 L 87.65933184978674,-10.786735190194296 L 86.96735235480992,-7.867631838387163 A 128.6033355241433 128.6033355241433 0 0 0 78.65988070665608,-9.5498702749871"/><text text-anchor="middle" pointer-events="none" font-size="8px" fill="#000000" x="55.44350031325953" y="-7.821984246501245" font-family="sans-serif">twowheeler</text></g><g class="relationship" transform="translate(223.3264588151235 -32.704203277979275) rotate(204.44745055432202)"><path class="outline" fill="#A5ABB6" stroke="none" d="M 25 0.5 L 48.828652871591856 0.5 L 48.828652871591856 -0.5 L 25 -0.5 Z M 68.16459037159186 0.5 L 91.99324324318371 0.5 L 91.99324324318371 3.5 L 98.99324324318371 0 L 91.99324324318371 -3.5 L 91.99324324318371 -0.5 L 68.16459037159186 -0.5 Z"/><text text-anchor="middle" pointer-events="none" font-size="8px" fill="#000000" x="58.496621621591856" y="3" transform="rotate(180 58.496621621591856 0)" font-family="sans-serif">trek</text></g><g class="relationship" transform="translate(110.45029743461075 -84.01985938762836) rotate(499.98405663536516)"><path class="outline" fill="#A5ABB6" stroke="none" d="M 25 0.5 L 47.44513970907254 0.5 L 47.44513970907254 -0.5 L 25 -0.5 Z M 66.78107720907255 0.5 L 89.22621691814508 0.5 L 89.22621691814508 3.5 L 96.22621691814508 0 L 89.22621691814508 -3.5 L 89.22621691814508 -0.5 L 66.78107720907255 -0.5 Z"/><text text-anchor="middle" pointer-events="none" font-size="8px" fill="#000000" x="57.11310845907254" y="3" transform="rotate(180 57.11310845907254 0)" font-family="sans-serif">trek</text></g><g class="relationship" transform="translate(213.27589739048017 84.85607827946991) rotate(274.8864964055983)"><path class="outline" fill="#A5ABB6" stroke="none" d="M 24.018736134675446,6.953439040707552 L 24.277555179777966,5.987513214418485 A 127.60333552414329 127.60333552414329 0 0 0 45.835955473561306,9.819139570530567 L 45.746084992422496,10.815093031601862 A 128.6033355241433 128.6033355241433 0 0 1 24.018736134675446,6.953439040707552 Z M 65.13702599386123,11.096704600977006 L 65.07611546358686,10.098561371123836 A 127.60333552414329 127.60333552414329 0 0 0 86.73669252315099,6.894597387784786 L 86.04471302817417,3.975494035977652 L 93.6632635931971,5.766495791473418 L 87.65933184978674,10.786735190194296 L 86.96735235480992,7.867631838387163 A 128.6033355241433 128.6033355241433 0 0 1 65.13702599386123,11.096704600977006"/><text text-anchor="middle" pointer-events="none" font-size="8px" fill="#000000" x="55.443500313259534" y="13.821984246501245" font-family="sans-serif">trek</text></g><g class="relationship" transform="translate(124.9567984680084 171.10775330260896) rotate(315.6785163619444)"><path class="outline" fill="#A5ABB6" stroke="none" d="M 24.018736134675446,6.953439040707552 L 24.277555179777966,5.987513214418485 A 138.43961054181767 138.43961054181767 0 0 0 48.56250231075079,10.222426147182091 L 48.47910233130388,11.218942300301677 A 139.43961054181767 139.43961054181767 0 0 1 24.018736134675446,6.953439040707552 Z M 67.86709092890165,11.488704836830777 L 67.81144871996132,10.490254064591994 A 138.43961054181767 138.43961054181767 0 0 0 92.20482020415076,6.932646394181599 L 91.50928681394639,4.014387786191072 L 99.13001252116273,5.796111585036472 L 93.13219805775661,10.8236578715023 L 92.43666466755224,7.905399263511774 A 139.43961054181767 139.43961054181767 0 0 1 67.86709092890165,11.488704836830777"/><text text-anchor="middle" pointer-events="none" font-size="8px" fill="#000000" x="58.17535822579701" y="14.191281385738762" font-family="sans-serif">trek</text></g><g class="relationship" transform="translate(175.55418917067558 270.32309721287686) rotate(242.97953421058776)"><path class="outline" fill="#A5ABB6" stroke="none" d="M 25 0.5 L 41.18027088458772 0.5 L 41.18027088458772 -0.5 L 25 -0.5 Z M 63.19198963458772 0.5 L 79.37226051917544 0.5 L 79.37226051917544 3.5 L 86.37226051917544 0 L 79.37226051917544 -3.5 L 79.37226051917544 -0.5 L 63.19198963458772 -0.5 Z"/><text text-anchor="middle" pointer-events="none" font-size="8px" fill="#000000" x="52.18613025958772" y="3" transform="rotate(180 52.18613025958772 0)" font-family="sans-serif">road</text></g><g class="relationship" transform="translate(175.55418917067558 270.32309721287686) rotate(242.97953421058776)"><path class="outline" fill="#A5ABB6" stroke="none" d="M 21.40063509461097,-12.933012701892217 L 21.90063509461097,-12.06698729810778 A 63.98841062707227 63.98841062707227 0 0 1 22.7475799828283,-12.547416454270412 L 22.26081589351771,-13.420949923210003 A 64.98841062707227 64.98841062707227 0 0 0 21.40063509461097,-12.933012701892217 Z M 82.0918148511712,-15.204144864164185 L 81.65793788494057,-14.30317273464268 A 63.98841062707227 63.98841062707227 0 0 1 82.53199135166595,-13.87403597896455 L 81.18938177614058,-11.19123901912812 L 89.01561918720517,-11.188413129378093 L 84.32213745236643,-17.451098592079788 L 82.97952787684106,-14.768301632243361 A 64.98841062707227 64.98841062707227 0 0 0 82.0918148511712,-15.204144864164185"/><text text-anchor="middle" pointer-events="none" font-size="8px" fill="#000000" x="51.97368966554308" y="-18.111186271576386" transform="rotate(180 51.97368966554308 -21.111186271576386)" font-family="sans-serif">PublicTransport</text></g><g class="relationship" transform="translate(223.3264588151235 -32.704203277979275) rotate(514.0961027118408)"><path class="outline" fill="#A5ABB6" stroke="none" d="M 21.40063509461097,12.933012701892217 L 21.90063509461097,12.06698729810778 A 56.31273280974942 56.31273280974942 0 0 0 26.03384142655355,14.230170875804042 L 25.607238793822273,15.134610035585801 A 57.31273280974942 57.31273280974942 0 0 1 21.40063509461097,12.933012701892217 Z M 71.16244365742375,16.583903051392298 L 70.79419316362863,15.654176438984301 A 56.31273280974942 56.31273280974942 0 0 0 75.05654112026775,13.758088975347839 L 73.7247176565455,11.069921149210703 L 81.55090329187477,11.098528864352105 L 76.83230573856409,17.342312743530687 L 75.50048227484183,14.654144917393552 A 57.31273280974942 57.31273280974942 0 0 1 71.16244365742375,16.583903051392298"/><text text-anchor="middle" pointer-events="none" font-size="8px" fill="#000000" x="48.25047554529063" y="23.082733802691124" transform="rotate(180 48.25047554529063 20.082733802691124)" font-family="sans-serif">twowheeler</text></g><g class="relationship" transform="translate(129.81844584505862 12.70870863980042) rotate(189.5011505495035)"><path class="outline" fill="#A5ABB6" stroke="none" d="M 24.018736134675446,6.953439040707552 L 24.277555179777966,5.987513214418485 A 119.21396817311596 119.21396817311596 0 0 0 30.386488070366163,7.453028367015804 L 30.178912457423515,8.43124734296724 A 120.21396817311596 120.21396817311596 0 0 1 24.018736134675446,6.953439040707552 Z M 76.54026115413016,9.128103721611836 L 76.36217984715529,8.144087945261617 A 119.21396817311596 119.21396817311596 0 0 0 82.51239927396097,6.862839832543579 L 81.82338608762926,3.9430349025763327 L 89.44011297493982,5.741776552764155 L 83.43108352240323,10.755913072499908 L 82.74207033607152,7.8361081425326615 A 120.21396817311596 120.21396817311596 0 0 1 76.54026115413016,9.128103721611836"/><text text-anchor="middle" pointer-events="none" font-size="8px" fill="#000000" x="53.33318588731484" y="13.536109460770973" transform="rotate(180 53.33318588731484 10.536109460770973)" font-family="sans-serif">twowheeler</text></g><g class="relationship" transform="translate(129.81844584505862 12.70870863980042) rotate(189.5011505495035)"><path class="outline" fill="#A5ABB6" stroke="none" d="M 24.018736134675446,-6.953439040707552 L 24.277555179777966,-5.987513214418485 A 119.21396817311596 119.21396817311596 0 0 1 43.730498782236396,-9.503125788114815 L 43.63485645124349,-10.498541552769083 A 120.21396817311596 120.21396817311596 0 0 0 24.018736134675446,-6.953439040707552 Z M 63.02826313037026,-10.790043407825308 L 62.96258139084251,-9.79220278473332 A 119.21396817311596 119.21396817311596 0 0 1 82.51239927396097,-6.862839832543579 L 81.82338608762926,-3.9430349025763327 L 89.44011297493982,-5.741776552764155 L 83.43108352240323,-10.755913072499908 L 82.74207033607152,-7.8361081425326615 A 120.21396817311596 120.21396817311596 0 0 0 63.02826313037026,-10.790043407825308"/><text text-anchor="middle" pointer-events="none" font-size="8px" fill="#000000" x="53.33318588731479" y="-7.536109460770973" transform="rotate(180 53.33318588731479 -10.536109460770973)" font-family="sans-serif">trek</text></g><g class="relationship" transform="translate(223.3264588151235 -32.704203277979275) rotate(514.0961027118408)"><path class="outline" fill="#A5ABB6" stroke="none" d="M 25 0.5 L 37.47029154650879 0.5 L 37.47029154650879 -0.5 L 25 -0.5 Z M 59.48201029650879 0.5 L 71.95230184301758 0.5 L 71.95230184301758 3.5 L 78.95230184301758 0 L 71.95230184301758 -3.5 L 71.95230184301758 -0.5 L 59.48201029650879 -0.5 Z"/><text text-anchor="middle" pointer-events="none" font-size="8px" fill="#000000" x="48.47615092150879" y="3" transform="rotate(180 48.47615092150879 0)" font-family="sans-serif">road</text></g><g class="relationship" transform="translate(223.3264588151235 -32.704203277979275) rotate(514.0961027118408)"><path class="outline" fill="#A5ABB6" stroke="none" d="M 21.40063509461097,-12.933012701892217 L 21.90063509461097,-12.06698729810778 A 56.31273280974942 56.31273280974942 0 0 1 38.76036355980926,-18.466744844858653 L 38.55975816603727,-19.44641697163862 A 57.31273280974942 57.31273280974942 0 0 0 21.40063509461097,-12.933012701892217 Z M 57.96204284568632,-20.063681140707743 L 57.82411465837685,-19.073238908598512 A 56.31273280974942 56.31273280974942 0 0 1 75.05654112026775,-13.758088975347839 L 73.7247176565455,-11.069921149210703 L 81.55090329187477,-11.098528864352105 L 76.83230573856409,-17.342312743530687 L 75.50048227484183,-14.654144917393552 A 57.31273280974942 57.31273280974942 0 0 0 57.96204284568632,-20.063681140707743"/><text text-anchor="middle" pointer-events="none" font-size="8px" fill="#000000" x="48.25047554529063" y="-17.082733802691124" transform="rotate(180 48.25047554529063 -20.082733802691124)" font-family="sans-serif">trek</text></g><g class="relationship" transform="translate(124.9567984680084 171.10775330260896) rotate(480.2856954971186)"><path class="outline" fill="#A5ABB6" stroke="none" d="M 25 0.5 L 44.15042565745547 0.5 L 44.15042565745547 -0.5 L 25 -0.5 Z M 63.48636315745547 0.5 L 82.63678881491094 0.5 L 82.63678881491094 3.5 L 89.63678881491094 0 L 82.63678881491094 -3.5 L 82.63678881491094 -0.5 L 63.48636315745547 -0.5 Z"/><text text-anchor="middle" pointer-events="none" font-size="8px" fill="#000000" x="53.81839440745547" y="3" transform="rotate(180 53.81839440745547 0)" font-family="sans-serif">trek</text></g><g class="relationship" transform="translate(67.14408424552836 270.09908334733734) rotate(206.9672204703735)"><path class="outline" fill="#A5ABB6" stroke="none" d="M 21.40063509461097,-12.933012701892217 L 21.90063509461097,-12.06698729810778 A 67.35188304679453 67.35188304679453 0 0 1 31.133872044498577,-16.498647109100055 L 30.77096155903335,-17.430471115841343 A 68.35188304679453 68.35188304679453 0 0 0 21.40063509461097,-12.933012701892217 Z M 76.64967362089916,-18.76088404642411 L 76.34137052720877,-17.809595865891552 A 67.35188304679453 67.35188304679453 0 0 1 85.81589869544284,-13.920432814221828 L 84.46897323280544,-11.239800090759132 L 92.29519596062869,-11.224378855311672 L 87.6117993122927,-17.494609778838754 L 86.2648738496553,-14.813977055376059 A 68.35188304679453 68.35188304679453 0 0 0 76.64967362089916,-18.76088404642411"/><text text-anchor="middle" pointer-events="none" font-size="8px" fill="#000000" x="53.60980188854067" y="-18.561917886975863" transform="rotate(180 53.60980188854067 -21.561917886975863)" font-family="sans-serif">twowheeler</text></g><g class="relationship" transform="translate(-35.0251386642845 218.11486989200745) rotate(294.77566338384287)"><path class="outline" fill="#A5ABB6" stroke="none" d="M 21.40063509461097,12.933012701892217 L 21.90063509461097,12.06698729810778 A 66.48729744738515 66.48729744738515 0 0 0 30.72924886964709,16.32957216889951 L 30.36203534336446,17.25970883956414 A 67.48729744738515 67.48729744738515 0 0 1 21.40063509461097,12.933012701892217 Z M 76.22133591030008,18.59886699512259 L 75.90902451409357,17.648887210180014 A 66.48729744738515 66.48729744738515 0 0 0 84.97132959252966,13.908743144129554 L 83.62549150378061,11.227564328967777 L 91.45171984269864,11.215317406242068 L 86.76578037752839,17.483648231011923 L 85.41994228877934,14.802469415850146 A 67.48729744738515 67.48729744738515 0 0 1 76.22133591030008,18.59886699512259"/><text text-anchor="middle" pointer-events="none" font-size="8px" fill="#000000" x="53.188990965688745" y="24.446053515531304" font-family="sans-serif">twowheeler</text></g><g class="relationship" transform="translate(12.66247773026443 114.79417888026678) rotate(272.3427725554666)"><path class="outline" fill="#A5ABB6" stroke="none" d="M 25 0.5 L 47.31533085010225 0.5 L 47.31533085010225 -0.5 L 25 -0.5 Z M 66.65126835010224 0.5 L 88.9665992002045 0.5 L 88.9665992002045 3.5 L 95.9665992002045 0 L 88.9665992002045 -3.5 L 88.9665992002045 -0.5 L 66.65126835010224 -0.5 Z"/><text text-anchor="middle" pointer-events="none" font-size="8px" fill="#000000" x="56.98329960010225" y="3" font-family="sans-serif">trek</text></g><g class="relationship" transform="translate(-35.0251386642845 218.11486989200745) rotate(294.77566338384287)"><path class="outline" fill="#A5ABB6" stroke="none" d="M 25 0.5 L 42.39157894285672 0.5 L 42.39157894285672 -0.5 L 25 -0.5 Z M 64.40329769285671 0.5 L 81.79487663571344 0.5 L 81.79487663571344 3.5 L 88.79487663571344 0 L 81.79487663571344 -3.5 L 81.79487663571344 -0.5 L 64.40329769285671 -0.5 Z"/><text text-anchor="middle" pointer-events="none" font-size="8px" fill="#000000" x="53.39743831785672" y="3" font-family="sans-serif">road</text></g><g class="relationship" transform="translate(-35.0251386642845 218.11486989200745) rotate(294.77566338384287)"><path class="outline" fill="#A5ABB6" stroke="none" d="M 21.40063509461097,-12.933012701892217 L 21.90063509461097,-12.06698729810778 A 66.48729744738515 66.48729744738515 0 0 1 43.665309536566284,-19.976182250091384 L 43.4926604032364,-20.96116563916982 A 67.48729744738515 67.48729744738515 0 0 0 21.40063509461097,-12.933012701892217 Z M 62.89709374674527,-21.527803264356052 L 62.782215684922065,-20.53442366374422 A 66.48729744738515 66.48729744738515 0 0 1 84.97132959252966,-13.908743144129554 L 83.62549150378061,-11.227564328967777 L 91.45171984269864,-11.215317406242068 L 86.76578037752839,-17.483648231011923 L 85.41994228877934,-14.802469415850146 A 67.48729744738515 67.48729744738515 0 0 0 62.89709374674527,-21.527803264356052"/><text text-anchor="middle" pointer-events="none" font-size="8px" fill="#000000" x="53.18899096568876" y="-18.446053515531304" font-family="sans-serif">trek</text></g><g class="relationship" transform="translate(67.14408424552836 270.09908334733734) rotate(206.9672204703735)"><path class="outline" fill="#A5ABB6" stroke="none" d="M 25 0.5 L 42.81104161974223 0.5 L 42.81104161974223 -0.5 L 25 -0.5 Z M 64.82276036974223 0.5 L 82.63380198948445 0.5 L 82.63380198948445 3.5 L 89.63380198948445 0 L 82.63380198948445 -3.5 L 82.63380198948445 -0.5 L 64.82276036974223 -0.5 Z"/><text text-anchor="middle" pointer-events="none" font-size="8px" fill="#000000" x="53.81690099474223" y="3" transform="rotate(180 53.81690099474223 0)" font-family="sans-serif">road</text></g><g class="relationship" transform="translate(67.14408424552836 270.09908334733734) rotate(206.9672204703735)"><path class="outline" fill="#A5ABB6" stroke="none" d="M 21.40063509461097,12.933012701892217 L 21.90063509461097,12.06698729810778 A 67.35188304679453 67.35188304679453 0 0 0 44.083812519977435,20.1026362032227 L 43.91317491374977,21.08797005899997 A 68.35188304679453 68.35188304679453 0 0 1 21.40063509461097,12.933012701892217 Z M 63.317598986493216,21.650668869334424 L 63.204346475758655,20.657102631576564 A 67.35188304679453 67.35188304679453 0 0 0 85.81589869544284,13.920432814221828 L 84.46897323280544,11.239800090759132 L 92.29519596062869,11.224378855311672 L 87.6117993122927,17.494609778838754 L 86.2648738496553,14.813977055376059 A 68.35188304679453 68.35188304679453 0 0 1 63.317598986493216,21.650668869334424"/><text text-anchor="middle" pointer-events="none" font-size="8px" fill="#000000" x="53.609801888540666" y="24.561917886975863" transform="rotate(180 53.609801888540666 21.561917886975863)" font-family="sans-serif">trek</text></g><g class="relationship" transform="translate(213.27589739048017 84.85607827946991) rotate(220.84278698933963)"><path class="outline" fill="#A5ABB6" stroke="none" d="M 24.018736134675446,-6.953439040707552 L 24.277555179777966,-5.987513214418485 A 112.33255324655651 112.33255324655651 0 0 1 28.686387863386134,-7.0738471857514895 L 28.46681685953423,-8.049443708022594 A 113.33255324655651 113.33255324655651 0 0 0 24.018736134675446,-6.953439040707552 Z M 74.80294155238118,-8.766457775899994 L 74.61366158300882,-7.784534615365331 A 112.33255324655651 112.33255324655651 0 0 1 79.05399560816846,-6.835134344492571 L 78.36757028833865,-3.9147199423406174 L 85.98270009982798,-5.720210998581688 L 79.96922936794154,-10.729020214028509 L 79.28280404811173,-7.808605811876555 A 113.33255324655651 113.33255324655651 0 0 0 74.80294155238118,-8.766457775899994"/><text text-anchor="middle" pointer-events="none" font-size="8px" fill="#000000" x="51.60557580809319" y="-7.3016456612170515" transform="rotate(180 51.60557580809319 -10.301645661217051)" font-family="sans-serif">twowheeler</text></g><g class="relationship" transform="translate(213.27589739048017 84.85607827946991) rotate(220.84278698933963)"><path class="outline" fill="#A5ABB6" stroke="none" d="M 24.018736134675446,6.953439040707552 L 24.277555179777966,5.987513214418485 A 112.33255324655651 112.33255324655651 0 0 0 42.00748565097973,9.2409052965902 L 41.906500910883054,10.235793271322834 A 113.33255324655651 113.33255324655651 0 0 1 24.018736134675446,6.953439040707552 Z M 61.302044455687906,10.535923626805513 L 61.23189086889443,9.538387424825842 A 112.33255324655651 112.33255324655651 0 0 0 79.05399560816846,6.835134344492571 L 78.36757028833865,3.9147199423406174 L 85.98270009982798,5.720210998581688 L 79.96922936794154,10.729020214028509 L 79.28280404811173,7.808605811876555 A 113.33255324655651 113.33255324655651 0 0 1 61.302044455687906,10.535923626805513"/><text text-anchor="middle" pointer-events="none" font-size="8px" fill="#000000" x="51.605575808093214" y="13.301645661217051" transform="rotate(180 51.605575808093214 10.301645661217051)" font-family="sans-serif">trek</text></g><g class="relationship" transform="translate(124.9567984680084 171.10775330260896) rotate(206.63293827738528)"><path class="outline" fill="#A5ABB6" stroke="none" d="M 25 0.5 L 49.64372031774436 0.5 L 49.64372031774436 -0.5 L 25 -0.5 Z M 68.97965781774437 0.5 L 93.62337813548872 0.5 L 93.62337813548872 3.5 L 100.62337813548872 0 L 93.62337813548872 -3.5 L 93.62337813548872 -0.5 L 68.97965781774437 -0.5 Z"/><text text-anchor="middle" pointer-events="none" font-size="8px" fill="#000000" x="59.31168906774436" y="3" transform="rotate(180 59.31168906774436 0)" font-family="sans-serif">trek</text></g><g class="relationship" transform="translate(175.55418917067558 270.32309721287686) rotate(180.11839330649963)"><path class="outline" fill="#A5ABB6" stroke="none" d="M 24.018736134675446,-6.953439040707552 L 24.277555179777966,-5.987513214418485 A 108.52131288821269 108.52131288821269 0 0 1 39.73129089563096,-8.947397598971577 L 39.61487462197088,-9.940598108046714 A 109.52131288821269 109.52131288821269 0 0 0 24.018736134675446,-6.953439040707552 Z M 61.68727407236273,-10.287812404303267 L 61.60215514827623,-9.291441605472656 A 108.52131288821269 108.52131288821269 0 0 1 77.14134361955078,-6.819097616550422 L 76.45641624799485,-3.8983315362739646 L 84.07061903545517,-5.707728096299348 L 78.05458011495868,-10.713452390252364 L 77.36965274340275,-7.792686309975907 A 109.52131288821269 109.52131288821269 0 0 0 61.68727407236273,-10.287812404303267"/><text text-anchor="middle" pointer-events="none" font-size="8px" fill="#000000" x="50.65016832809687" y="-7.171800853582482" transform="rotate(180 50.65016832809687 -10.171800853582482)" font-family="sans-serif">road</text></g><g class="relationship" transform="translate(175.55418917067558 270.32309721287686) rotate(180.11839330649963)"><path class="outline" fill="#A5ABB6" stroke="none" d="M 24.018736134675446,6.953439040707552 L 24.277555179777966,5.987513214418485 A 108.52131288821269 108.52131288821269 0 0 0 41.05490844163933,9.094315761380372 L 40.950689012182295,10.088870088968179 A 109.52131288821269 109.52131288821269 0 0 1 24.018736134675446,6.953439040707552 Z M 60.347456936221384,10.393994828103757 L 60.27457140398172,9.396654515477152 A 108.52131288821269 108.52131288821269 0 0 0 77.14134361955078,6.819097616550422 L 76.45641624799485,3.8983315362739646 L 84.07061903545517,5.707728096299348 L 78.05458011495868,10.713452390252364 L 77.36965274340275,7.792686309975907 A 109.52131288821269 109.52131288821269 0 0 1 60.347456936221384,10.393994828103757"/><text text-anchor="middle" pointer-events="none" font-size="8px" fill="#000000" x="50.650168328096896" y="13.171800853582482" transform="rotate(180 50.650168328096896 10.171800853582482)" font-family="sans-serif">trek</text></g></g><g class="layer nodes"><g class="node" transform="translate(175.55418917067558,270.32309721287686)"><circle class="outline" cx="0" cy="0" r="25" fill="#F79767" stroke="#f36924" stroke-width="2px"/><text text-anchor="middle" pointer-events="none" font-family="sans-serif" dy="1.5625" font-size="25" fill="#FFFFFF"/><text text-anchor="middle" pointer-events="none" x="0" y="5" font-size="10px" fill="#FFFFFF" font-family="sans-serif"> Darjeeling</text></g><g class="node" transform="translate(17.607314300291414,-6.07131128693784)"><circle class="outline" cx="0" cy="0" r="25" fill="#F16667" stroke="#eb2728" stroke-width="2px"/><text text-anchor="middle" pointer-events="none" font-family="sans-serif" dy="1.5625" font-size="25" fill="#FFFFFF"/><text text-anchor="middle" pointer-events="none" x="0" y="5" font-size="10px" fill="#FFFFFF" font-family="sans-serif"> Sandak…</text></g><g class="node" transform="translate(124.9567984680084,171.10775330260896)"><circle class="outline" cx="0" cy="0" r="25" fill="#F79767" stroke="#f36924" stroke-width="2px"/><text text-anchor="middle" pointer-events="none" font-family="sans-serif" dy="1.5625" font-size="25" fill="#FFFFFF"/><text text-anchor="middle" pointer-events="none" x="0" y="5" font-size="10px" fill="#FFFFFF" font-family="sans-serif"> Rimbik</text></g><g class="node" transform="translate(213.27589739048017,84.85607827946991)"><circle class="outline" cx="0" cy="0" r="25" fill="#57C7E3" stroke="#23b3d7" stroke-width="2px"/><text text-anchor="middle" pointer-events="none" font-family="sans-serif" dy="1.5625" font-size="25" fill="#2A2C34"/><text text-anchor="middle" pointer-events="none" x="0" y="5" font-size="10px" fill="#2A2C34" font-family="sans-serif"> Sirikhola</text></g><g class="node" transform="translate(223.3264588151235,-32.704203277979275)"><circle class="outline" cx="0" cy="0" r="25" fill="#57C7E3" stroke="#23b3d7" stroke-width="2px"/><text text-anchor="middle" pointer-events="none" font-family="sans-serif" dy="1.5625" font-size="25" fill="#2A2C34"/><text text-anchor="middle" pointer-events="none" x="0" y="5" font-size="10px" fill="#2A2C34" font-family="sans-serif"> Rammam</text></g><g class="node" transform="translate(110.45029743461075,-84.01985938762836)"><circle class="outline" cx="0" cy="0" r="25" fill="#F16667" stroke="#eb2728" stroke-width="2px"/><text text-anchor="middle" pointer-events="none" font-family="sans-serif" dy="1.5625" font-size="25" fill="#FFFFFF"/><text text-anchor="middle" pointer-events="none" x="0" y="5" font-size="10px" fill="#FFFFFF" font-family="sans-serif"> Sabargr…</text></g><g class="node" transform="translate(129.81844584505862,12.70870863980042)"><circle class="outline" cx="0" cy="0" r="25" fill="#57C7E3" stroke="#23b3d7" stroke-width="2px"/><text text-anchor="middle" pointer-events="none" font-family="sans-serif" dy="1.5625" font-size="25" fill="#2A2C34"/><text text-anchor="middle" pointer-events="none" x="0" y="5" font-size="10px" fill="#2A2C34" font-family="sans-serif"> Gurdum</text></g><g class="node" transform="translate(67.14408424552836,270.09908334733734)"><circle class="outline" cx="0" cy="0" r="25" fill="#57C7E3" stroke="#23b3d7" stroke-width="2px"/><text text-anchor="middle" pointer-events="none" font-family="sans-serif" dy="1.5625" font-size="25" fill="#2A2C34"/><text text-anchor="middle" pointer-events="none" x="0" y="5" font-size="10px" fill="#2A2C34" font-family="sans-serif"> Tumbling</text></g><g class="node" transform="translate(-35.0251386642845,218.11486989200745)"><circle class="outline" cx="0" cy="0" r="25" fill="#57C7E3" stroke="#23b3d7" stroke-width="2px"/><text text-anchor="middle" pointer-events="none" font-family="sans-serif" dy="1.5625" font-size="25" fill="#2A2C34"/><text text-anchor="middle" pointer-events="none" x="0" y="5" font-size="10px" fill="#2A2C34" font-family="sans-serif"> Gairibus</text></g><g class="node" transform="translate(12.66247773026443,114.79417888026678)"><circle class="outline" cx="0" cy="0" r="25" fill="#57C7E3" stroke="#23b3d7" stroke-width="2px"/><text text-anchor="middle" pointer-events="none" font-family="sans-serif" dy="1.5625" font-size="25" fill="#2A2C34"/><text text-anchor="middle" pointer-events="none" x="0" y="5" font-size="10px" fill="#2A2C34" font-family="sans-serif"> BhikeBh…</text></g></g></svg>