<svg xmlns="http://www.w3.org/2000/svg" width="598.3219604492188" height="584.6898193359375" viewBox="-204.0957489013672 -180.76548767089844 598.3219604492188 584.6898193359375"><title>Neo4j Graph Visualization</title><desc>Created using Neo4j (http://www.neo4j.com/)</desc><g class="layer relationships"><g class="relationship" transform="translate(176.36999303869652 374.9243088372933) rotate(257.68789469883404)"><path class="outline" fill="#A5ABB6" stroke="none" d="M 21.40063509461097,12.933012701892217 L 21.90063509461097,12.06698729810778 A 55.6389366292717 55.6389366292717 0 0 0 23.37897803619684,12.890788518136212 L 22.905548330870808,13.771620121857893 A 56.6389366292717 56.6389366292717 0 0 1 21.40063509461097,12.933012701892217 Z M 73.28983884040555,15.38406746492494 L 72.87369869311723,14.474766976739183 A 55.6389366292717 55.6389366292717 0 0 0 74.40169075935462,13.74717742996667 L 73.07088239858936,11.058506920789824 L 80.89705667422814,11.090069673043864 L 76.17610190704164,17.332071442202462 L 74.84529354627638,14.643400933025617 A 56.6389366292717 56.6389366292717 0 0 1 73.28983884040555,15.38406746492494"/><text text-anchor="middle" pointer-events="none" font-size="8px" fill="#000000" x="47.92440958378362" y="22.992464945290777" transform="rotate(180 47.92440958378362 19.992464945290777)" font-family="sans-serif">PRODUCED</text></g><g class="relationship" transform="translate(176.36999303869652 374.9243088372933) rotate(257.68789469883404)"><path class="outline" fill="#A5ABB6" stroke="none" d="M 25 0.5 L 26.26265025035093 0.5 L 26.26265025035093 -0.5 L 25 -0.5 Z M 70.03999400035093 0.5 L 71.30264425070186 0.5 L 71.30264425070186 3.5 L 78.30264425070186 0 L 71.30264425070186 -3.5 L 71.30264425070186 -0.5 L 70.03999400035093 -0.5 Z"/><text text-anchor="middle" pointer-events="none" font-size="8px" fill="#000000" x="48.15132212535093" y="3" transform="rotate(180 48.15132212535093 0)" font-family="sans-serif">DIRECT…</text></g><g class="relationship" transform="translate(176.36999303869652 374.9243088372933) rotate(257.68789469883404)"><path class="outline" fill="#A5ABB6" stroke="none" d="M 21.40063509461097,-12.933012701892217 L 21.90063509461097,-12.06698729810778 A 55.6389366292717 55.6389366292717 0 0 1 30.609898519235056,-16.13635829223488 L 30.26643032865217,-17.07552260270336 A 56.6389366292717 56.6389366292717 0 0 0 21.40063509461097,-12.933012701892217 Z M 65.73276623443316,-18.21055097208722 L 65.45005148415463,-17.25134694270924 A 55.6389366292717 55.6389366292717 0 0 1 74.40169075935462,-13.74717742996667 L 73.07088239858936,-11.058506920789824 L 80.89705667422814,-11.090069673043864 L 76.17610190704164,-17.332071442202462 L 74.84529354627638,-14.643400933025617 A 56.6389366292717 56.6389366292717 0 0 0 65.73276623443316,-18.21055097208722"/><text text-anchor="middle" pointer-events="none" font-size="8px" fill="#000000" x="47.924409583783614" y="-16.992464945290777" transform="rotate(180 47.924409583783614 -19.992464945290777)" font-family="sans-serif">WROTE</text></g><g class="relationship" transform="translate(354.3421477520899 197.89391022061176) rotate(275.8163132777123)"><path class="outline" fill="#A5ABB6" stroke="none" d="M 24.018736134675446,6.953439040707552 L 24.277555179777966,5.987513214418485 A 106.50678488040893 106.50678488040893 0 0 0 32.45896417678167,7.83776105324975 L 32.27696097966658,8.821058991943772 A 107.50678488040893 107.50678488040893 0 0 1 24.018736134675446,6.953439040707552 Z M 68.04591519845316,9.38869896029081 L 67.89520493698443,8.400120983048737 A 106.50678488040893 106.50678488040893 0 0 0 76.13120477737245,6.810411301855408 L 75.44708877672952,3.8894550718402585 L 83.06078864751495,5.7009666720244265 L 77.04335944489637,10.705019608542276 L 76.35924344425344,7.784063378527126 A 107.50678488040893 107.50678488040893 0 0 1 68.04591519845316,9.38869896029081"/><text text-anchor="middle" pointer-events="none" font-size="8px" fill="#000000" x="50.145595552804096" y="13.103171882961504" font-family="sans-serif">WROTE</text></g><g class="relationship" transform="translate(354.3421477520899 197.89391022061176) rotate(275.8163132777123)"><path class="outline" fill="#A5ABB6" stroke="none" d="M 24.018736134675446,-6.953439040707552 L 24.277555179777966,-5.987513214418485 A 106.50678488040893 106.50678488040893 0 0 1 27.047343850584323,-6.689991794718907 L 26.814530554072526,-7.662513243822886 A 107.50678488040893 107.50678488040893 0 0 0 24.018736134675446,-6.953439040707552 Z M 73.54235706432499,-8.404066429833449 L 73.34052033793606,-7.42464724690889 A 106.50678488040893 106.50678488040893 0 0 1 76.13120477737245,-6.810411301855408 L 75.44708877672952,-3.8894550718402585 L 83.06078864751495,-5.7009666720244265 L 77.04335944489637,-10.705019608542276 L 76.35924344425344,-7.784063378527126 A 107.50678488040893 107.50678488040893 0 0 0 73.54235706432499,-8.404066429833449"/><text text-anchor="middle" pointer-events="none" font-size="8px" fill="#000000" x="50.145595552804046" y="-7.1031718829615045" font-family="sans-serif">DIRECTED</text></g><g class="relationship" transform="translate(258.4656929554568 90.87348735367902) rotate(360.09190533937357)"><path class="outline" fill="#A5ABB6" stroke="none" d="M 24.018736134675446,6.953439040707552 L 24.277555179777966,5.987513214418485 A 105.22454142788183 105.22454142788183 0 0 0 32.14147863303113,7.774712315468975 L 31.95739427763636,8.757622764136045 A 106.22454142788183 106.22454142788183 0 0 1 24.018736134675446,6.953439040707552 Z M 67.72424254243197,9.32843637923763 L 67.57161705861243,8.340152279553308 A 105.22454142788183 105.22454142788183 0 0 0 75.48856600746964,6.804804746709688 L 74.8049737056564,3.883725910919449 L 82.41834867461574,5.696602515110464 L 76.40002240988731,10.69957652776334 L 75.71643010807406,7.7784976919731 A 106.22454142788183 106.22454142788183 0 0 1 67.72424254243197,9.32843637923763"/><text text-anchor="middle" pointer-events="none" font-size="8px" fill="#000000" x="49.82459640225434" y="13.059491119661644" font-family="sans-serif">WROTE</text></g><g class="relationship" transform="translate(258.4656929554568 90.87348735367902) rotate(360.09190533937357)"><path class="outline" fill="#A5ABB6" stroke="none" d="M 24.018736134675446,-6.953439040707552 L 24.277555179777966,-5.987513214418485 A 105.22454142788183 105.22454142788183 0 0 1 26.732988398616566,-6.613855064578814 L 26.497504529752582,-7.585733322132114 A 106.22454142788183 106.22454142788183 0 0 0 24.018736134675446,-6.953439040707552 Z M 73.21874727079259,-8.33137132952966 L 73.01439640737146,-7.352473620563572 A 105.22454142788183 105.22454142788183 0 0 1 75.48856600746964,-6.804804746709688 L 74.8049737056564,-3.883725910919449 L 82.41834867461574,-5.696602515110464 L 76.40002240988731,-10.69957652776334 L 75.71643010807406,-7.7784976919731 A 106.22454142788183 106.22454142788183 0 0 0 73.21874727079259,-8.33137132952966"/><text text-anchor="middle" pointer-events="none" font-size="8px" fill="#000000" x="49.82459640225433" y="-7.059491119661644" font-family="sans-serif">DIRECTED</text></g><g class="relationship" transform="translate(286.61559228184484 -123.07712458389483) rotate(511.93047303068295)"><path class="outline" fill="#A5ABB6" stroke="none" d="M 21.40063509461097,12.933012701892217 L 21.90063509461097,12.06698729810778 A 56.75610904565555 56.75610904565555 0 0 0 23.875275071610016,13.155332413142446 L 23.410066744439643,14.040533640170146 A 57.75610904565555 57.75610904565555 0 0 1 21.40063509461097,12.933012701892217 Z M 73.85621491549475,15.639212679688768 L 73.44798926304613,14.72633162682213 A 56.75610904565555 56.75610904565555 0 0 0 75.48757878620012,13.76520067569055 L 74.15509372374721,11.077360732847993 L 81.98128616324156,11.104042187107535 L 77.26422553613732,17.348987266147294 L 75.93174047368441,14.661147323304736 A 57.75610904565555 57.75610904565555 0 0 1 73.85621491549475,15.639212679688768"/><text text-anchor="middle" pointer-events="none" font-size="8px" fill="#000000" x="48.46510790445267" y="23.142134369705403" transform="rotate(180 48.46510790445267 20.142134369705403)" font-family="sans-serif">PRODUCED</text></g><g class="relationship" transform="translate(286.61559228184484 -123.07712458389483) rotate(511.93047303068295)"><path class="outline" fill="#A5ABB6" stroke="none" d="M 25 0.5 L 30.803257426798105 0.5 L 30.803257426798105 -0.5 L 25 -0.5 Z M 66.5766949267981 0.5 L 72.37995235359621 0.5 L 72.37995235359621 3.5 L 79.37995235359621 0 L 72.37995235359621 -3.5 L 72.37995235359621 -0.5 L 66.5766949267981 -0.5 Z"/><text text-anchor="middle" pointer-events="none" font-size="8px" fill="#000000" x="48.689976176798105" y="3" transform="rotate(180 48.689976176798105 0)" font-family="sans-serif">WROTE</text></g><g class="relationship" transform="translate(286.61559228184484 -123.07712458389483) rotate(511.93047303068295)"><path class="outline" fill="#A5ABB6" stroke="none" d="M 21.40063509461097,-12.933012701892217 L 21.90063509461097,-12.06698729810778 A 56.75610904565555 56.75610904565555 0 0 1 26.044390002824315,-14.236822775669651 L 25.617399851066025,-15.141079050351465 A 57.75610904565555 57.75610904565555 0 0 0 21.40063509461097,-12.933012701892217 Z M 71.58362668599133,-16.597785776850706 L 71.2147490482732,-15.668307811328404 A 56.75610904565555 56.75610904565555 0 0 1 75.48757878620012,-13.76520067569055 L 74.15509372374721,-11.077360732847993 L 81.98128616324156,-11.104042187107535 L 77.26422553613732,-17.348987266147294 L 75.93174047368441,-14.661147323304736 A 57.75610904565555 57.75610904565555 0 0 0 71.58362668599133,-16.597785776850706"/><text text-anchor="middle" pointer-events="none" font-size="8px" fill="#000000" x="48.465107904452665" y="-17.142134369705403" transform="rotate(180 48.465107904452665 -20.142134369705403)" font-family="sans-serif">DIRECTED</text></g><g class="relationship" transform="translate(66.2589300246118 -130.82192629020963) rotate(191.78417071520875)"><path class="outline" fill="#A5ABB6" stroke="none" d="M 21.40063509461097,12.933012701892217 L 21.90063509461097,12.06698729810778 A 54.859116496391024 54.859116496391024 0 0 0 25.185890445310285,13.817879947085778 L 24.745775758099004,14.715821516510495 A 55.859116496391024 55.859116496391024 0 0 1 21.40063509461097,12.933012701892217 Z M 70.63432115430238,16.194552933640566 L 70.25293080752036,15.270138847107106 A 54.859116496391024 54.859116496391024 0 0 0 73.64409625168065,13.734389936029263 L 72.31447752310669,11.045130923471092 L 80.14063706907872,11.080156071449705 L 75.41692122311261,17.320068619440157 L 74.08730249453865,14.630809606881986 A 55.859116496391024 55.859116496391024 0 0 1 70.63432115430238,16.194552933640566"/><text text-anchor="middle" pointer-events="none" font-size="8px" fill="#000000" x="47.547203835003906" y="22.88799483872195" transform="rotate(180 47.547203835003906 19.88799483872195)" font-family="sans-serif">DIRECTED</text></g><g class="relationship" transform="translate(66.2589300246118 -130.82192629020963) rotate(191.78417071520875)"><path class="outline" fill="#A5ABB6" stroke="none" d="M 25 0.5 L 26.3302519201984 0.5 L 26.3302519201984 -0.5 L 25 -0.5 Z M 69.2208769201984 0.5 L 70.5511288403968 0.5 L 70.5511288403968 3.5 L 77.5511288403968 0 L 70.5511288403968 -3.5 L 70.5511288403968 -0.5 L 69.2208769201984 -0.5 Z"/><text text-anchor="middle" pointer-events="none" font-size="8px" fill="#000000" x="47.7755644201984" y="3" transform="rotate(180 47.7755644201984 0)" font-family="sans-serif">PRODU…</text></g><g class="relationship" transform="translate(66.2589300246118 -130.82192629020963) rotate(191.78417071520875)"><path class="outline" fill="#A5ABB6" stroke="none" d="M 21.40063509461097,-12.933012701892217 L 21.90063509461097,-12.06698729810778 A 54.859116496391024 54.859116496391024 0 0 1 30.245405190430407,-15.99001583635291 L 29.897517922620843,-16.92755220839188 A 55.859116496391024 55.859116496391024 0 0 0 21.40063509461097,-12.933012701892217 Z M 65.35087158163262,-18.070015702180065 L 65.06406650407897,-17.11202674217612 A 54.859116496391024 54.859116496391024 0 0 1 73.64409625168065,-13.734389936029263 L 72.31447752310669,-11.045130923471092 L 80.14063706907872,-11.080156071449705 L 75.41692122311261,-17.320068619440157 L 74.08730249453865,-14.630809606881986 A 55.859116496391024 55.859116496391024 0 0 0 65.35087158163262,-18.070015702180065"/><text text-anchor="middle" pointer-events="none" font-size="8px" fill="#000000" x="47.547203835003906" y="-16.88799483872195" transform="rotate(180 47.547203835003906 -19.88799483872195)" font-family="sans-serif">WROTE</text></g><g class="relationship" transform="translate(-37.18404804563494 52.6796477540679) rotate(203.34178682418155)"><path class="outline" fill="#A5ABB6" stroke="none" d="M 24.018736134675446,-6.953439040707552 L 24.277555179777966,-5.987513214418485 A 108.91557927082272 108.91557927082272 0 0 1 27.638783727710106,-6.831074908382831 L 27.410825543564624,-7.804745831375342 A 109.91557927082272 109.91557927082272 0 0 0 24.018736134675446,-6.953439040707552 Z M 74.15032244824717,-8.538732828068348 L 73.95304976689796,-7.558384171113445 A 108.91557927082272 108.91557927082272 0 0 1 77.33910859647929,-6.8207804254801525 L 76.65402403760658,-3.9000512105076 L 84.26832419122736,-5.709037990605921 L 78.25255467497624,-10.715086045443556 L 77.56747011610352,-7.794356830471004 A 109.91557927082272 109.91557927082272 0 0 0 74.15032244824717,-8.538732828068348"/><text text-anchor="middle" pointer-events="none" font-size="8px" fill="#000000" x="50.74895453026715" y="-7.185232651822048" transform="rotate(180 50.74895453026715 -10.185232651822048)" font-family="sans-serif">DIRECTED</text></g><g class="relationship" transform="translate(-37.18404804563494 52.6796477540679) rotate(203.34178682418155)"><path class="outline" fill="#A5ABB6" stroke="none" d="M 24.018736134675446,6.953439040707552 L 24.277555179777966,5.987513214418485 A 108.91557927082272 108.91557927082272 0 0 0 33.05600788168282,7.955048680826835 L 32.877787523753206,8.939039282417838 A 109.91557927082272 109.91557927082272 0 0 1 24.018736134675446,6.953439040707552 Z M 68.65043958879885,9.500805308836846 L 68.50320424424879,8.51170382096251 A 108.91557927082272 108.91557927082272 0 0 0 77.33910859647929,6.8207804254801525 L 76.65402403760658,3.9000512105076 L 84.26832419122736,5.709037990605921 L 78.25255467497624,10.715086045443556 L 77.56747011610352,7.794356830471004 A 109.91557927082272 109.91557927082272 0 0 1 68.65043958879885,9.500805308836846"/><text text-anchor="middle" pointer-events="none" font-size="8px" fill="#000000" x="50.74895453026715" y="13.185232651822048" transform="rotate(180 50.74895453026715 10.185232651822048)" font-family="sans-serif">WROTE</text></g><g class="relationship" transform="translate(-175.0957458538103 109.12535487557714) rotate(291.0033862210733)"><path class="outline" fill="#A5ABB6" stroke="none" d="M 24.018736134675446,-6.953439040707552 L 24.277555179777966,-5.987513214418485 A 104.81829141164714 104.81829141164714 0 0 1 32.0409400024982,-7.7546443484504834 L 31.856186129782735,-8.737429170533446 A 105.81829141164714 105.81829141164714 0 0 0 24.018736134675446,-6.953439040707552 Z M 67.62234607325504,-9.30925516833635 L 67.4691039391711,-8.321066497918892 A 104.81829141164714 104.81829141164714 0 0 1 75.28501194242679,-6.803015630802816 L 74.60158675922766,-3.8818976908748124 L 82.21485799945866,-5.695209859992824 L 76.19624552002564,-10.69783955070682 L 75.51282033682651,-7.776721610778817 A 105.81829141164714 105.81829141164714 0 0 0 67.62234607325504,-9.30925516833635"/><text text-anchor="middle" pointer-events="none" font-size="8px" fill="#000000" x="49.72292150668301" y="-7.045652094757699" font-family="sans-serif">WROTE</text></g><g class="relationship" transform="translate(-175.0957458538103 109.12535487557714) rotate(291.0033862210733)"><path class="outline" fill="#A5ABB6" stroke="none" d="M 24.018736134675446,6.953439040707552 L 24.277555179777966,5.987513214418485 A 104.81829141164714 104.81829141164714 0 0 0 26.633463846567615,6.589577139655987 L 26.397120923094832,7.561246848211496 A 105.81829141164714 105.81829141164714 0 0 1 24.018736134675446,6.953439040707552 Z M 73.11622094907177,8.308187420837427 L 72.9110608072169,7.329459002840849 A 104.81829141164714 104.81829141164714 0 0 0 75.28501194242679,6.803015630802816 L 74.60158675922766,3.8818976908748124 L 82.21485799945866,5.695209859992824 L 76.19624552002564,10.69783955070682 L 75.51282033682651,7.776721610778817 A 105.81829141164714 105.81829141164714 0 0 1 73.11622094907177,8.308187420837427"/><text text-anchor="middle" pointer-events="none" font-size="8px" fill="#000000" x="49.722921506682994" y="13.045652094757699" font-family="sans-serif">DIRECTED</text></g><g class="relationship" transform="translate(-5.515509048913238 249.54784872590162) rotate(500.29903742106205)"><path class="outline" fill="#A5ABB6" stroke="none" d="M 21.40063509461097,12.933012701892217 L 21.90063509461097,12.06698729810778 A 56.66209052647023 56.66209052647023 0 0 0 23.833402307811316,13.133223841802128 L 23.36751271911528,14.018066704204621 A 57.66209052647023 57.66209052647023 0 0 1 21.40063509461097,12.933012701892217 Z M 73.80859908157703,15.617899101337223 L 73.39971833326445,14.705311278900751 A 56.66209052647023 56.66209052647023 0 0 0 75.39616824686222,13.763697127548427 L 74.06382305864892,11.075787847188524 L 81.89001409907087,11.102876568444069 L 77.17262849781326,17.347576168028297 L 75.84028330959997,14.659666887668395 A 57.66209052647023 57.66209052647023 0 0 1 73.80859908157703,15.617899101337223"/><text text-anchor="middle" pointer-events="none" font-size="8px" fill="#000000" x="48.4195900909761" y="23.129538322443096" transform="rotate(180 48.4195900909761 20.129538322443096)" font-family="sans-serif">PRODUCED</text></g><g class="relationship" transform="translate(-5.515509048913238 249.54784872590162) rotate(500.29903742106205)"><path class="outline" fill="#A5ABB6" stroke="none" d="M 25 0.5 L 25.199316551035018 0.5 L 25.199316551035018 -0.5 L 25 -0.5 Z M 72.08994155103503 0.5 L 72.28925810207004 0.5 L 72.28925810207004 3.5 L 79.28925810207004 0 L 72.28925810207004 -3.5 L 72.28925810207004 -0.5 L 72.08994155103503 -0.5 Z"/><text text-anchor="middle" pointer-events="none" font-size="8px" fill="#000000" x="48.64462905103502" y="3" transform="rotate(180 48.64462905103502 0)" font-family="sans-serif">DIRECTED</text></g><g class="relationship" transform="translate(-5.515509048913238 249.54784872590162) rotate(500.29903742106205)"><path class="outline" fill="#A5ABB6" stroke="none" d="M 21.40063509461097,-12.933012701892217 L 21.90063509461097,-12.06698729810778 A 56.66209052647023 56.66209052647023 0 0 1 31.089094997883997,-16.32678714808175 L 30.751257385785667,-17.26799156150728 A 57.66209052647023 57.66209052647023 0 0 0 21.40063509461097,-12.933012701892217 Z M 66.23374738176823,-18.393384393425983 L 65.9562328678507,-17.432662948591364 A 56.66209052647023 56.66209052647023 0 0 1 75.39616824686222,-13.763697127548427 L 74.06382305864892,-11.075787847188524 L 81.89001409907087,-11.102876568444069 L 77.17262849781326,-17.347576168028297 L 75.84028330959997,-14.659666887668395 A 57.66209052647023 57.66209052647023 0 0 0 66.23374738176823,-18.393384393425983"/><text text-anchor="middle" pointer-events="none" font-size="8px" fill="#000000" x="48.4195900909761" y="-17.129538322443096" transform="rotate(180 48.4195900909761 -20.129538322443096)" font-family="sans-serif">WROTE</text></g></g><g class="layer nodes"><g class="node" transform="translate(176.36999303869652,374.9243088372933)"><circle class="outline" cx="0" cy="0" r="25" fill="#F79767" stroke="#f36924" stroke-width="2px"/><text text-anchor="middle" pointer-events="none" font-family="sans-serif" dy="1.5625" font-size="25" fill="#FFFFFF"/><text text-anchor="middle" pointer-events="none" font-family="sans-serif" dy="1.5625" font-size="25" fill="#FFFFFF"/><text text-anchor="middle" pointer-events="none" x="0" y="0" font-size="10px" fill="#FFFFFF" font-family="sans-serif"> Cameron</text><text text-anchor="middle" pointer-events="none" x="0" y="10" font-size="10px" fill="#FFFFFF" font-family="sans-serif"> Crowe</text></g><g class="node" transform="translate(154.34206680392253,273.9975691942115)"><circle class="outline" cx="0" cy="0" r="25" fill="#57C7E3" stroke="#23b3d7" stroke-width="2px"/><text text-anchor="middle" pointer-events="none" font-family="sans-serif" dy="1.5625" font-size="25" fill="#2A2C34"/><text text-anchor="middle" pointer-events="none" font-family="sans-serif" dy="1.5625" font-size="25" fill="#2A2C34"/><text text-anchor="middle" pointer-events="none" x="0" y="0" font-size="10px" fill="#2A2C34" font-family="sans-serif"> Jerry</text><text text-anchor="middle" pointer-events="none" x="0" y="10" font-size="10px" fill="#2A2C34" font-family="sans-serif"> Maguire</text></g><g class="node" transform="translate(354.3421477520899,197.89391022061176)"><circle class="outline" cx="0" cy="0" r="25" fill="#F79767" stroke="#f36924" stroke-width="2px"/><text text-anchor="middle" pointer-events="none" font-family="sans-serif" dy="1.5625" font-size="25" fill="#FFFFFF"/><text text-anchor="middle" pointer-events="none" font-family="sans-serif" dy="1.5625" font-size="25" fill="#FFFFFF"/><text text-anchor="middle" pointer-events="none" x="0" y="0" font-size="10px" fill="#FFFFFF" font-family="sans-serif"> Andy</text><text text-anchor="middle" pointer-events="none" x="0" y="10" font-size="10px" fill="#FFFFFF" font-family="sans-serif"> Wacho…</text></g><g class="node" transform="translate(365.2262279152098,91.04473681909887)"><circle class="outline" cx="0" cy="0" r="25" fill="#57C7E3" stroke="#23b3d7" stroke-width="2px"/><text text-anchor="middle" pointer-events="none" font-family="sans-serif" dy="1.5625" font-size="25" fill="#2A2C34"/><text text-anchor="middle" pointer-events="none" font-family="sans-serif" dy="1.5625" font-size="25" fill="#2A2C34"/><text text-anchor="middle" pointer-events="none" x="0" y="0" font-size="10px" fill="#2A2C34" font-family="sans-serif"> Speed</text><text text-anchor="middle" pointer-events="none" x="0" y="10" font-size="10px" fill="#2A2C34" font-family="sans-serif"> Racer</text></g><g class="node" transform="translate(258.4656929554568,90.87348735367902)"><circle class="outline" cx="0" cy="0" r="25" fill="#F79767" stroke="#f36924" stroke-width="2px"/><text text-anchor="middle" pointer-events="none" font-family="sans-serif" dy="1.5625" font-size="25" fill="#FFFFFF"/><text text-anchor="middle" pointer-events="none" font-family="sans-serif" dy="1.5625" font-size="25" fill="#FFFFFF"/><text text-anchor="middle" pointer-events="none" x="0" y="0" font-size="10px" fill="#FFFFFF" font-family="sans-serif"> Lana</text><text text-anchor="middle" pointer-events="none" x="0" y="10" font-size="10px" fill="#FFFFFF" font-family="sans-serif"> Wacho…</text></g><g class="node" transform="translate(286.61559228184484,-123.07712458389483)"><circle class="outline" cx="0" cy="0" r="25" fill="#F79767" stroke="#f36924" stroke-width="2px"/><text text-anchor="middle" pointer-events="none" font-family="sans-serif" dy="1.5625" font-size="25" fill="#FFFFFF"/><text text-anchor="middle" pointer-events="none" font-family="sans-serif" dy="1.5625" font-size="25" fill="#FFFFFF"/><text text-anchor="middle" pointer-events="none" x="0" y="0" font-size="10px" fill="#FFFFFF" font-family="sans-serif"> Nancy</text><text text-anchor="middle" pointer-events="none" x="0" y="10" font-size="10px" fill="#FFFFFF" font-family="sans-serif"> Meyers</text></g><g class="node" transform="translate(194.51309685058285,-73.9619050621073)"><circle class="outline" cx="0" cy="0" r="25" fill="#57C7E3" stroke="#23b3d7" stroke-width="2px"/><text text-anchor="middle" pointer-events="none" font-family="sans-serif" dy="1.5625" font-size="25" fill="#2A2C34"/><text text-anchor="middle" pointer-events="none" x="0" y="5" font-size="10px" fill="#2A2C34" font-family="sans-serif"> Somethi…</text></g><g class="node" transform="translate(66.2589300246118,-130.82192629020963)"><circle class="outline" cx="0" cy="0" r="25" fill="#F79767" stroke="#f36924" stroke-width="2px"/><text text-anchor="middle" pointer-events="none" font-family="sans-serif" dy="1.5625" font-size="25" fill="#FFFFFF"/><text text-anchor="middle" pointer-events="none" font-family="sans-serif" dy="1.5625" font-size="25" fill="#FFFFFF"/><text text-anchor="middle" pointer-events="none" x="0" y="0" font-size="10px" fill="#FFFFFF" font-family="sans-serif"> Cameron</text><text text-anchor="middle" pointer-events="none" x="0" y="10" font-size="10px" fill="#FFFFFF" font-family="sans-serif"> Crowe</text></g><g class="node" transform="translate(-34.13081565400228,-151.76549305957462)"><circle class="outline" cx="0" cy="0" r="25" fill="#57C7E3" stroke="#23b3d7" stroke-width="2px"/><text text-anchor="middle" pointer-events="none" font-family="sans-serif" dy="1.5625" font-size="25" fill="#2A2C34"/><text text-anchor="middle" pointer-events="none" font-family="sans-serif" dy="1.5625" font-size="25" fill="#2A2C34"/><text text-anchor="middle" pointer-events="none" x="0" y="0" font-size="10px" fill="#2A2C34" font-family="sans-serif"> Jerry</text><text text-anchor="middle" pointer-events="none" x="0" y="10" font-size="10px" fill="#2A2C34" font-family="sans-serif"> Maguire</text></g><g class="node" transform="translate(-37.18404804563494,52.6796477540679)"><circle class="outline" cx="0" cy="0" r="25" fill="#F79767" stroke="#f36924" stroke-width="2px"/><text text-anchor="middle" pointer-events="none" font-family="sans-serif" dy="1.5625" font-size="25" fill="#FFFFFF"/><text text-anchor="middle" pointer-events="none" font-family="sans-serif" dy="1.5625" font-size="25" fill="#FFFFFF"/><text text-anchor="middle" pointer-events="none" x="0" y="0" font-size="10px" fill="#FFFFFF" font-family="sans-serif"> Lilly</text><text text-anchor="middle" pointer-events="none" x="0" y="10" font-size="10px" fill="#FFFFFF" font-family="sans-serif"> Wacho…</text></g><g class="node" transform="translate(-136.90307111096084,9.647608618656795)"><circle class="outline" cx="0" cy="0" r="25" fill="#57C7E3" stroke="#23b3d7" stroke-width="2px"/><text text-anchor="middle" pointer-events="none" font-family="sans-serif" dy="1.5625" font-size="25" fill="#2A2C34"/><text text-anchor="middle" pointer-events="none" font-family="sans-serif" dy="1.5625" font-size="25" fill="#2A2C34"/><text text-anchor="middle" pointer-events="none" x="0" y="0" font-size="10px" fill="#2A2C34" font-family="sans-serif"> Speed</text><text text-anchor="middle" pointer-events="none" x="0" y="10" font-size="10px" fill="#2A2C34" font-family="sans-serif"> Racer</text></g><g class="node" transform="translate(-175.0957458538103,109.12535487557714)"><circle class="outline" cx="0" cy="0" r="25" fill="#F79767" stroke="#f36924" stroke-width="2px"/><text text-anchor="middle" pointer-events="none" font-family="sans-serif" dy="1.5625" font-size="25" fill="#FFFFFF"/><text text-anchor="middle" pointer-events="none" font-family="sans-serif" dy="1.5625" font-size="25" fill="#FFFFFF"/><text text-anchor="middle" pointer-events="none" x="0" y="0" font-size="10px" fill="#FFFFFF" font-family="sans-serif"> Lana</text><text text-anchor="middle" pointer-events="none" x="0" y="10" font-size="10px" fill="#FFFFFF" font-family="sans-serif"> Wacho…</text></g><g class="node" transform="translate(-5.515509048913238,249.54784872590162)"><circle class="outline" cx="0" cy="0" r="25" fill="#F79767" stroke="#f36924" stroke-width="2px"/><text text-anchor="middle" pointer-events="none" font-family="sans-serif" dy="1.5625" font-size="25" fill="#FFFFFF"/><text text-anchor="middle" pointer-events="none" font-family="sans-serif" dy="1.5625" font-size="25" fill="#FFFFFF"/><text text-anchor="middle" pointer-events="none" x="0" y="0" font-size="10px" fill="#FFFFFF" font-family="sans-serif"> Nancy</text><text text-anchor="middle" pointer-events="none" x="0" y="10" font-size="10px" fill="#FFFFFF" font-family="sans-serif"> Meyers</text></g><g class="node" transform="translate(-85.75449864680384,316.16581855229146)"><circle class="outline" cx="0" cy="0" r="25" fill="#57C7E3" stroke="#23b3d7" stroke-width="2px"/><text text-anchor="middle" pointer-events="none" font-family="sans-serif" dy="1.5625" font-size="25" fill="#2A2C34"/><text text-anchor="middle" pointer-events="none" x="0" y="5" font-size="10px" fill="#2A2C34" font-family="sans-serif"> Somethi…</text></g></g></svg>