<svg xmlns="http://www.w3.org/2000/svg" width="423.9889831542969" height="381.98468017578125" viewBox="-113.99517059326172 -88.18450927734375 423.9889831542969 381.98468017578125"><title>Neo4j Graph Visualization</title><desc>Created using Neo4j (http://www.neo4j.com/)</desc><g class="layer relationships"><g class="relationship" transform="translate(154.68040314572823 264.8001621478088) rotate(311.29555284401687)"><path class="outline" fill="#A5ABB6" stroke="none" d="M 25 0.5 L 26.653385159602436 0.5 L 26.653385159602436 -0.5 L 25 -0.5 Z M 67.76666640960244 0.5 L 69.42005156920487 0.5 L 69.42005156920487 3.5 L 76.42005156920487 0 L 69.42005156920487 -3.5 L 69.42005156920487 -0.5 L 67.76666640960244 -0.5 Z"/><text text-anchor="middle" pointer-events="none" font-size="8px" fill="#000000" x="47.210025784602436" y="3" font-family="sans-serif">ACTED…</text></g><g class="relationship" transform="translate(154.68040314572823 264.8001621478088) rotate(275.95355262392974)"><path class="outline" fill="#A5ABB6" stroke="none" d="M 25 0.5 L 34.340886706735745 0.5 L 34.340886706735745 -0.5 L 25 -0.5 Z M 79.90338670673574 0.5 L 89.24427341347149 0.5 L 89.24427341347149 3.5 L 96.24427341347149 0 L 89.24427341347149 -3.5 L 89.24427341347149 -0.5 L 79.90338670673574 -0.5 Z"/><text text-anchor="middle" pointer-events="none" font-size="8px" fill="#000000" x="57.122136706735745" y="3" font-family="sans-serif">ACTED_IN</text></g><g class="relationship" transform="translate(154.68040314572823 264.8001621478088) rotate(343.73363679223394)"><path class="outline" fill="#A5ABB6" stroke="none" d="M 25 0.5 L 35.47397707156598 0.5 L 35.47397707156598 -0.5 L 25 -0.5 Z M 81.03647707156598 0.5 L 91.51045414313197 0.5 L 91.51045414313197 3.5 L 98.51045414313197 0 L 91.51045414313197 -3.5 L 91.51045414313197 -0.5 L 81.03647707156598 -0.5 Z"/><text text-anchor="middle" pointer-events="none" font-size="8px" fill="#000000" x="58.25522707156598" y="3" font-family="sans-serif">ACTED_IN</text></g><g class="relationship" transform="translate(280.99381214975784 106.38493517658674) rotate(485.83908696077617)"><path class="outline" fill="#A5ABB6" stroke="none" d="M 25 0.5 L 26.652855706308358 0.5 L 26.652855706308358 -0.5 L 25 -0.5 Z M 67.76613695630836 0.5 L 69.41899266261672 0.5 L 69.41899266261672 3.5 L 76.41899266261672 0 L 69.41899266261672 -3.5 L 69.41899266261672 -0.5 L 67.76613695630836 -0.5 Z"/><text text-anchor="middle" pointer-events="none" font-size="8px" fill="#000000" x="47.20949633130836" y="3" transform="rotate(180 47.20949633130836 0)" font-family="sans-serif">ACTED…</text></g><g class="relationship" transform="translate(280.99381214975784 106.38493517658674) rotate(521.6048005777504)"><path class="outline" fill="#A5ABB6" stroke="none" d="M 25 0.5 L 33.64992857200975 0.5 L 33.64992857200975 -0.5 L 25 -0.5 Z M 79.21242857200974 0.5 L 87.8623571440195 0.5 L 87.8623571440195 3.5 L 94.8623571440195 0 L 87.8623571440195 -3.5 L 87.8623571440195 -0.5 L 79.21242857200974 -0.5 Z"/><text text-anchor="middle" pointer-events="none" font-size="8px" fill="#000000" x="56.43117857200975" y="3" transform="rotate(180 56.43117857200975 0)" font-family="sans-serif">ACTED_IN</text></g><g class="relationship" transform="translate(280.99381214975784 106.38493517658674) rotate(453.5801917829565)"><path class="outline" fill="#A5ABB6" stroke="none" d="M 25 0.5 L 35.749588524299504 0.5 L 35.749588524299504 -0.5 L 25 -0.5 Z M 81.3120885242995 0.5 L 92.06167704859901 0.5 L 92.06167704859901 3.5 L 99.06167704859901 0 L 92.06167704859901 -3.5 L 92.06167704859901 -0.5 L 81.3120885242995 -0.5 Z"/><text text-anchor="middle" pointer-events="none" font-size="8px" fill="#000000" x="58.530838524299504" y="3" transform="rotate(180 58.530838524299504 0)" font-family="sans-serif">ACTED_IN</text></g><g class="relationship" transform="translate(52.518715536333865 -59.184508927354486) rotate(495.29765614619555)"><path class="outline" fill="#A5ABB6" stroke="none" d="M 25 0.5 L 26.353879129099013 0.5 L 26.353879129099013 -0.5 L 25 -0.5 Z M 67.46716037909901 0.5 L 68.82103950819803 0.5 L 68.82103950819803 3.5 L 75.82103950819803 0 L 68.82103950819803 -3.5 L 68.82103950819803 -0.5 L 67.46716037909901 -0.5 Z"/><text text-anchor="middle" pointer-events="none" font-size="8px" fill="#000000" x="46.91051975409901" y="3" transform="rotate(180 46.91051975409901 0)" font-family="sans-serif">ACTED…</text></g><g class="relationship" transform="translate(52.518715536333865 -59.184508927354486) rotate(460.4810177995506)"><path class="outline" fill="#A5ABB6" stroke="none" d="M 25 0.5 L 34.881411360329345 0.5 L 34.881411360329345 -0.5 L 25 -0.5 Z M 80.44391136032934 0.5 L 90.32532272065869 0.5 L 90.32532272065869 3.5 L 97.32532272065869 0 L 90.32532272065869 -3.5 L 90.32532272065869 -0.5 L 80.44391136032934 -0.5 Z"/><text text-anchor="middle" pointer-events="none" font-size="8px" fill="#000000" x="57.662661360329345" y="3" transform="rotate(180 57.662661360329345 0)" font-family="sans-serif">ACTED_IN</text></g><g class="relationship" transform="translate(52.518715536333865 -59.184508927354486) rotate(528.3158868337625)"><path class="outline" fill="#A5ABB6" stroke="none" d="M 25 0.5 L 35.12579106211695 0.5 L 35.12579106211695 -0.5 L 25 -0.5 Z M 80.68829106211695 0.5 L 90.8140821242339 0.5 L 90.8140821242339 3.5 L 97.8140821242339 0 L 90.8140821242339 -3.5 L 90.8140821242339 -0.5 L 80.68829106211695 -0.5 Z"/><text text-anchor="middle" pointer-events="none" font-size="8px" fill="#000000" x="57.90704106211695" y="3" transform="rotate(180 57.90704106211695 0)" font-family="sans-serif">ACTED_IN</text></g><g class="relationship" transform="translate(-84.99517324863241 88.7349876105653) rotate(346.5172722068056)"><path class="outline" fill="#A5ABB6" stroke="none" d="M 25 0.5 L 32.982914836459926 0.5 L 32.982914836459926 -0.5 L 25 -0.5 Z M 78.54541483645993 0.5 L 86.52832967291985 0.5 L 86.52832967291985 3.5 L 93.52832967291985 0 L 86.52832967291985 -3.5 L 86.52832967291985 -0.5 L 78.54541483645993 -0.5 Z"/><text text-anchor="middle" pointer-events="none" font-size="8px" fill="#000000" x="55.764164836459926" y="3" font-family="sans-serif">ACTED_IN</text></g><g class="relationship" transform="translate(-84.99517324863241 88.7349876105653) rotate(310.53844016942213)"><path class="outline" fill="#A5ABB6" stroke="none" d="M 25 0.5 L 26.602972435463805 0.5 L 26.602972435463805 -0.5 L 25 -0.5 Z M 67.71625368546381 0.5 L 69.31922612092761 0.5 L 69.31922612092761 3.5 L 76.31922612092761 0 L 69.31922612092761 -3.5 L 69.31922612092761 -0.5 L 67.71625368546381 -0.5 Z"/><text text-anchor="middle" pointer-events="none" font-size="8px" fill="#000000" x="47.159613060463805" y="3" font-family="sans-serif">ACTED…</text></g><g class="relationship" transform="translate(-84.99517324863241 88.7349876105653) rotate(277.97781141384064)"><path class="outline" fill="#A5ABB6" stroke="none" d="M 25 0.5 L 35.843857550137564 0.5 L 35.843857550137564 -0.5 L 25 -0.5 Z M 81.40635755013756 0.5 L 92.25021510027513 0.5 L 92.25021510027513 3.5 L 99.25021510027513 0 L 92.25021510027513 -3.5 L 92.25021510027513 -0.5 L 81.40635755013756 -0.5 Z"/><text text-anchor="middle" pointer-events="none" font-size="8px" fill="#000000" x="58.625107550137564" y="3" font-family="sans-serif">ACTED_IN</text></g></g><g class="layer nodes"><g class="node" transform="translate(154.68040314572823,264.8001621478088)"><circle class="outline" cx="0" cy="0" r="25" fill="#F79767" stroke="#f36924" stroke-width="2px"/><text text-anchor="middle" pointer-events="none" font-family="sans-serif" dy="1.5625" font-size="25" fill="#FFFFFF"/><text text-anchor="middle" pointer-events="none" font-family="sans-serif" dy="1.5625" font-size="25" fill="#FFFFFF"/><text text-anchor="middle" pointer-events="none" x="0" y="0" font-size="10px" fill="#FFFFFF" font-family="sans-serif"> Keanu</text><text text-anchor="middle" pointer-events="none" x="0" y="10" font-size="10px" fill="#FFFFFF" font-family="sans-serif"> Reeves</text></g><g class="node" transform="translate(273.2467212545007,230.20449055767952)"><circle class="outline" cx="0" cy="0" r="25" fill="#57C7E3" stroke="#23b3d7" stroke-width="2px"/><text text-anchor="middle" pointer-events="none" font-family="sans-serif" dy="1.5625" font-size="25" fill="#2A2C34"/><text text-anchor="middle" pointer-events="none" font-family="sans-serif" dy="1.5625" font-size="25" fill="#2A2C34"/><text text-anchor="middle" pointer-events="none" x="0" y="0" font-size="10px" fill="#2A2C34" font-family="sans-serif"> The</text><text text-anchor="middle" pointer-events="none" x="0" y="10" font-size="10px" fill="#2A2C34" font-family="sans-serif"> Matrix</text></g><g class="node" transform="translate(280.99381214975784,106.38493517658674)"><circle class="outline" cx="0" cy="0" r="25" fill="#F79767" stroke="#f36924" stroke-width="2px"/><text text-anchor="middle" pointer-events="none" font-family="sans-serif" dy="1.5625" font-size="25" fill="#FFFFFF"/><text text-anchor="middle" pointer-events="none" font-family="sans-serif" dy="1.5625" font-size="25" fill="#FFFFFF"/><text text-anchor="middle" pointer-events="none" x="0" y="0" font-size="10px" fill="#FFFFFF" font-family="sans-serif"> Hugo</text><text text-anchor="middle" pointer-events="none" x="0" y="10" font-size="10px" fill="#FFFFFF" font-family="sans-serif"> Weaving</text></g><g class="node" transform="translate(167.25612716390705,144.20984329517773)"><circle class="outline" cx="0" cy="0" r="25" fill="#57C7E3" stroke="#23b3d7" stroke-width="2px"/><text text-anchor="middle" pointer-events="none" font-family="sans-serif" dy="1.5625" font-size="25" fill="#2A2C34"/><text text-anchor="middle" pointer-events="none" font-family="sans-serif" dy="1.5625" font-size="25" fill="#2A2C34"/><text text-anchor="middle" pointer-events="none" font-family="sans-serif" dy="1.5625" font-size="25" fill="#2A2C34"/><text text-anchor="middle" pointer-events="none" x="0" y="-5" font-size="10px" fill="#2A2C34" font-family="sans-serif"> The</text><text text-anchor="middle" pointer-events="none" x="0" y="5" font-size="10px" fill="#2A2C34" font-family="sans-serif"> Matrix</text><text text-anchor="middle" pointer-events="none" x="0" y="15" font-size="10px" fill="#2A2C34" font-family="sans-serif"> Reloa…</text></g><g class="node" transform="translate(221.61189221401435,188.60171970045906)"><circle class="outline" cx="0" cy="0" r="25" fill="#57C7E3" stroke="#23b3d7" stroke-width="2px"/><text text-anchor="middle" pointer-events="none" font-family="sans-serif" dy="1.5625" font-size="25" fill="#2A2C34"/><text text-anchor="middle" pointer-events="none" font-family="sans-serif" dy="1.5625" font-size="25" fill="#2A2C34"/><text text-anchor="middle" pointer-events="none" font-family="sans-serif" dy="1.5625" font-size="25" fill="#2A2C34"/><text text-anchor="middle" pointer-events="none" x="0" y="-5" font-size="10px" fill="#2A2C34" font-family="sans-serif"> The</text><text text-anchor="middle" pointer-events="none" x="0" y="5" font-size="10px" fill="#2A2C34" font-family="sans-serif"> Matrix</text><text text-anchor="middle" pointer-events="none" x="0" y="15" font-size="10px" fill="#2A2C34" font-family="sans-serif"> Revol…</text></g><g class="node" transform="translate(52.518715536333865,-59.184508927354486)"><circle class="outline" cx="0" cy="0" r="25" fill="#F79767" stroke="#f36924" stroke-width="2px"/><text text-anchor="middle" pointer-events="none" font-family="sans-serif" dy="1.5625" font-size="25" fill="#FFFFFF"/><text text-anchor="middle" pointer-events="none" font-family="sans-serif" dy="1.5625" font-size="25" fill="#FFFFFF"/><text text-anchor="middle" pointer-events="none" x="0" y="0" font-size="10px" fill="#FFFFFF" font-family="sans-serif"> Keanu</text><text text-anchor="middle" pointer-events="none" x="0" y="10" font-size="10px" fill="#FFFFFF" font-family="sans-serif"> Reeves</text></g><g class="node" transform="translate(-67.75053615728434,-34.31272038943096)"><circle class="outline" cx="0" cy="0" r="25" fill="#57C7E3" stroke="#23b3d7" stroke-width="2px"/><text text-anchor="middle" pointer-events="none" font-family="sans-serif" dy="1.5625" font-size="25" fill="#2A2C34"/><text text-anchor="middle" pointer-events="none" font-family="sans-serif" dy="1.5625" font-size="25" fill="#2A2C34"/><text text-anchor="middle" pointer-events="none" x="0" y="0" font-size="10px" fill="#2A2C34" font-family="sans-serif"> The</text><text text-anchor="middle" pointer-events="none" x="0" y="10" font-size="10px" fill="#2A2C34" font-family="sans-serif"> Matrix</text></g><g class="node" transform="translate(-84.99517324863241,88.7349876105653)"><circle class="outline" cx="0" cy="0" r="25" fill="#F79767" stroke="#f36924" stroke-width="2px"/><text text-anchor="middle" pointer-events="none" font-family="sans-serif" dy="1.5625" font-size="25" fill="#FFFFFF"/><text text-anchor="middle" pointer-events="none" font-family="sans-serif" dy="1.5625" font-size="25" fill="#FFFFFF"/><text text-anchor="middle" pointer-events="none" x="0" y="0" font-size="10px" fill="#FFFFFF" font-family="sans-serif"> Hugo</text><text text-anchor="middle" pointer-events="none" x="0" y="10" font-size="10px" fill="#FFFFFF" font-family="sans-serif"> Weaving</text></g><g class="node" transform="translate(-19.141925171837833,11.735407744959458)"><circle class="outline" cx="0" cy="0" r="25" fill="#57C7E3" stroke="#23b3d7" stroke-width="2px"/><text text-anchor="middle" pointer-events="none" font-family="sans-serif" dy="1.5625" font-size="25" fill="#2A2C34"/><text text-anchor="middle" pointer-events="none" font-family="sans-serif" dy="1.5625" font-size="25" fill="#2A2C34"/><text text-anchor="middle" pointer-events="none" font-family="sans-serif" dy="1.5625" font-size="25" fill="#2A2C34"/><text text-anchor="middle" pointer-events="none" x="0" y="-5" font-size="10px" fill="#2A2C34" font-family="sans-serif"> The</text><text text-anchor="middle" pointer-events="none" x="0" y="5" font-size="10px" fill="#2A2C34" font-family="sans-serif"> Matrix</text><text text-anchor="middle" pointer-events="none" x="0" y="15" font-size="10px" fill="#2A2C34" font-family="sans-serif"> Reloa…</text></g><g class="node" transform="translate(30.266545281632958,61.099843744425314)"><circle class="outline" cx="0" cy="0" r="25" fill="#57C7E3" stroke="#23b3d7" stroke-width="2px"/><text text-anchor="middle" pointer-events="none" font-family="sans-serif" dy="1.5625" font-size="25" fill="#2A2C34"/><text text-anchor="middle" pointer-events="none" font-family="sans-serif" dy="1.5625" font-size="25" fill="#2A2C34"/><text text-anchor="middle" pointer-events="none" font-family="sans-serif" dy="1.5625" font-size="25" fill="#2A2C34"/><text text-anchor="middle" pointer-events="none" x="0" y="-5" font-size="10px" fill="#2A2C34" font-family="sans-serif"> The</text><text text-anchor="middle" pointer-events="none" x="0" y="5" font-size="10px" fill="#2A2C34" font-family="sans-serif"> Matrix</text><text text-anchor="middle" pointer-events="none" x="0" y="15" font-size="10px" fill="#2A2C34" font-family="sans-serif"> Revol…</text></g></g></svg>