<svg xmlns="http://www.w3.org/2000/svg" width="671.4481201171875" height="772.2259521484375" viewBox="-240.8193359375 -290.34912109375 671.4481201171875 772.2259521484375"><title>Neo4j Graph Visualization</title><desc>Created using Neo4j (http://www.neo4j.com/)</desc><g class="layer relationships"><g class="relationship" transform="translate(87.63887216304803 349.78598195779006) rotate(190.28286918545564)"><path class="outline" fill="#A5ABB6" stroke="none" d="M 25 0.5 L 34.60242408088124 0.5 L 34.60242408088124 -0.5 L 25 -0.5 Z M 80.16492408088124 0.5 L 89.76734816176248 0.5 L 89.76734816176248 3.5 L 96.76734816176248 0 L 89.76734816176248 -3.5 L 89.76734816176248 -0.5 L 80.16492408088124 -0.5 Z"/><text text-anchor="middle" pointer-events="none" font-size="8px" fill="#000000" x="57.38367408088124" y="3" transform="rotate(180 57.38367408088124 0)" font-family="sans-serif">ACTED_IN</text></g><g class="relationship" transform="translate(87.63887216304803 349.78598195779006) rotate(500.3422455117909)"><path class="outline" fill="#A5ABB6" stroke="none" d="M 25 0.5 L 34.81396614026975 0.5 L 34.81396614026975 -0.5 L 25 -0.5 Z M 80.37646614026974 0.5 L 90.1904322805395 0.5 L 90.1904322805395 3.5 L 97.1904322805395 0 L 90.1904322805395 -3.5 L 90.1904322805395 -0.5 L 80.37646614026974 -0.5 Z"/><text text-anchor="middle" pointer-events="none" font-size="8px" fill="#000000" x="57.59521614026975" y="3" transform="rotate(180 57.59521614026975 0)" font-family="sans-serif">ACTED_IN</text></g><g class="relationship" transform="translate(87.63887216304803 349.78598195779006) rotate(372.7193442946073)"><path class="outline" fill="#A5ABB6" stroke="none" d="M 25 0.5 L 25.479588620368716 0.5 L 25.479588620368716 -0.5 L 25 -0.5 Z M 66.59286987036872 0.5 L 67.07245849073743 0.5 L 67.07245849073743 3.5 L 74.07245849073743 0 L 67.07245849073743 -3.5 L 67.07245849073743 -0.5 L 66.59286987036872 -0.5 Z"/><text text-anchor="middle" pointer-events="none" font-size="8px" fill="#000000" x="46.036229245368716" y="3" font-family="sans-serif">ACTED…</text></g><g class="relationship" transform="translate(87.63887216304803 349.78598195779006) rotate(357.3722307983861)"><path class="outline" fill="#A5ABB6" stroke="none" d="M 25 0.5 L 48.25677324555643 0.5 L 48.25677324555643 -0.5 L 25 -0.5 Z M 93.81927324555643 0.5 L 117.07604649111286 0.5 L 117.07604649111286 3.5 L 124.07604649111286 0 L 117.07604649111286 -3.5 L 117.07604649111286 -0.5 L 93.81927324555643 -0.5 Z"/><text text-anchor="middle" pointer-events="none" font-size="8px" fill="#000000" x="71.03802324555643" y="3" font-family="sans-serif">ACTED_IN</text></g><g class="relationship" transform="translate(87.63887216304803 349.78598195779006) rotate(338.7584832545815)"><path class="outline" fill="#A5ABB6" stroke="none" d="M 25 0.5 L 26.170502592791173 0.5 L 26.170502592791173 -0.5 L 25 -0.5 Z M 71.73300259279117 0.5 L 72.90350518558235 0.5 L 72.90350518558235 3.5 L 79.90350518558235 0 L 72.90350518558235 -3.5 L 72.90350518558235 -0.5 L 71.73300259279117 -0.5 Z"/><text text-anchor="middle" pointer-events="none" font-size="8px" fill="#000000" x="48.95175259279117" y="3" font-family="sans-serif">ACTED_IN</text></g><g class="relationship" transform="translate(203.1561338082044 452.8767674349591) rotate(256.92530750816866)"><path class="outline" fill="#A5ABB6" stroke="none" d="M 25 0.5 L 25.66364272004762 0.5 L 25.66364272004762 -0.5 L 25 -0.5 Z M 50.77692397004762 0.5 L 51.44056669009524 0.5 L 51.44056669009524 3.5 L 58.44056669009524 0 L 51.44056669009524 -3.5 L 51.44056669009524 -0.5 L 50.77692397004762 -0.5 Z"/><text text-anchor="middle" pointer-events="none" font-size="8px" fill="#000000" x="38.22028334504762" y="3" transform="rotate(180 38.22028334504762 0)" font-family="sans-serif">AC…</text></g><g class="relationship" transform="translate(203.1561338082044 452.8767674349591) rotate(286.9019596709525)"><path class="outline" fill="#A5ABB6" stroke="none" d="M 25 0.5 L 31.162875600426304 0.5 L 31.162875600426304 -0.5 L 25 -0.5 Z M 76.7253756004263 0.5 L 82.88825120085261 0.5 L 82.88825120085261 3.5 L 89.88825120085261 0 L 82.88825120085261 -3.5 L 82.88825120085261 -0.5 L 76.7253756004263 -0.5 Z"/><text text-anchor="middle" pointer-events="none" font-size="8px" fill="#000000" x="53.944125600426304" y="3" font-family="sans-serif">ACTED_IN</text></g><g class="relationship" transform="translate(203.1561338082044 452.8767674349591) rotate(262.8335755799232)"><path class="outline" fill="#A5ABB6" stroke="none" d="M 25 0.5 L 44.822881959005244 0.5 L 44.822881959005244 -0.5 L 25 -0.5 Z M 90.38538195900524 0.5 L 110.20826391801049 0.5 L 110.20826391801049 3.5 L 117.20826391801049 0 L 110.20826391801049 -3.5 L 110.20826391801049 -0.5 L 90.38538195900524 -0.5 Z"/><text text-anchor="middle" pointer-events="none" font-size="8px" fill="#000000" x="67.60413195900524" y="3" transform="rotate(180 67.60413195900524 0)" font-family="sans-serif">ACTED_IN</text></g><g class="relationship" transform="translate(295.06792274592055 402.2629110810965) rotate(195.47090268233916)"><path class="outline" fill="#A5ABB6" stroke="none" d="M 25 0.5 L 31.195253123695075 0.5 L 31.195253123695075 -0.5 L 25 -0.5 Z M 76.75775312369507 0.5 L 82.95300624739015 0.5 L 82.95300624739015 3.5 L 89.95300624739015 0 L 82.95300624739015 -3.5 L 82.95300624739015 -0.5 L 76.75775312369507 -0.5 Z"/><text text-anchor="middle" pointer-events="none" font-size="8px" fill="#000000" x="53.976503123695075" y="3" transform="rotate(180 53.976503123695075 0)" font-family="sans-serif">ACTED_IN</text></g><g class="relationship" transform="translate(295.06792274592055 402.2629110810965) rotate(225.38994208740348)"><path class="outline" fill="#A5ABB6" stroke="none" d="M 25 0.5 L 25.60048070359837 0.5 L 25.60048070359837 -0.5 L 25 -0.5 Z M 50.71376195359837 0.5 L 51.31424265719674 0.5 L 51.31424265719674 3.5 L 58.31424265719674 0 L 51.31424265719674 -3.5 L 51.31424265719674 -0.5 L 50.71376195359837 -0.5 Z"/><text text-anchor="middle" pointer-events="none" font-size="8px" fill="#000000" x="38.15712132859837" y="3" transform="rotate(180 38.15712132859837 0)" font-family="sans-serif">AC…</text></g><g class="relationship" transform="translate(295.06792274592055 402.2629110810965) rotate(219.52889121506024)"><path class="outline" fill="#A5ABB6" stroke="none" d="M 25 0.5 L 44.8013362149494 0.5 L 44.8013362149494 -0.5 L 25 -0.5 Z M 90.3638362149494 0.5 L 110.1651724298988 0.5 L 110.1651724298988 3.5 L 117.1651724298988 0 L 110.1651724298988 -3.5 L 110.1651724298988 -0.5 L 90.3638362149494 -0.5 Z"/><text text-anchor="middle" pointer-events="none" font-size="8px" fill="#000000" x="67.5825862149494" y="3" transform="rotate(180 67.5825862149494 0)" font-family="sans-serif">ACTED_IN</text></g><g class="relationship" transform="translate(276.73346208770454 252.08906687370543) rotate(361.3789793696564)"><path class="outline" fill="#A5ABB6" stroke="none" d="M 25 0.5 L 36.18452051157469 0.5 L 36.18452051157469 -0.5 L 25 -0.5 Z M 81.74702051157469 0.5 L 92.93154102314938 0.5 L 92.93154102314938 3.5 L 99.93154102314938 0 L 92.93154102314938 -3.5 L 92.93154102314938 -0.5 L 81.74702051157469 -0.5 Z"/><text text-anchor="middle" pointer-events="none" font-size="8px" fill="#000000" x="58.96577051157469" y="3" font-family="sans-serif">ACTED_IN</text></g><g class="relationship" transform="translate(276.73346208770454 252.08906687370543) rotate(323.1143627094151)"><path class="outline" fill="#A5ABB6" stroke="none" d="M 25 0.5 L 39.49886542821427 0.5 L 39.49886542821427 -0.5 L 25 -0.5 Z M 85.06136542821427 0.5 L 99.56023085642855 0.5 L 99.56023085642855 3.5 L 106.56023085642855 0 L 99.56023085642855 -3.5 L 99.56023085642855 -0.5 L 85.06136542821427 -0.5 Z"/><text text-anchor="middle" pointer-events="none" font-size="8px" fill="#000000" x="62.28011542821427" y="3" font-family="sans-serif">ACTED_IN</text></g><g class="relationship" transform="translate(276.73346208770454 252.08906687370543) rotate(288.78848357582433)"><path class="outline" fill="#A5ABB6" stroke="none" d="M 25 0.5 L 37.66918712593603 0.5 L 37.66918712593603 -0.5 L 25 -0.5 Z M 83.23168712593602 0.5 L 95.90087425187205 0.5 L 95.90087425187205 3.5 L 102.90087425187205 0 L 95.90087425187205 -3.5 L 95.90087425187205 -0.5 L 83.23168712593602 -0.5 Z"/><text text-anchor="middle" pointer-events="none" font-size="8px" fill="#000000" x="60.45043712593603" y="3" font-family="sans-serif">ACTED_IN</text></g><g class="relationship" transform="translate(276.73346208770454 252.08906687370543) rotate(245.45873958352513)"><path class="outline" fill="#A5ABB6" stroke="none" d="M 25 0.5 L 32.6924781995585 0.5 L 32.6924781995585 -0.5 L 25 -0.5 Z M 78.25497819955851 0.5 L 85.947456399117 0.5 L 85.947456399117 3.5 L 92.947456399117 0 L 85.947456399117 -3.5 L 85.947456399117 -0.5 L 78.25497819955851 -0.5 Z"/><text text-anchor="middle" pointer-events="none" font-size="8px" fill="#000000" x="55.4737281995585" y="3" transform="rotate(180 55.4737281995585 0)" font-family="sans-serif">ACTED_IN</text></g><g class="relationship" transform="translate(276.73346208770454 252.08906687370543) rotate(487.7256006540227)"><path class="outline" fill="#A5ABB6" stroke="none" d="M 25 0.5 L 49.267277786667776 0.5 L 49.267277786667776 -0.5 L 25 -0.5 Z M 94.82977778666778 0.5 L 119.09705557333555 0.5 L 119.09705557333555 3.5 L 126.09705557333555 0 L 119.09705557333555 -3.5 L 119.09705557333555 -0.5 L 94.82977778666778 -0.5 Z"/><text text-anchor="middle" pointer-events="none" font-size="8px" fill="#000000" x="72.04852778666778" y="3" transform="rotate(180 72.04852778666778 0)" font-family="sans-serif">ACTED_IN</text></g><g class="relationship" transform="translate(276.73346208770454 252.08906687370543) rotate(473.85292319085937)"><path class="outline" fill="#A5ABB6" stroke="none" d="M 25 0.5 L 25.617283399895044 0.5 L 25.617283399895044 -0.5 L 25 -0.5 Z M 66.73056464989504 0.5 L 67.34784804979009 0.5 L 67.34784804979009 3.5 L 74.34784804979009 0 L 67.34784804979009 -3.5 L 67.34784804979009 -0.5 L 66.73056464989504 -0.5 Z"/><text text-anchor="middle" pointer-events="none" font-size="8px" fill="#000000" x="46.173924024895044" y="3" transform="rotate(180 46.173924024895044 0)" font-family="sans-serif">ACTED…</text></g><g class="relationship" transform="translate(276.73346208770454 252.08906687370543) rotate(506.829223568702)"><path class="outline" fill="#A5ABB6" stroke="none" d="M 25 0.5 L 28.26673379844746 0.5 L 28.26673379844746 -0.5 L 25 -0.5 Z M 73.82923379844746 0.5 L 77.09596759689492 0.5 L 77.09596759689492 3.5 L 84.09596759689492 0 L 77.09596759689492 -3.5 L 77.09596759689492 -0.5 L 73.82923379844746 -0.5 Z"/><text text-anchor="middle" pointer-events="none" font-size="8px" fill="#000000" x="51.04798379844746" y="3" transform="rotate(180 51.04798379844746 0)" font-family="sans-serif">ACTED_IN</text></g><g class="relationship" transform="translate(-16.718691409467063 -40.33630742005313) rotate(284.1751322125139)"><path class="outline" fill="#A5ABB6" stroke="none" d="M 25 0.5 L 26.10868792240386 0.5 L 26.10868792240386 -0.5 L 25 -0.5 Z M 67.22196917240386 0.5 L 68.33065709480772 0.5 L 68.33065709480772 3.5 L 75.33065709480772 0 L 68.33065709480772 -3.5 L 68.33065709480772 -0.5 L 67.22196917240386 -0.5 Z"/><text text-anchor="middle" pointer-events="none" font-size="8px" fill="#000000" x="46.66532854740386" y="3" font-family="sans-serif">ACTED…</text></g><g class="relationship" transform="translate(-16.718691409467063 -40.33630742005313) rotate(261.88711308915765)"><path class="outline" fill="#A5ABB6" stroke="none" d="M 25 0.5 L 43.28084307884107 0.5 L 43.28084307884107 -0.5 L 25 -0.5 Z M 88.84334307884107 0.5 L 107.12418615768215 0.5 L 107.12418615768215 3.5 L 114.12418615768215 0 L 107.12418615768215 -3.5 L 107.12418615768215 -0.5 L 88.84334307884107 -0.5 Z"/><text text-anchor="middle" pointer-events="none" font-size="8px" fill="#000000" x="66.06209307884107" y="3" transform="rotate(180 66.06209307884107 0)" font-family="sans-serif">ACTED_IN</text></g><g class="relationship" transform="translate(-16.718691409467063 -40.33630742005313) rotate(320.47140117863415)"><path class="outline" fill="#A5ABB6" stroke="none" d="M 25 0.5 L 25.928452230567245 0.5 L 25.928452230567245 -0.5 L 25 -0.5 Z M 55.928452230567245 0.5 L 56.85690446113449 0.5 L 56.85690446113449 3.5 L 63.85690446113449 0 L 56.85690446113449 -3.5 L 56.85690446113449 -0.5 L 55.928452230567245 -0.5 Z"/><text text-anchor="middle" pointer-events="none" font-size="8px" fill="#000000" x="40.928452230567245" y="3" font-family="sans-serif">ACT…</text></g><g class="relationship" transform="translate(42.10620202720541 -234.47366371816656) rotate(445.96257813286707)"><path class="outline" fill="#A5ABB6" stroke="none" d="M 25 0.5 L 42.681495586312806 0.5 L 42.681495586312806 -0.5 L 25 -0.5 Z M 88.2439955863128 0.5 L 105.92549117262561 0.5 L 105.92549117262561 3.5 L 112.92549117262561 0 L 105.92549117262561 -3.5 L 105.92549117262561 -0.5 L 88.2439955863128 -0.5 Z"/><text text-anchor="middle" pointer-events="none" font-size="8px" fill="#000000" x="65.4627455863128" y="3" font-family="sans-serif">ACTED_IN</text></g><g class="relationship" transform="translate(42.10620202720541 -234.47366371816656) rotate(469.476223390835)"><path class="outline" fill="#A5ABB6" stroke="none" d="M 25 0.5 L 25.088953655298674 0.5 L 25.088953655298674 -0.5 L 25 -0.5 Z M 70.65145365529867 0.5 L 70.74040731059735 0.5 L 70.74040731059735 3.5 L 77.74040731059735 0 L 70.74040731059735 -3.5 L 70.74040731059735 -0.5 L 70.65145365529867 -0.5 Z"/><text text-anchor="middle" pointer-events="none" font-size="8px" fill="#000000" x="47.870203655298674" y="3" transform="rotate(180 47.870203655298674 0)" font-family="sans-serif">ACTED_IN</text></g><g class="relationship" transform="translate(42.10620202720541 -234.47366371816656) rotate(504.2868642913023)"><path class="outline" fill="#A5ABB6" stroke="none" d="M 25 0.5 L 27.146994311861363 0.5 L 27.146994311861363 -0.5 L 25 -0.5 Z M 62.48293181186136 0.5 L 64.62992612372273 0.5 L 64.62992612372273 3.5 L 71.62992612372273 0 L 64.62992612372273 -3.5 L 64.62992612372273 -0.5 L 62.48293181186136 -0.5 Z"/><text text-anchor="middle" pointer-events="none" font-size="8px" fill="#000000" x="44.81496306186136" y="3" transform="rotate(180 44.81496306186136 0)" font-family="sans-serif">ACTE…</text></g><g class="relationship" transform="translate(-91.75839641399153 -81.16560067760827) rotate(330.4607053179003)"><path class="outline" fill="#A5ABB6" stroke="none" d="M 25 0.5 L 30.96432654293485 0.5 L 30.96432654293485 -0.5 L 25 -0.5 Z M 76.52682654293486 0.5 L 82.4911530858697 0.5 L 82.4911530858697 3.5 L 89.4911530858697 0 L 82.4911530858697 -3.5 L 82.4911530858697 -0.5 L 76.52682654293486 -0.5 Z"/><text text-anchor="middle" pointer-events="none" font-size="8px" fill="#000000" x="53.74557654293485" y="3" font-family="sans-serif">ACTED_IN</text></g><g class="relationship" transform="translate(-91.75839641399153 -81.16560067760827) rotate(484.41397519164576)"><path class="outline" fill="#A5ABB6" stroke="none" d="M 25 0.5 L 40.402394002828714 0.5 L 40.402394002828714 -0.5 L 25 -0.5 Z M 85.96489400282871 0.5 L 101.36728800565743 0.5 L 101.36728800565743 3.5 L 108.36728800565743 0 L 101.36728800565743 -3.5 L 101.36728800565743 -0.5 L 85.96489400282871 -0.5 Z"/><text text-anchor="middle" pointer-events="none" font-size="8px" fill="#000000" x="63.183644002828714" y="3" transform="rotate(180 63.183644002828714 0)" font-family="sans-serif">ACTED_IN</text></g><g class="relationship" transform="translate(-91.75839641399153 -81.16560067760827) rotate(202.0806689845362)"><path class="outline" fill="#A5ABB6" stroke="none" d="M 25 0.5 L 34.23807295582938 0.5 L 34.23807295582938 -0.5 L 25 -0.5 Z M 79.80057295582938 0.5 L 89.03864591165876 0.5 L 89.03864591165876 3.5 L 96.03864591165876 0 L 89.03864591165876 -3.5 L 89.03864591165876 -0.5 L 79.80057295582938 -0.5 Z"/><text text-anchor="middle" pointer-events="none" font-size="8px" fill="#000000" x="57.01932295582938" y="3" transform="rotate(180 57.01932295582938 0)" font-family="sans-serif">ACTED_IN</text></g><g class="relationship" transform="translate(-91.75839641399153 -81.16560067760827) rotate(518.6024350750761)"><path class="outline" fill="#A5ABB6" stroke="none" d="M 25 0.5 L 38.19337100837144 0.5 L 38.19337100837144 -0.5 L 25 -0.5 Z M 83.75587100837144 0.5 L 96.94924201674289 0.5 L 96.94924201674289 3.5 L 103.94924201674289 0 L 96.94924201674289 -3.5 L 96.94924201674289 -0.5 L 83.75587100837144 -0.5 Z"/><text text-anchor="middle" pointer-events="none" font-size="8px" fill="#000000" x="60.97462100837144" y="3" transform="rotate(180 60.97462100837144 0)" font-family="sans-serif">ACTED_IN</text></g><g class="relationship" transform="translate(-91.75839641399153 -81.16560067760827) rotate(299.75962496355555)"><path class="outline" fill="#A5ABB6" stroke="none" d="M 25 0.5 L 29.530756646486992 0.5 L 29.530756646486992 -0.5 L 25 -0.5 Z M 75.09325664648699 0.5 L 79.62401329297398 0.5 L 79.62401329297398 3.5 L 86.62401329297398 0 L 79.62401329297398 -3.5 L 79.62401329297398 -0.5 L 75.09325664648699 -0.5 Z"/><text text-anchor="middle" pointer-events="none" font-size="8px" fill="#000000" x="52.31200664648699" y="3" font-family="sans-serif">ACTED_IN</text></g><g class="relationship" transform="translate(-91.75839641399153 -81.16560067760827) rotate(448.85092535435035)"><path class="outline" fill="#A5ABB6" stroke="none" d="M 25 0.5 L 38.168530129242086 0.5 L 38.168530129242086 -0.5 L 25 -0.5 Z M 83.73103012924209 0.5 L 96.89956025848417 0.5 L 96.89956025848417 3.5 L 103.89956025848417 0 L 96.89956025848417 -3.5 L 96.89956025848417 -0.5 L 83.73103012924209 -0.5 Z"/><text text-anchor="middle" pointer-events="none" font-size="8px" fill="#000000" x="60.949780129242086" y="3" font-family="sans-serif">ACTED_IN</text></g><g class="relationship" transform="translate(-91.75839641399153 -81.16560067760827) rotate(353.7496951903106)"><path class="outline" fill="#A5ABB6" stroke="none" d="M 25 0.5 L 45.93585426067834 0.5 L 45.93585426067834 -0.5 L 25 -0.5 Z M 91.49835426067834 0.5 L 112.43420852135668 0.5 L 112.43420852135668 3.5 L 119.43420852135668 0 L 112.43420852135668 -3.5 L 112.43420852135668 -0.5 L 91.49835426067834 -0.5 Z"/><text text-anchor="middle" pointer-events="none" font-size="8px" fill="#000000" x="68.71710426067834" y="3" font-family="sans-serif">ACTED_IN</text></g><g class="relationship" transform="translate(106.50980475938417 -185.59385242715024) rotate(536.984550296584)"><path class="outline" fill="#A5ABB6" stroke="none" d="M 25 0.5 L 45.2489138525456 0.5 L 45.2489138525456 -0.5 L 25 -0.5 Z M 90.8114138525456 0.5 L 111.0603277050912 0.5 L 111.0603277050912 3.5 L 118.0603277050912 0 L 111.0603277050912 -3.5 L 111.0603277050912 -0.5 L 90.8114138525456 -0.5 Z"/><text text-anchor="middle" pointer-events="none" font-size="8px" fill="#000000" x="68.0301638525456" y="3" transform="rotate(180 68.0301638525456 0)" font-family="sans-serif">ACTED_IN</text></g><g class="relationship" transform="translate(106.50980475938417 -185.59385242715024) rotate(320.7890739593044)"><path class="outline" fill="#A5ABB6" stroke="none" d="M 25 0.5 L 33.63492286534215 0.5 L 33.63492286534215 -0.5 L 25 -0.5 Z M 79.19742286534215 0.5 L 87.8323457306843 0.5 L 87.8323457306843 3.5 L 94.8323457306843 0 L 87.8323457306843 -3.5 L 87.8323457306843 -0.5 L 79.19742286534215 -0.5 Z"/><text text-anchor="middle" pointer-events="none" font-size="8px" fill="#000000" x="56.41617286534215" y="3" font-family="sans-serif">ACTED_IN</text></g><g class="relationship" transform="translate(106.50980475938417 -185.59385242715024) rotate(514.0644768178701)"><path class="outline" fill="#A5ABB6" stroke="none" d="M 25 0.5 L 28.57269857892345 0.5 L 28.57269857892345 -0.5 L 25 -0.5 Z M 74.13519857892345 0.5 L 77.7078971578469 0.5 L 77.7078971578469 3.5 L 84.7078971578469 0 L 77.7078971578469 -3.5 L 77.7078971578469 -0.5 L 74.13519857892345 -0.5 Z"/><text text-anchor="middle" pointer-events="none" font-size="8px" fill="#000000" x="51.35394857892345" y="3" transform="rotate(180 51.35394857892345 0)" font-family="sans-serif">ACTED_IN</text></g><g class="relationship" transform="translate(106.50980475938417 -185.59385242715024) rotate(371.77900968544964)"><path class="outline" fill="#A5ABB6" stroke="none" d="M 25 0.5 L 35.90805175413334 0.5 L 35.90805175413334 -0.5 L 25 -0.5 Z M 81.47055175413334 0.5 L 92.37860350826668 0.5 L 92.37860350826668 3.5 L 99.37860350826668 0 L 92.37860350826668 -3.5 L 92.37860350826668 -0.5 L 81.47055175413334 -0.5 Z"/><text text-anchor="middle" pointer-events="none" font-size="8px" fill="#000000" x="58.68930175413334" y="3" font-family="sans-serif">ACTED_IN</text></g><g class="relationship" transform="translate(106.50980475938417 -185.59385242715024) rotate(481.6570644810289)"><path class="outline" fill="#A5ABB6" stroke="none" d="M 25 0.5 L 25.8233689962193 0.5 L 25.8233689962193 -0.5 L 25 -0.5 Z M 71.3858689962193 0.5 L 72.2092379924386 0.5 L 72.2092379924386 3.5 L 79.2092379924386 0 L 72.2092379924386 -3.5 L 72.2092379924386 -0.5 L 71.3858689962193 -0.5 Z"/><text text-anchor="middle" pointer-events="none" font-size="8px" fill="#000000" x="48.6046189962193" y="3" transform="rotate(180 48.6046189962193 0)" font-family="sans-serif">ACTED_IN</text></g></g><g class="layer nodes"><g class="node" transform="translate(-32.172704119363075,328.0495317629706)"><circle class="outline" cx="0" cy="0" r="25" fill="#57C7E3" stroke="#23b3d7" stroke-width="2px"/><text text-anchor="middle" pointer-events="none" font-family="sans-serif" dy="1.5625" font-size="25" fill="#2A2C34"/><text text-anchor="middle" pointer-events="none" font-family="sans-serif" dy="1.5625" font-size="25" fill="#2A2C34"/><text text-anchor="middle" pointer-events="none" x="0" y="0" font-size="10px" fill="#2A2C34" font-family="sans-serif"> Cloud</text><text text-anchor="middle" pointer-events="none" x="0" y="10" font-size="10px" fill="#2A2C34" font-family="sans-serif"> Atlas</text></g><g class="node" transform="translate(185.4153928595047,311.7794377750196)"><circle class="outline" cx="0" cy="0" r="25" fill="#57C7E3" stroke="#23b3d7" stroke-width="2px"/><text text-anchor="middle" pointer-events="none" font-family="sans-serif" dy="1.5625" font-size="25" fill="#2A2C34"/><text text-anchor="middle" pointer-events="none" font-family="sans-serif" dy="1.5625" font-size="25" fill="#2A2C34"/><text text-anchor="middle" pointer-events="none" x="0" y="0" font-size="10px" fill="#2A2C34" font-family="sans-serif"> The</text><text text-anchor="middle" pointer-events="none" x="0" y="10" font-size="10px" fill="#2A2C34" font-family="sans-serif"> Matrix</text></g><g class="node" transform="translate(87.63887216304803,349.78598195779006)"><circle class="outline" cx="0" cy="0" r="25" fill="#F79767" stroke="#f36924" stroke-width="2px"/><text text-anchor="middle" pointer-events="none" font-family="sans-serif" dy="1.5625" font-size="25" fill="#FFFFFF"/><text text-anchor="middle" pointer-events="none" font-family="sans-serif" dy="1.5625" font-size="25" fill="#FFFFFF"/><text text-anchor="middle" pointer-events="none" x="0" y="0" font-size="10px" fill="#FFFFFF" font-family="sans-serif"> Hugo</text><text text-anchor="middle" pointer-events="none" x="0" y="10" font-size="10px" fill="#FFFFFF" font-family="sans-serif"> Weaving</text></g><g class="node" transform="translate(-6.431915556165962,427.7679583292035)"><circle class="outline" cx="0" cy="0" r="25" fill="#57C7E3" stroke="#23b3d7" stroke-width="2px"/><text text-anchor="middle" pointer-events="none" font-family="sans-serif" dy="1.5625" font-size="25" fill="#2A2C34"/><text text-anchor="middle" pointer-events="none" font-family="sans-serif" dy="1.5625" font-size="25" fill="#2A2C34"/><text text-anchor="middle" pointer-events="none" x="0" y="0" font-size="10px" fill="#2A2C34" font-family="sans-serif"> V for</text><text text-anchor="middle" pointer-events="none" x="0" y="10" font-size="10px" fill="#2A2C34" font-family="sans-serif"> Vendetta</text></g><g class="node" transform="translate(184.28011862931223,371.5993153308825)"><circle class="outline" cx="0" cy="0" r="25" fill="#57C7E3" stroke="#23b3d7" stroke-width="2px"/><text text-anchor="middle" pointer-events="none" font-family="sans-serif" dy="1.5625" font-size="25" fill="#2A2C34"/><text text-anchor="middle" pointer-events="none" font-family="sans-serif" dy="1.5625" font-size="25" fill="#2A2C34"/><text text-anchor="middle" pointer-events="none" font-family="sans-serif" dy="1.5625" font-size="25" fill="#2A2C34"/><text text-anchor="middle" pointer-events="none" x="0" y="-5" font-size="10px" fill="#2A2C34" font-family="sans-serif"> The</text><text text-anchor="middle" pointer-events="none" x="0" y="5" font-size="10px" fill="#2A2C34" font-family="sans-serif"> Matrix</text><text text-anchor="middle" pointer-events="none" x="0" y="15" font-size="10px" fill="#2A2C34" font-family="sans-serif"> Revol…</text></g><g class="node" transform="translate(236.5581602204336,342.95127041289896)"><circle class="outline" cx="0" cy="0" r="25" fill="#57C7E3" stroke="#23b3d7" stroke-width="2px"/><text text-anchor="middle" pointer-events="none" font-family="sans-serif" dy="1.5625" font-size="25" fill="#2A2C34"/><text text-anchor="middle" pointer-events="none" font-family="sans-serif" dy="1.5625" font-size="25" fill="#2A2C34"/><text text-anchor="middle" pointer-events="none" font-family="sans-serif" dy="1.5625" font-size="25" fill="#2A2C34"/><text text-anchor="middle" pointer-events="none" x="0" y="-5" font-size="10px" fill="#2A2C34" font-family="sans-serif"> The</text><text text-anchor="middle" pointer-events="none" x="0" y="5" font-size="10px" fill="#2A2C34" font-family="sans-serif"> Matrix</text><text text-anchor="middle" pointer-events="none" x="0" y="15" font-size="10px" fill="#2A2C34" font-family="sans-serif"> Reloa…</text></g><g class="node" transform="translate(203.1561338082044,452.8767674349591)"><circle class="outline" cx="0" cy="0" r="25" fill="#F79767" stroke="#f36924" stroke-width="2px"/><text text-anchor="middle" pointer-events="none" font-family="sans-serif" dy="1.5625" font-size="25" fill="#FFFFFF"/><text text-anchor="middle" pointer-events="none" font-family="sans-serif" dy="1.5625" font-size="25" fill="#FFFFFF"/><text text-anchor="middle" pointer-events="none" x="0" y="0" font-size="10px" fill="#FFFFFF" font-family="sans-serif"> Laurence</text><text text-anchor="middle" pointer-events="none" x="0" y="10" font-size="10px" fill="#FFFFFF" font-family="sans-serif"> Fishbur…</text></g><g class="node" transform="translate(295.06792274592055,402.2629110810965)"><circle class="outline" cx="0" cy="0" r="25" fill="#F79767" stroke="#f36924" stroke-width="2px"/><text text-anchor="middle" pointer-events="none" font-family="sans-serif" dy="1.5625" font-size="25" fill="#FFFFFF"/><text text-anchor="middle" pointer-events="none" x="0" y="5" font-size="10px" fill="#FFFFFF" font-family="sans-serif"> Carrie-A…</text></g><g class="node" transform="translate(401.6288212074115,255.0955952335073)"><circle class="outline" cx="0" cy="0" r="25" fill="#57C7E3" stroke="#23b3d7" stroke-width="2px"/><text text-anchor="middle" pointer-events="none" font-family="sans-serif" dy="1.5625" font-size="25" fill="#2A2C34"/><text text-anchor="middle" pointer-events="none" font-family="sans-serif" dy="1.5625" font-size="25" fill="#2A2C34"/><text text-anchor="middle" pointer-events="none" x="0" y="0" font-size="10px" fill="#2A2C34" font-family="sans-serif"> The</text><text text-anchor="middle" pointer-events="none" x="0" y="10" font-size="10px" fill="#2A2C34" font-family="sans-serif"> Replac…</text></g><g class="node" transform="translate(276.73346208770454,252.08906687370543)"><circle class="outline" cx="0" cy="0" r="25" fill="#F79767" stroke="#f36924" stroke-width="2px"/><text text-anchor="middle" pointer-events="none" font-family="sans-serif" dy="1.5625" font-size="25" fill="#FFFFFF"/><text text-anchor="middle" pointer-events="none" font-family="sans-serif" dy="1.5625" font-size="25" fill="#FFFFFF"/><text text-anchor="middle" pointer-events="none" x="0" y="0" font-size="10px" fill="#FFFFFF" font-family="sans-serif"> Keanu</text><text text-anchor="middle" pointer-events="none" x="0" y="10" font-size="10px" fill="#FFFFFF" font-family="sans-serif"> Reeves</text></g><g class="node" transform="translate(381.9599583638711,173.1240187546884)"><circle class="outline" cx="0" cy="0" r="25" fill="#57C7E3" stroke="#23b3d7" stroke-width="2px"/><text text-anchor="middle" pointer-events="none" font-family="sans-serif" dy="1.5625" font-size="25" fill="#2A2C34"/><text text-anchor="middle" pointer-events="none" font-family="sans-serif" dy="1.5625" font-size="25" fill="#2A2C34"/><text text-anchor="middle" pointer-events="none" x="0" y="0" font-size="10px" fill="#2A2C34" font-family="sans-serif"> Johnny</text><text text-anchor="middle" pointer-events="none" x="0" y="10" font-size="10px" fill="#2A2C34" font-family="sans-serif"> Mnemo…</text></g><g class="node" transform="translate(317.9271889438794,131.00351652977693)"><circle class="outline" cx="0" cy="0" r="25" fill="#57C7E3" stroke="#23b3d7" stroke-width="2px"/><text text-anchor="middle" pointer-events="none" font-family="sans-serif" dy="1.5625" font-size="25" fill="#2A2C34"/><text text-anchor="middle" pointer-events="none" x="0" y="5" font-size="10px" fill="#2A2C34" font-family="sans-serif"> Somethi…</text></g><g class="node" transform="translate(227.7441717700044,144.7967003922558)"><circle class="outline" cx="0" cy="0" r="25" fill="#57C7E3" stroke="#23b3d7" stroke-width="2px"/><text text-anchor="middle" pointer-events="none" font-family="sans-serif" dy="1.5625" font-size="25" fill="#2A2C34"/><text text-anchor="middle" pointer-events="none" font-family="sans-serif" dy="1.5625" font-size="25" fill="#2A2C34"/><text text-anchor="middle" pointer-events="none" font-family="sans-serif" dy="1.5625" font-size="25" fill="#2A2C34"/><text text-anchor="middle" pointer-events="none" x="0" y="-5" font-size="10px" fill="#2A2C34" font-family="sans-serif"> The</text><text text-anchor="middle" pointer-events="none" x="0" y="5" font-size="10px" fill="#2A2C34" font-family="sans-serif"> Devil's</text><text text-anchor="middle" pointer-events="none" x="0" y="15" font-size="10px" fill="#2A2C34" font-family="sans-serif"> Advoc…</text></g><g class="node" transform="translate(7.850942031324635,-137.61206938397208)"><circle class="outline" cx="0" cy="0" r="25" fill="#57C7E3" stroke="#23b3d7" stroke-width="2px"/><text text-anchor="middle" pointer-events="none" font-family="sans-serif" dy="1.5625" font-size="25" fill="#2A2C34"/><text text-anchor="middle" pointer-events="none" font-family="sans-serif" dy="1.5625" font-size="25" fill="#2A2C34"/><text text-anchor="middle" pointer-events="none" font-family="sans-serif" dy="1.5625" font-size="25" fill="#2A2C34"/><text text-anchor="middle" pointer-events="none" x="0" y="-5" font-size="10px" fill="#2A2C34" font-family="sans-serif"> The</text><text text-anchor="middle" pointer-events="none" x="0" y="5" font-size="10px" fill="#2A2C34" font-family="sans-serif"> Matrix</text><text text-anchor="middle" pointer-events="none" x="0" y="15" font-size="10px" fill="#2A2C34" font-family="sans-serif"> Reloa…</text></g><g class="node" transform="translate(51.81726036959738,-96.89046539409546)"><circle class="outline" cx="0" cy="0" r="25" fill="#57C7E3" stroke="#23b3d7" stroke-width="2px"/><text text-anchor="middle" pointer-events="none" font-family="sans-serif" dy="1.5625" font-size="25" fill="#2A2C34"/><text text-anchor="middle" pointer-events="none" font-family="sans-serif" dy="1.5625" font-size="25" fill="#2A2C34"/><text text-anchor="middle" pointer-events="none" x="0" y="0" font-size="10px" fill="#2A2C34" font-family="sans-serif"> The</text><text text-anchor="middle" pointer-events="none" x="0" y="10" font-size="10px" fill="#2A2C34" font-family="sans-serif"> Matrix</text></g><g class="node" transform="translate(-16.718691409467063,-40.33630742005313)"><circle class="outline" cx="0" cy="0" r="25" fill="#F79767" stroke="#f36924" stroke-width="2px"/><text text-anchor="middle" pointer-events="none" font-family="sans-serif" dy="1.5625" font-size="25" fill="#FFFFFF"/><text text-anchor="middle" pointer-events="none" font-family="sans-serif" dy="1.5625" font-size="25" fill="#FFFFFF"/><text text-anchor="middle" pointer-events="none" x="0" y="0" font-size="10px" fill="#FFFFFF" font-family="sans-serif"> Laurence</text><text text-anchor="middle" pointer-events="none" x="0" y="10" font-size="10px" fill="#FFFFFF" font-family="sans-serif"> Fishbur…</text></g><g class="node" transform="translate(-36.352439635076166,-178.0681305570856)"><circle class="outline" cx="0" cy="0" r="25" fill="#57C7E3" stroke="#23b3d7" stroke-width="2px"/><text text-anchor="middle" pointer-events="none" font-family="sans-serif" dy="1.5625" font-size="25" fill="#2A2C34"/><text text-anchor="middle" pointer-events="none" font-family="sans-serif" dy="1.5625" font-size="25" fill="#2A2C34"/><text text-anchor="middle" pointer-events="none" font-family="sans-serif" dy="1.5625" font-size="25" fill="#2A2C34"/><text text-anchor="middle" pointer-events="none" x="0" y="-5" font-size="10px" fill="#2A2C34" font-family="sans-serif"> The</text><text text-anchor="middle" pointer-events="none" x="0" y="5" font-size="10px" fill="#2A2C34" font-family="sans-serif"> Matrix</text><text text-anchor="middle" pointer-events="none" x="0" y="15" font-size="10px" fill="#2A2C34" font-family="sans-serif"> Revol…</text></g><g class="node" transform="translate(42.10620202720541,-234.47366371816656)"><circle class="outline" cx="0" cy="0" r="25" fill="#F79767" stroke="#f36924" stroke-width="2px"/><text text-anchor="middle" pointer-events="none" font-family="sans-serif" dy="1.5625" font-size="25" fill="#FFFFFF"/><text text-anchor="middle" pointer-events="none" x="0" y="5" font-size="10px" fill="#FFFFFF" font-family="sans-serif"> Carrie-A…</text></g><g class="node" transform="translate(-91.75839641399153,-81.16560067760827)"><circle class="outline" cx="0" cy="0" r="25" fill="#F79767" stroke="#f36924" stroke-width="2px"/><text text-anchor="middle" pointer-events="none" font-family="sans-serif" dy="1.5625" font-size="25" fill="#FFFFFF"/><text text-anchor="middle" pointer-events="none" font-family="sans-serif" dy="1.5625" font-size="25" fill="#FFFFFF"/><text text-anchor="middle" pointer-events="none" x="0" y="0" font-size="10px" fill="#FFFFFF" font-family="sans-serif"> Keanu</text><text text-anchor="middle" pointer-events="none" x="0" y="10" font-size="10px" fill="#FFFFFF" font-family="sans-serif"> Reeves</text></g><g class="node" transform="translate(-167.13335219843037,28.859167217979078)"><circle class="outline" cx="0" cy="0" r="25" fill="#57C7E3" stroke="#23b3d7" stroke-width="2px"/><text text-anchor="middle" pointer-events="none" font-family="sans-serif" dy="1.5625" font-size="25" fill="#2A2C34"/><text text-anchor="middle" pointer-events="none" font-family="sans-serif" dy="1.5625" font-size="25" fill="#2A2C34"/><text text-anchor="middle" pointer-events="none" x="0" y="0" font-size="10px" fill="#2A2C34" font-family="sans-serif"> The</text><text text-anchor="middle" pointer-events="none" x="0" y="10" font-size="10px" fill="#2A2C34" font-family="sans-serif"> Replac…</text></g><g class="node" transform="translate(-203.91952486018965,-126.6654366092175)"><circle class="outline" cx="0" cy="0" r="25" fill="#57C7E3" stroke="#23b3d7" stroke-width="2px"/><text text-anchor="middle" pointer-events="none" font-family="sans-serif" dy="1.5625" font-size="25" fill="#2A2C34"/><text text-anchor="middle" pointer-events="none" font-family="sans-serif" dy="1.5625" font-size="25" fill="#2A2C34"/><text text-anchor="middle" pointer-events="none" font-family="sans-serif" dy="1.5625" font-size="25" fill="#2A2C34"/><text text-anchor="middle" pointer-events="none" x="0" y="-5" font-size="10px" fill="#2A2C34" font-family="sans-serif"> The</text><text text-anchor="middle" pointer-events="none" x="0" y="5" font-size="10px" fill="#2A2C34" font-family="sans-serif"> Devil's</text><text text-anchor="middle" pointer-events="none" x="0" y="15" font-size="10px" fill="#2A2C34" font-family="sans-serif"> Advoc…</text></g><g class="node" transform="translate(-211.81933768981986,-34.12011846459837)"><circle class="outline" cx="0" cy="0" r="25" fill="#57C7E3" stroke="#23b3d7" stroke-width="2px"/><text text-anchor="middle" pointer-events="none" font-family="sans-serif" dy="1.5625" font-size="25" fill="#2A2C34"/><text text-anchor="middle" pointer-events="none" x="0" y="5" font-size="10px" fill="#2A2C34" font-family="sans-serif"> Somethi…</text></g><g class="node" transform="translate(-89.1734715011831,47.70803820182175)"><circle class="outline" cx="0" cy="0" r="25" fill="#57C7E3" stroke="#23b3d7" stroke-width="2px"/><text text-anchor="middle" pointer-events="none" font-family="sans-serif" dy="1.5625" font-size="25" fill="#2A2C34"/><text text-anchor="middle" pointer-events="none" font-family="sans-serif" dy="1.5625" font-size="25" fill="#2A2C34"/><text text-anchor="middle" pointer-events="none" x="0" y="0" font-size="10px" fill="#2A2C34" font-family="sans-serif"> Johnny</text><text text-anchor="middle" pointer-events="none" x="0" y="10" font-size="10px" fill="#2A2C34" font-family="sans-serif"> Mnemo…</text></g><g class="node" transform="translate(106.50980475938417,-185.59385242715024)"><circle class="outline" cx="0" cy="0" r="25" fill="#F79767" stroke="#f36924" stroke-width="2px"/><text text-anchor="middle" pointer-events="none" font-family="sans-serif" dy="1.5625" font-size="25" fill="#FFFFFF"/><text text-anchor="middle" pointer-events="none" font-family="sans-serif" dy="1.5625" font-size="25" fill="#FFFFFF"/><text text-anchor="middle" pointer-events="none" x="0" y="0" font-size="10px" fill="#FFFFFF" font-family="sans-serif"> Hugo</text><text text-anchor="middle" pointer-events="none" x="0" y="10" font-size="10px" fill="#FFFFFF" font-family="sans-serif"> Weaving</text></g><g class="node" transform="translate(199.3587761615308,-261.349113583598)"><circle class="outline" cx="0" cy="0" r="25" fill="#57C7E3" stroke="#23b3d7" stroke-width="2px"/><text text-anchor="middle" pointer-events="none" font-family="sans-serif" dy="1.5625" font-size="25" fill="#2A2C34"/><text text-anchor="middle" pointer-events="none" font-family="sans-serif" dy="1.5625" font-size="25" fill="#2A2C34"/><text text-anchor="middle" pointer-events="none" x="0" y="0" font-size="10px" fill="#2A2C34" font-family="sans-serif"> Cloud</text><text text-anchor="middle" pointer-events="none" x="0" y="10" font-size="10px" fill="#2A2C34" font-family="sans-serif"> Atlas</text></g><g class="node" transform="translate(228.26927351332247,-160.20352396481388)"><circle class="outline" cx="0" cy="0" r="25" fill="#57C7E3" stroke="#23b3d7" stroke-width="2px"/><text text-anchor="middle" pointer-events="none" font-family="sans-serif" dy="1.5625" font-size="25" fill="#2A2C34"/><text text-anchor="middle" pointer-events="none" font-family="sans-serif" dy="1.5625" font-size="25" fill="#2A2C34"/><text text-anchor="middle" pointer-events="none" x="0" y="0" font-size="10px" fill="#2A2C34" font-family="sans-serif"> V for</text><text text-anchor="middle" pointer-events="none" x="0" y="10" font-size="10px" fill="#2A2C34" font-family="sans-serif"> Vendetta</text></g></g></svg>