<svg xmlns="http://www.w3.org/2000/svg" width="509.75830078125" height="639.6900634765625" viewBox="-205.7965545654297 -221.27044677734375 509.75830078125 639.6900634765625"><title>Neo4j Graph Visualization</title><desc>Created using Neo4j (http://www.neo4j.com/)</desc><g class="layer relationships"><g class="relationship" transform="translate(165.60958552231324 389.4196385620471) rotate(247.04559644382522)"><path class="outline" fill="#A5ABB6" stroke="none" d="M 24.018736134675446,6.953439040707552 L 24.277555179777966,5.987513214418485 A 67.767932950417 67.767932950417 0 0 0 27.078632227407425,6.67452327802431 L 26.861146552317514,7.6505867908812775 A 68.767932950417 68.767932950417 0 0 1 24.018736134675446,6.953439040707552 Z M 54.201009758530994,8.172412025398373 L 54.020928398620356,7.188760306641811 A 67.767932950417 67.767932950417 0 0 0 56.846181164967405,6.6091377911193065 L 56.180866746949654,3.683841784699152 L 63.78275758295072,5.544286816814582 L 57.73326705565774,10.50953246634618 L 57.06795263763999,7.584236459926024 A 68.767932950417 68.767932950417 0 0 1 54.201009758530994,8.172412025398373"/><text text-anchor="middle" pointer-events="none" font-size="8px" fill="#000000" x="40.514420918800376" y="11.784217974753219" transform="rotate(180 40.514420918800376 8.784217974753219)" font-family="sans-serif">WR…</text></g><g class="relationship" transform="translate(165.60958552231324 389.4196385620471) rotate(247.04559644382522)"><path class="outline" fill="#A5ABB6" stroke="none" d="M 24.018736134675446,-6.953439040707552 L 24.277555179777966,-5.987513214418485 A 67.767932950417 67.767932950417 0 0 1 25.143645874010875,-6.213461896696813 L 24.89760707255053,-7.182721876359622 A 68.767932950417 68.767932950417 0 0 0 24.018736134675446,-6.953439040707552 Z M 56.18097253387261,-7.779815190075553 L 55.9720992255873,-6.801872481586983 A 67.767932950417 67.767932950417 0 0 1 56.846181164967405,-6.6091377911193065 L 56.180866746949654,-3.683841784699152 L 63.78275758295072,-5.544286816814582 L 57.73326705565774,-10.50953246634618 L 57.06795263763999,-7.584236459926024 A 68.767932950417 68.767932950417 0 0 0 56.18097253387261,-7.779815190075553"/><text text-anchor="middle" pointer-events="none" font-size="8px" fill="#000000" x="40.514420918800376" y="-5.7842179747532185" transform="rotate(180 40.514420918800376 -8.784217974753219)" font-family="sans-serif">PRO…</text></g><g class="relationship" transform="translate(165.60958552231324 389.4196385620471) rotate(194.87617301314742)"><path class="outline" fill="#A5ABB6" stroke="none" d="M 25 0.5 L 47.53064171426202 0.5 L 47.53064171426202 -0.5 L 25 -0.5 Z M 94.42126671426202 0.5 L 116.95190842852404 0.5 L 116.95190842852404 3.5 L 123.95190842852404 0 L 116.95190842852404 -3.5 L 116.95190842852404 -0.5 L 94.42126671426202 -0.5 Z"/><text text-anchor="middle" pointer-events="none" font-size="8px" fill="#000000" x="70.97595421426202" y="3" transform="rotate(180 70.97595421426202 0)" font-family="sans-serif">DIRECTED</text></g><g class="relationship" transform="translate(165.60958552231324 389.4196385620471) rotate(271.9421164538212)"><path class="outline" fill="#A5ABB6" stroke="none" d="M 25 0.5 L 52.8261173143311 0.5 L 52.8261173143311 -0.5 L 25 -0.5 Z M 99.7167423143311 0.5 L 127.5428596286622 0.5 L 127.5428596286622 3.5 L 134.5428596286622 0 L 127.5428596286622 -3.5 L 127.5428596286622 -0.5 L 99.7167423143311 -0.5 Z"/><text text-anchor="middle" pointer-events="none" font-size="8px" fill="#000000" x="76.2714298143311" y="3" font-family="sans-serif">DIRECTED</text></g><g class="relationship" transform="translate(165.60958552231324 389.4196385620471) rotate(281.9536235683905)"><path class="outline" fill="#A5ABB6" stroke="none" d="M 25 0.5 L 25.20558381960015 0.5 L 25.20558381960015 -0.5 L 25 -0.5 Z M 72.09620881960015 0.5 L 72.3017926392003 0.5 L 72.3017926392003 3.5 L 79.3017926392003 0 L 72.3017926392003 -3.5 L 72.3017926392003 -0.5 L 72.09620881960015 -0.5 Z"/><text text-anchor="middle" pointer-events="none" font-size="8px" fill="#000000" x="48.65089631960015" y="3" font-family="sans-serif">DIRECTED</text></g><g class="relationship" transform="translate(165.60958552231324 389.4196385620471) rotate(205.9517242172339)"><path class="outline" fill="#A5ABB6" stroke="none" d="M 25 0.5 L 26.775068534962806 0.5 L 26.775068534962806 -0.5 L 25 -0.5 Z M 59.888349784962806 0.5 L 61.66341831992561 0.5 L 61.66341831992561 3.5 L 68.66341831992561 0 L 61.66341831992561 -3.5 L 61.66341831992561 -0.5 L 59.888349784962806 -0.5 Z"/><text text-anchor="middle" pointer-events="none" font-size="8px" fill="#000000" x="43.331709159962806" y="3" transform="rotate(180 43.331709159962806 0)" font-family="sans-serif">DIRE…</text></g><g class="relationship" transform="translate(86.25365952510046 220.54323035442684) rotate(476.3138481181596)"><path class="outline" fill="#A5ABB6" stroke="none" d="M 25 0.5 L 46.58737224825704 0.5 L 46.58737224825704 -0.5 L 25 -0.5 Z M 92.14987224825704 0.5 L 113.73724449651408 0.5 L 113.73724449651408 3.5 L 120.73724449651408 0 L 113.73724449651408 -3.5 L 113.73724449651408 -0.5 L 92.14987224825704 -0.5 Z"/><text text-anchor="middle" pointer-events="none" font-size="8px" fill="#000000" x="69.36862224825704" y="3" transform="rotate(180 69.36862224825704 0)" font-family="sans-serif">ACTED_IN</text></g><g class="relationship" transform="translate(86.25365952510046 220.54323035442684) rotate(422.8499565890611)"><path class="outline" fill="#A5ABB6" stroke="none" d="M 25 0.5 L 25.221663063399724 0.5 L 25.221663063399724 -0.5 L 25 -0.5 Z M 66.33494431339972 0.5 L 66.55660737679945 0.5 L 66.55660737679945 3.5 L 73.55660737679945 0 L 66.55660737679945 -3.5 L 66.55660737679945 -0.5 L 66.33494431339972 -0.5 Z"/><text text-anchor="middle" pointer-events="none" font-size="8px" fill="#000000" x="45.778303688399724" y="3" font-family="sans-serif">ACTED…</text></g><g class="relationship" transform="translate(86.25365952510046 220.54323035442684) rotate(366.34493535854097)"><path class="outline" fill="#A5ABB6" stroke="none" d="M 25 0.5 L 26.585966567628 0.5 L 26.585966567628 -0.5 L 25 -0.5 Z M 51.699247817628 0.5 L 53.285214385256 0.5 L 53.285214385256 3.5 L 60.285214385256 0 L 53.285214385256 -3.5 L 53.285214385256 -0.5 L 51.699247817628 -0.5 Z"/><text text-anchor="middle" pointer-events="none" font-size="8px" fill="#000000" x="39.142607192628" y="3" font-family="sans-serif">AC…</text></g><g class="relationship" transform="translate(86.25365952510046 220.54323035442684) rotate(393.5051698785363)"><path class="outline" fill="#A5ABB6" stroke="none" d="M 25 0.5 L 34.257572811667075 0.5 L 34.257572811667075 -0.5 L 25 -0.5 Z M 79.82007281166707 0.5 L 89.07764562333415 0.5 L 89.07764562333415 3.5 L 96.07764562333415 0 L 89.07764562333415 -3.5 L 89.07764562333415 -0.5 L 79.82007281166707 -0.5 Z"/><text text-anchor="middle" pointer-events="none" font-size="8px" fill="#000000" x="57.038822811667075" y="3" font-family="sans-serif">ACTED_IN</text></g><g class="relationship" transform="translate(86.25365952510046 220.54323035442684) rotate(452.1775426013491)"><path class="outline" fill="#A5ABB6" stroke="none" d="M 25 0.5 L 37.70896513398848 0.5 L 37.70896513398848 -0.5 L 25 -0.5 Z M 83.27146513398847 0.5 L 95.98043026797696 0.5 L 95.98043026797696 3.5 L 102.98043026797696 0 L 95.98043026797696 -3.5 L 95.98043026797696 -0.5 L 83.27146513398847 -0.5 Z"/><text text-anchor="middle" pointer-events="none" font-size="8px" fill="#000000" x="60.49021513398848" y="3" transform="rotate(180 60.49021513398848 0)" font-family="sans-serif">ACTED_IN</text></g><g class="relationship" transform="translate(39.52386070364979 257.68163805738067) rotate(388.86920789893804)"><path class="outline" fill="#A5ABB6" stroke="none" d="M 24.018736134675446,6.953439040707552 L 24.277555179777966,5.987513214418485 A 101.13595156003063 101.13595156003063 0 0 0 31.130769436309194,7.570613020215703 L 30.93971278579356,8.552192031958384 A 102.13595156003063 102.13595156003063 0 0 1 24.018736134675446,6.953439040707552 Z M 66.69913361580187,9.133348332584475 L 66.5400743640929,8.146079294051518 A 101.13595156003063 101.13595156003063 0 0 0 73.44111237885028,6.786511362717801 L 72.75922884180383,3.8650331680524634 L 80.3715420892438,5.682362808720329 L 74.35029042824553,10.681815622271584 L 73.66840689119908,7.760337427606246 A 102.13595156003063 102.13595156003063 0 0 1 66.69913361580187,9.133348332584475"/><text text-anchor="middle" pointer-events="none" font-size="8px" fill="#000000" x="48.80191269873643" y="12.92021769764662" font-family="sans-serif">WROTE</text></g><g class="relationship" transform="translate(39.52386070364979 257.68163805738067) rotate(460.82256207804187)"><path class="outline" fill="#A5ABB6" stroke="none" d="M 25 0.5 L 27.538640127418844 0.5 L 27.538640127418844 -0.5 L 25 -0.5 Z M 60.651921377418844 0.5 L 63.19056150483769 0.5 L 63.19056150483769 3.5 L 70.19056150483769 0 L 63.19056150483769 -3.5 L 63.19056150483769 -0.5 L 60.651921377418844 -0.5 Z"/><text text-anchor="middle" pointer-events="none" font-size="8px" fill="#000000" x="44.095280752418844" y="3" transform="rotate(180 44.095280752418844 0)" font-family="sans-serif">DIRE…</text></g><g class="relationship" transform="translate(39.52386070364979 257.68163805738067) rotate(388.86920789893804)"><path class="outline" fill="#A5ABB6" stroke="none" d="M 24.018736134675446,-6.953439040707552 L 24.277555179777966,-5.987513214418485 A 101.13595156003063 101.13595156003063 0 0 1 24.876488654600806,-6.146032320800671 L 24.62359167247969,-7.113525533404271 A 102.13595156003063 102.13595156003063 0 0 0 24.018736134675446,-6.953439040707552 Z M 73.05866875521144,-7.900684541145225 L 72.83734411073652,-6.925484355671472 A 101.13595156003063 101.13595156003063 0 0 1 73.44111237885028,-6.786511362717801 L 72.75922884180383,-3.8650331680524634 L 80.3715420892438,-5.682362808720329 L 74.35029042824553,-10.681815622271584 L 73.66840689119908,-7.760337427606246 A 102.13595156003063 102.13595156003063 0 0 0 73.05866875521144,-7.900684541145225"/><text text-anchor="middle" pointer-events="none" font-size="8px" fill="#000000" x="48.80191269873641" y="-6.9202176976466205" font-family="sans-serif">PRODUC…</text></g><g class="relationship" transform="translate(39.52386070364979 257.68163805738067) rotate(348.0985917886894)"><path class="outline" fill="#A5ABB6" stroke="none" d="M 25 0.5 L 40.24532614805706 0.5 L 40.24532614805706 -0.5 L 25 -0.5 Z M 87.13595114805706 0.5 L 102.38127729611412 0.5 L 102.38127729611412 3.5 L 109.38127729611412 0 L 102.38127729611412 -3.5 L 102.38127729611412 -0.5 L 87.13595114805706 -0.5 Z"/><text text-anchor="middle" pointer-events="none" font-size="8px" fill="#000000" x="63.69063864805706" y="3" font-family="sans-serif">DIRECTED</text></g><g class="relationship" transform="translate(39.52386070364979 257.68163805738067) rotate(371.3696764852093)"><path class="outline" fill="#A5ABB6" stroke="none" d="M 25 0.5 L 48.37719325279318 0.5 L 48.37719325279318 -0.5 L 25 -0.5 Z M 95.26781825279318 0.5 L 118.64501150558635 0.5 L 118.64501150558635 3.5 L 125.64501150558635 0 L 118.64501150558635 -3.5 L 118.64501150558635 -0.5 L 95.26781825279318 -0.5 Z"/><text text-anchor="middle" pointer-events="none" font-size="8px" fill="#000000" x="71.82250575279318" y="3" font-family="sans-serif">DIRECTED</text></g><g class="relationship" transform="translate(39.52386070364979 257.68163805738067) rotate(425.2339150452689)"><path class="outline" fill="#A5ABB6" stroke="none" d="M 25 0.5 L 27.025528387310516 0.5 L 27.025528387310516 -0.5 L 25 -0.5 Z M 65.91615338731052 0.5 L 67.94168177462103 0.5 L 67.94168177462103 3.5 L 74.94168177462103 0 L 67.94168177462103 -3.5 L 67.94168177462103 -0.5 L 65.91615338731052 -0.5 Z"/><text text-anchor="middle" pointer-events="none" font-size="8px" fill="#000000" x="46.470840887310516" y="3" font-family="sans-serif">DIREC…</text></g><g class="relationship" transform="translate(-96.79236674695392 363.77065197137) rotate(353.9317018958718)"><path class="outline" fill="#A5ABB6" stroke="none" d="M 25 0.5 L 32.60963633575196 0.5 L 32.60963633575196 -0.5 L 25 -0.5 Z M 79.50026133575196 0.5 L 87.10989767150392 0.5 L 87.10989767150392 3.5 L 94.10989767150392 0 L 87.10989767150392 -3.5 L 87.10989767150392 -0.5 L 79.50026133575196 -0.5 Z"/><text text-anchor="middle" pointer-events="none" font-size="8px" fill="#000000" x="56.05494883575196" y="3" font-family="sans-serif">DIRECTED</text></g><g class="relationship" transform="translate(274.5873385625065 290.8434199307882) rotate(533.0809213095914)"><path class="outline" fill="#A5ABB6" stroke="none" d="M 25 0.5 L 45.26059504990663 0.5 L 45.26059504990663 -0.5 L 25 -0.5 Z M 92.15122004990663 0.5 L 112.41181509981325 0.5 L 112.41181509981325 3.5 L 119.41181509981325 0 L 112.41181509981325 -3.5 L 112.41181509981325 -0.5 L 92.15122004990663 -0.5 Z"/><text text-anchor="middle" pointer-events="none" font-size="8px" fill="#000000" x="68.70590754990663" y="3" transform="rotate(180 68.70590754990663 0)" font-family="sans-serif">DIRECTED</text></g><g class="relationship" transform="translate(62.68973582355751 -49.469852304872944) rotate(532.8407240775596)"><path class="outline" fill="#A5ABB6" stroke="none" d="M 25 0.5 L 26.849693751416126 0.5 L 26.849693751416126 -0.5 L 25 -0.5 Z M 65.74031875141613 0.5 L 67.59001250283225 0.5 L 67.59001250283225 3.5 L 74.59001250283225 0 L 67.59001250283225 -3.5 L 67.59001250283225 -0.5 L 65.74031875141613 -0.5 Z"/><text text-anchor="middle" pointer-events="none" font-size="8px" fill="#000000" x="46.295006251416126" y="3" transform="rotate(180 46.295006251416126 0)" font-family="sans-serif">DIREC…</text></g><g class="relationship" transform="translate(62.68973582355751 -49.469852304872944) rotate(200.2706332875003)"><path class="outline" fill="#A5ABB6" stroke="none" d="M 24.018736134675446,-6.953439040707552 L 24.277555179777966,-5.987513214418485 A 166.9749546029923 166.9749546029923 0 0 1 39.71889024658741,-9.350769353140208 L 39.55254815471134,-10.336837458531676 A 167.9749546029923 167.9749546029923 0 0 0 24.018736134675446,-6.953439040707552 Z M 91.27771003083701,-10.984723729489929 L 91.13611834771444,-9.994798583193244 A 166.9749546029923 166.9749546029923 0 0 1 106.6568490798824,-7.0193594492728195 L 105.95321668746456,-4.103043030168002 L 113.57885945652995,-5.863603270148665 L 107.5950256031062,-10.907781341412576 L 106.89139321068835,-7.99146492230776 A 167.9749546029923 167.9749546029923 0 0 0 91.27771003083701,-10.984723729489929"/><text text-anchor="middle" pointer-events="none" font-size="8px" fill="#000000" x="65.39630155480609" y="-9.163910838903917" transform="rotate(180 65.39630155480609 -12.163910838903917)" font-family="sans-serif">PRODUCED</text></g><g class="relationship" transform="translate(62.68973582355751 -49.469852304872944) rotate(200.2706332875003)"><path class="outline" fill="#A5ABB6" stroke="none" d="M 24.018736134675446,6.953439040707552 L 24.277555179777966,5.987513214418485 A 166.9749546029923 166.9749546029923 0 0 0 47.61644245136416,10.489679195642793 L 47.49739818462332,11.48256814338879 A 167.9749546029923 167.9749546029923 0 0 1 24.018736134675446,6.953439040707552 Z M 83.30665521756477,11.931098900245928 L 83.21251736368782,10.935539728489971 A 166.9749546029923 166.9749546029923 0 0 0 106.6568490798824,7.0193594492728195 L 105.95321668746456,4.103043030168002 L 113.57885945652995,5.863603270148665 L 107.5950256031062,10.907781341412576 L 106.89139321068835,7.99146492230776 A 167.9749546029923 167.9749546029923 0 0 1 83.30665521756477,11.931098900245928"/><text text-anchor="middle" pointer-events="none" font-size="8px" fill="#000000" x="65.39630155480613" y="15.163910838903917" transform="rotate(180 65.39630155480613 12.163910838903917)" font-family="sans-serif">WROTE</text></g><g class="relationship" transform="translate(62.68973582355751 -49.469852304872944) rotate(337.4137090554848)"><path class="outline" fill="#A5ABB6" stroke="none" d="M 25 0.5 L 27.002662966204078 0.5 L 27.002662966204078 -0.5 L 25 -0.5 Z M 60.11594421620408 0.5 L 62.118607182408155 0.5 L 62.118607182408155 3.5 L 69.11860718240816 0 L 62.118607182408155 -3.5 L 62.118607182408155 -0.5 L 60.11594421620408 -0.5 Z"/><text text-anchor="middle" pointer-events="none" font-size="8px" fill="#000000" x="43.55930359120408" y="3" font-family="sans-serif">DIRE…</text></g><g class="relationship" transform="translate(62.68973582355751 -49.469852304872944) rotate(307.4215250155729)"><path class="outline" fill="#A5ABB6" stroke="none" d="M 25 0.5 L 32.816117420007515 0.5 L 32.816117420007515 -0.5 L 25 -0.5 Z M 79.70674242000752 0.5 L 87.52285984001503 0.5 L 87.52285984001503 3.5 L 94.52285984001503 0 L 87.52285984001503 -3.5 L 87.52285984001503 -0.5 L 79.70674242000752 -0.5 Z"/><text text-anchor="middle" pointer-events="none" font-size="8px" fill="#000000" x="56.261429920007515" y="3" font-family="sans-serif">DIRECTED</text></g><g class="relationship" transform="translate(62.68973582355751 -49.469852304872944) rotate(284.3466807938369)"><path class="outline" fill="#A5ABB6" stroke="none" d="M 25 0.5 L 46.753338672607526 0.5 L 46.753338672607526 -0.5 L 25 -0.5 Z M 93.64396367260753 0.5 L 115.39730234521505 0.5 L 115.39730234521505 3.5 L 122.39730234521505 0 L 115.39730234521505 -3.5 L 115.39730234521505 -0.5 L 93.64396367260753 -0.5 Z"/><text text-anchor="middle" pointer-events="none" font-size="8px" fill="#000000" x="70.19865117260753" y="3" font-family="sans-serif">DIRECTED</text></g><g class="relationship" transform="translate(40.45149788160092 -105.13615718863987) rotate(303.99492060917373)"><path class="outline" fill="#A5ABB6" stroke="none" d="M 25 0.5 L 26.2670805366242 0.5 L 26.2670805366242 -0.5 L 25 -0.5 Z M 71.8295805366242 0.5 L 73.0966610732484 0.5 L 73.0966610732484 3.5 L 80.0966610732484 0 L 73.0966610732484 -3.5 L 73.0966610732484 -0.5 L 71.8295805366242 -0.5 Z"/><text text-anchor="middle" pointer-events="none" font-size="8px" fill="#000000" x="49.0483305366242" y="3" font-family="sans-serif">ACTED_IN</text></g><g class="relationship" transform="translate(40.45149788160092 -105.13615718863987) rotate(370.13932353198066)"><path class="outline" fill="#A5ABB6" stroke="none" d="M 25 0.5 L 29.153573085335054 0.5 L 29.153573085335054 -0.5 L 25 -0.5 Z M 74.71607308533505 0.5 L 78.86964617067011 0.5 L 78.86964617067011 3.5 L 85.86964617067011 0 L 78.86964617067011 -3.5 L 78.86964617067011 -0.5 L 74.71607308533505 -0.5 Z"/><text text-anchor="middle" pointer-events="none" font-size="8px" fill="#000000" x="51.934823085335054" y="3" font-family="sans-serif">ACTED_IN</text></g><g class="relationship" transform="translate(40.45149788160092 -105.13615718863987) rotate(498.3618391587516)"><path class="outline" fill="#A5ABB6" stroke="none" d="M 25 0.5 L 27.17419997782759 0.5 L 27.17419997782759 -0.5 L 25 -0.5 Z M 68.28748122782758 0.5 L 70.46168120565518 0.5 L 70.46168120565518 3.5 L 77.46168120565518 0 L 70.46168120565518 -3.5 L 70.46168120565518 -0.5 L 68.28748122782758 -0.5 Z"/><text text-anchor="middle" pointer-events="none" font-size="8px" fill="#000000" x="47.73084060282759" y="3" transform="rotate(180 47.73084060282759 0)" font-family="sans-serif">ACTED…</text></g><g class="relationship" transform="translate(40.45149788160092 -105.13615718863987) rotate(535.7833063257644)"><path class="outline" fill="#A5ABB6" stroke="none" d="M 25 0.5 L 27.415999720688582 0.5 L 27.415999720688582 -0.5 L 25 -0.5 Z M 72.97849972068857 0.5 L 75.39449944137716 0.5 L 75.39449944137716 3.5 L 82.39449944137716 0 L 75.39449944137716 -3.5 L 75.39449944137716 -0.5 L 72.97849972068857 -0.5 Z"/><text text-anchor="middle" pointer-events="none" font-size="8px" fill="#000000" x="50.19724972068858" y="3" transform="rotate(180 50.19724972068858 0)" font-family="sans-serif">ACTED_IN</text></g><g class="relationship" transform="translate(40.45149788160092 -105.13615718863987) rotate(337.52010065049194)"><path class="outline" fill="#A5ABB6" stroke="none" d="M 25 0.5 L 25.054135204199596 0.5 L 25.054135204199596 -0.5 L 25 -0.5 Z M 70.6166352041996 0.5 L 70.67077040839919 0.5 L 70.67077040839919 3.5 L 77.67077040839919 0 L 70.67077040839919 -3.5 L 70.67077040839919 -0.5 L 70.6166352041996 -0.5 Z"/><text text-anchor="middle" pointer-events="none" font-size="8px" fill="#000000" x="47.835385204199596" y="3" font-family="sans-serif">ACTED_IN</text></g><g class="relationship" transform="translate(17.20969749585446 -160.41016838328702) rotate(503.01043689177027)"><path class="outline" fill="#A5ABB6" stroke="none" d="M 24.018736134675446,-6.953439040707552 L 24.277555179777966,-5.987513214418485 A 101.68646527304641 101.68646527304641 0 0 1 31.266707380405357,-7.598378040981956 L 31.076620709683837,-8.580145354358194 A 102.68646527304641 102.68646527304641 0 0 0 24.018736134675446,-6.953439040707552 Z M 66.83710926902165,-9.159888939078158 L 66.67894665037237,-8.172475861353348 A 101.68646527304641 101.68646527304641 0 0 1 73.71664244835279,-6.78901215453525 L 73.03452531414015,-3.8675884921381747 L 80.64698384964807,-5.68430945177195 L 74.62613196063629,-10.684243704398018 L 73.94401482642365,-7.762820042000943 A 102.68646527304641 102.68646527304641 0 0 0 66.83710926902165,-9.159888939078158"/><text text-anchor="middle" pointer-events="none" font-size="8px" fill="#000000" x="48.93953529502227" y="-6.938969614973743" transform="rotate(180 48.93953529502227 -9.938969614973743)" font-family="sans-serif">WROTE</text></g><g class="relationship" transform="translate(17.20969749585446 -160.41016838328702) rotate(473.38213283305555)"><path class="outline" fill="#A5ABB6" stroke="none" d="M 25 0.5 L 40.24878429563027 0.5 L 40.24878429563027 -0.5 L 25 -0.5 Z M 87.13940929563027 0.5 L 102.38819359126055 0.5 L 102.38819359126055 3.5 L 109.38819359126055 0 L 102.38819359126055 -3.5 L 102.38819359126055 -0.5 L 87.13940929563027 -0.5 Z"/><text text-anchor="middle" pointer-events="none" font-size="8px" fill="#000000" x="63.69409679563027" y="3" transform="rotate(180 63.69409679563027 0)" font-family="sans-serif">DIRECTED</text></g><g class="relationship" transform="translate(17.20969749585446 -160.41016838328702) rotate(367.72270089176516)"><path class="outline" fill="#A5ABB6" stroke="none" d="M 25 0.5 L 32.6507223337847 0.5 L 32.6507223337847 -0.5 L 25 -0.5 Z M 79.5413473337847 0.5 L 87.1920696675694 0.5 L 87.1920696675694 3.5 L 94.1920696675694 0 L 87.1920696675694 -3.5 L 87.1920696675694 -0.5 L 79.5413473337847 -0.5 Z"/><text text-anchor="middle" pointer-events="none" font-size="8px" fill="#000000" x="56.0960348337847" y="3" font-family="sans-serif">DIRECTED</text></g><g class="relationship" transform="translate(17.20969749585446 -160.41016838328702) rotate(338.7676587778567)"><path class="outline" fill="#A5ABB6" stroke="none" d="M 25 0.5 L 26.598917918035525 0.5 L 26.598917918035525 -0.5 L 25 -0.5 Z M 54.376261668035525 0.5 L 55.97517958607105 0.5 L 55.97517958607105 3.5 L 62.97517958607105 0 L 55.97517958607105 -3.5 L 55.97517958607105 -0.5 L 54.376261668035525 -0.5 Z"/><text text-anchor="middle" pointer-events="none" font-size="8px" fill="#000000" x="40.487589793035525" y="3" font-family="sans-serif">DIR…</text></g><g class="relationship" transform="translate(17.20969749585446 -160.41016838328702) rotate(503.01043689177027)"><path class="outline" fill="#A5ABB6" stroke="none" d="M 24.018736134675446,6.953439040707552 L 24.277555179777966,5.987513214418485 A 101.68646527304641 101.68646527304641 0 0 0 25.01060187213259,6.181006461321601 L 24.758991718502365,7.1488351293151595 A 102.68646527304641 102.68646527304641 0 0 1 24.018736134675446,6.953439040707552 Z M 73.1978144557367,7.93411793345534 L 72.97770886174203,6.958641881728667 A 101.68646527304641 101.68646527304641 0 0 0 73.71664244835279,6.78901215453525 L 73.03452531414015,3.8675884921381747 L 80.64698384964807,5.68430945177195 L 74.62613196063629,10.684243704398018 L 73.94401482642365,7.762820042000943 A 102.68646527304641 102.68646527304641 0 0 1 73.1978144557367,7.93411793345534"/><text text-anchor="middle" pointer-events="none" font-size="8px" fill="#000000" x="48.939535295022274" y="12.938969614973743" transform="rotate(180 48.939535295022274 9.938969614973743)" font-family="sans-serif">PRODUC…</text></g><g class="relationship" transform="translate(17.20969749585446 -160.41016838328702) rotate(389.4654952823995)"><path class="outline" fill="#A5ABB6" stroke="none" d="M 25 0.5 L 49.078137010676215 0.5 L 49.078137010676215 -0.5 L 25 -0.5 Z M 95.96876201067622 0.5 L 120.04689902135243 0.5 L 120.04689902135243 3.5 L 127.04689902135243 0 L 120.04689902135243 -3.5 L 120.04689902135243 -0.5 L 95.96876201067622 -0.5 Z"/><text text-anchor="middle" pointer-events="none" font-size="8px" fill="#000000" x="72.52344951067622" y="3" font-family="sans-serif">DIRECTED</text></g><g class="relationship" transform="translate(274.9617404753083 -71.13960574088154) rotate(186.5877106316883)"><path class="outline" fill="#A5ABB6" stroke="none" d="M 25 0.5 L 36.157376187423495 0.5 L 36.157376187423495 -0.5 L 25 -0.5 Z M 83.0480011874235 0.5 L 94.20537737484699 0.5 L 94.20537737484699 3.5 L 101.20537737484699 0 L 94.20537737484699 -3.5 L 94.20537737484699 -0.5 L 83.0480011874235 -0.5 Z"/><text text-anchor="middle" pointer-events="none" font-size="8px" fill="#000000" x="59.602688687423495" y="3" transform="rotate(180 59.602688687423495 0)" font-family="sans-serif">DIRECTED</text></g><g class="relationship" transform="translate(-176.79655138589692 -45.234919475789034) rotate(334.7256437373936)"><path class="outline" fill="#A5ABB6" stroke="none" d="M 25 0.5 L 33.95674219090737 0.5 L 33.95674219090737 -0.5 L 25 -0.5 Z M 80.84736719090736 0.5 L 89.80410938181474 0.5 L 89.80410938181474 3.5 L 96.80410938181474 0 L 89.80410938181474 -3.5 L 89.80410938181474 -0.5 L 80.84736719090736 -0.5 Z"/><text text-anchor="middle" pointer-events="none" font-size="8px" fill="#000000" x="57.40205469090737" y="3" font-family="sans-serif">DIRECTED</text></g></g><g class="layer nodes"><g class="node" transform="translate(165.60958552231324,389.4196385620471)"><circle class="outline" cx="0" cy="0" r="25" fill="#F79767" stroke="#f36924" stroke-width="2px"/><text text-anchor="middle" pointer-events="none" font-family="sans-serif" dy="1.5625" font-size="25" fill="#FFFFFF"/><text text-anchor="middle" pointer-events="none" font-family="sans-serif" dy="1.5625" font-size="25" fill="#FFFFFF"/><text text-anchor="middle" pointer-events="none" x="0" y="0" font-size="10px" fill="#FFFFFF" font-family="sans-serif"> Andy</text><text text-anchor="middle" pointer-events="none" x="0" y="10" font-size="10px" fill="#FFFFFF" font-family="sans-serif"> Wacho…</text></g><g class="node" transform="translate(81.39089724273924,348.4312441577609)"><circle class="outline" cx="0" cy="0" r="25" fill="#57C7E3" stroke="#23b3d7" stroke-width="2px"/><text text-anchor="middle" pointer-events="none" font-family="sans-serif" dy="1.5625" font-size="25" fill="#2A2C34"/><text text-anchor="middle" pointer-events="none" font-family="sans-serif" dy="1.5625" font-size="25" fill="#2A2C34"/><text text-anchor="middle" pointer-events="none" x="0" y="0" font-size="10px" fill="#2A2C34" font-family="sans-serif"> The</text><text text-anchor="middle" pointer-events="none" x="0" y="10" font-size="10px" fill="#2A2C34" font-family="sans-serif"> Matrix</text></g><g class="node" transform="translate(86.25365952510046,220.54323035442684)"><circle class="outline" cx="0" cy="0" r="25" fill="#F79767" stroke="#f36924" stroke-width="2px"/><text text-anchor="middle" pointer-events="none" font-family="sans-serif" dy="1.5625" font-size="25" fill="#FFFFFF"/><text text-anchor="middle" pointer-events="none" font-family="sans-serif" dy="1.5625" font-size="25" fill="#FFFFFF"/><text text-anchor="middle" pointer-events="none" x="0" y="0" font-size="10px" fill="#FFFFFF" font-family="sans-serif"> Hugo</text><text text-anchor="middle" pointer-events="none" x="0" y="10" font-size="10px" fill="#FFFFFF" font-family="sans-serif"> Weaving</text></g><g class="node" transform="translate(39.52386070364979,257.68163805738067)"><circle class="outline" cx="0" cy="0" r="25" fill="#F79767" stroke="#f36924" stroke-width="2px"/><text text-anchor="middle" pointer-events="none" font-family="sans-serif" dy="1.5625" font-size="25" fill="#FFFFFF"/><text text-anchor="middle" pointer-events="none" font-family="sans-serif" dy="1.5625" font-size="25" fill="#FFFFFF"/><text text-anchor="middle" pointer-events="none" x="0" y="0" font-size="10px" fill="#FFFFFF" font-family="sans-serif"> Lana</text><text text-anchor="middle" pointer-events="none" x="0" y="10" font-size="10px" fill="#FFFFFF" font-family="sans-serif"> Wacho…</text></g><g class="node" transform="translate(187.21256125392154,287.37957100380663)"><circle class="outline" cx="0" cy="0" r="25" fill="#57C7E3" stroke="#23b3d7" stroke-width="2px"/><text text-anchor="middle" pointer-events="none" font-family="sans-serif" dy="1.5625" font-size="25" fill="#2A2C34"/><text text-anchor="middle" pointer-events="none" font-family="sans-serif" dy="1.5625" font-size="25" fill="#2A2C34"/><text text-anchor="middle" pointer-events="none" font-family="sans-serif" dy="1.5625" font-size="25" fill="#2A2C34"/><text text-anchor="middle" pointer-events="none" x="0" y="-5" font-size="10px" fill="#2A2C34" font-family="sans-serif"> The</text><text text-anchor="middle" pointer-events="none" x="0" y="5" font-size="10px" fill="#2A2C34" font-family="sans-serif"> Matrix</text><text text-anchor="middle" pointer-events="none" x="0" y="15" font-size="10px" fill="#2A2C34" font-family="sans-serif"> Reloa…</text></g><g class="node" transform="translate(171.01646687381003,229.96842441633467)"><circle class="outline" cx="0" cy="0" r="25" fill="#57C7E3" stroke="#23b3d7" stroke-width="2px"/><text text-anchor="middle" pointer-events="none" font-family="sans-serif" dy="1.5625" font-size="25" fill="#2A2C34"/><text text-anchor="middle" pointer-events="none" font-family="sans-serif" dy="1.5625" font-size="25" fill="#2A2C34"/><text text-anchor="middle" pointer-events="none" font-family="sans-serif" dy="1.5625" font-size="25" fill="#2A2C34"/><text text-anchor="middle" pointer-events="none" x="0" y="-5" font-size="10px" fill="#2A2C34" font-family="sans-serif"> The</text><text text-anchor="middle" pointer-events="none" x="0" y="5" font-size="10px" fill="#2A2C34" font-family="sans-serif"> Matrix</text><text text-anchor="middle" pointer-events="none" x="0" y="15" font-size="10px" fill="#2A2C34" font-family="sans-serif"> Revol…</text></g><g class="node" transform="translate(-96.79236674695392,363.77065197137)"><circle class="outline" cx="0" cy="0" r="25" fill="#F79767" stroke="#f36924" stroke-width="2px"/><text text-anchor="middle" pointer-events="none" font-family="sans-serif" dy="1.5625" font-size="25" fill="#FFFFFF"/><text text-anchor="middle" pointer-events="none" font-family="sans-serif" dy="1.5625" font-size="25" fill="#FFFFFF"/><text text-anchor="middle" pointer-events="none" x="0" y="0" font-size="10px" fill="#FFFFFF" font-family="sans-serif"> Tom</text><text text-anchor="middle" pointer-events="none" x="0" y="10" font-size="10px" fill="#FFFFFF" font-family="sans-serif"> Tykwer</text></g><g class="node" transform="translate(21.650109106220512,351.17908189110096)"><circle class="outline" cx="0" cy="0" r="25" fill="#57C7E3" stroke="#23b3d7" stroke-width="2px"/><text text-anchor="middle" pointer-events="none" font-family="sans-serif" dy="1.5625" font-size="25" fill="#2A2C34"/><text text-anchor="middle" pointer-events="none" font-family="sans-serif" dy="1.5625" font-size="25" fill="#2A2C34"/><text text-anchor="middle" pointer-events="none" x="0" y="0" font-size="10px" fill="#2A2C34" font-family="sans-serif"> Cloud</text><text text-anchor="middle" pointer-events="none" x="0" y="10" font-size="10px" fill="#2A2C34" font-family="sans-serif"> Atlas</text></g><g class="node" transform="translate(274.5873385625065,290.8434199307882)"><circle class="outline" cx="0" cy="0" r="25" fill="#F79767" stroke="#f36924" stroke-width="2px"/><text text-anchor="middle" pointer-events="none" font-family="sans-serif" dy="1.5625" font-size="25" fill="#FFFFFF"/><text text-anchor="middle" pointer-events="none" font-family="sans-serif" dy="1.5625" font-size="25" fill="#FFFFFF"/><text text-anchor="middle" pointer-events="none" x="0" y="0" font-size="10px" fill="#FFFFFF" font-family="sans-serif"> James</text><text text-anchor="middle" pointer-events="none" x="0" y="10" font-size="10px" fill="#FFFFFF" font-family="sans-serif"> Marshall</text></g><g class="node" transform="translate(131.22723384197232,308.2403367536086)"><circle class="outline" cx="0" cy="0" r="25" fill="#57C7E3" stroke="#23b3d7" stroke-width="2px"/><text text-anchor="middle" pointer-events="none" font-family="sans-serif" dy="1.5625" font-size="25" fill="#2A2C34"/><text text-anchor="middle" pointer-events="none" font-family="sans-serif" dy="1.5625" font-size="25" fill="#2A2C34"/><text text-anchor="middle" pointer-events="none" x="0" y="0" font-size="10px" fill="#2A2C34" font-family="sans-serif"> V for</text><text text-anchor="middle" pointer-events="none" x="0" y="10" font-size="10px" fill="#2A2C34" font-family="sans-serif"> Vendetta</text></g><g class="node" transform="translate(62.68973582355751,-49.469852304872944)"><circle class="outline" cx="0" cy="0" r="25" fill="#F79767" stroke="#f36924" stroke-width="2px"/><text text-anchor="middle" pointer-events="none" font-family="sans-serif" dy="1.5625" font-size="25" fill="#FFFFFF"/><text text-anchor="middle" pointer-events="none" font-family="sans-serif" dy="1.5625" font-size="25" fill="#FFFFFF"/><text text-anchor="middle" pointer-events="none" x="0" y="0" font-size="10px" fill="#FFFFFF" font-family="sans-serif"> Lilly</text><text text-anchor="middle" pointer-events="none" x="0" y="10" font-size="10px" fill="#FFFFFF" font-family="sans-serif"> Wacho…</text></g><g class="node" transform="translate(135.32069937020563,-144.39328017503232)"><circle class="outline" cx="0" cy="0" r="25" fill="#57C7E3" stroke="#23b3d7" stroke-width="2px"/><text text-anchor="middle" pointer-events="none" font-family="sans-serif" dy="1.5625" font-size="25" fill="#2A2C34"/><text text-anchor="middle" pointer-events="none" font-family="sans-serif" dy="1.5625" font-size="25" fill="#2A2C34"/><text text-anchor="middle" pointer-events="none" x="0" y="0" font-size="10px" fill="#2A2C34" font-family="sans-serif"> The</text><text text-anchor="middle" pointer-events="none" x="0" y="10" font-size="10px" fill="#2A2C34" font-family="sans-serif"> Matrix</text></g><g class="node" transform="translate(40.45149788160092,-105.13615718863987)"><circle class="outline" cx="0" cy="0" r="25" fill="#F79767" stroke="#f36924" stroke-width="2px"/><text text-anchor="middle" pointer-events="none" font-family="sans-serif" dy="1.5625" font-size="25" fill="#FFFFFF"/><text text-anchor="middle" pointer-events="none" font-family="sans-serif" dy="1.5625" font-size="25" fill="#FFFFFF"/><text text-anchor="middle" pointer-events="none" x="0" y="0" font-size="10px" fill="#FFFFFF" font-family="sans-serif"> Hugo</text><text text-anchor="middle" pointer-events="none" x="0" y="10" font-size="10px" fill="#FFFFFF" font-family="sans-serif"> Weaving</text></g><g class="node" transform="translate(17.20969749585446,-160.41016838328702)"><circle class="outline" cx="0" cy="0" r="25" fill="#F79767" stroke="#f36924" stroke-width="2px"/><text text-anchor="middle" pointer-events="none" font-family="sans-serif" dy="1.5625" font-size="25" fill="#FFFFFF"/><text text-anchor="middle" pointer-events="none" font-family="sans-serif" dy="1.5625" font-size="25" fill="#FFFFFF"/><text text-anchor="middle" pointer-events="none" x="0" y="0" font-size="10px" fill="#FFFFFF" font-family="sans-serif"> Lana</text><text text-anchor="middle" pointer-events="none" x="0" y="10" font-size="10px" fill="#FFFFFF" font-family="sans-serif"> Wacho…</text></g><g class="node" transform="translate(-36.12382650390395,-37.05814450654102)"><circle class="outline" cx="0" cy="0" r="25" fill="#57C7E3" stroke="#23b3d7" stroke-width="2px"/><text text-anchor="middle" pointer-events="none" font-family="sans-serif" dy="1.5625" font-size="25" fill="#2A2C34"/><text text-anchor="middle" pointer-events="none" font-family="sans-serif" dy="1.5625" font-size="25" fill="#2A2C34"/><text text-anchor="middle" pointer-events="none" font-family="sans-serif" dy="1.5625" font-size="25" fill="#2A2C34"/><text text-anchor="middle" pointer-events="none" x="0" y="-5" font-size="10px" fill="#2A2C34" font-family="sans-serif"> The</text><text text-anchor="middle" pointer-events="none" x="0" y="5" font-size="10px" fill="#2A2C34" font-family="sans-serif"> Matrix</text><text text-anchor="middle" pointer-events="none" x="0" y="15" font-size="10px" fill="#2A2C34" font-family="sans-serif"> Reloa…</text></g><g class="node" transform="translate(99.21308052585017,-192.27044764818461)"><circle class="outline" cx="0" cy="0" r="25" fill="#57C7E3" stroke="#23b3d7" stroke-width="2px"/><text text-anchor="middle" pointer-events="none" font-family="sans-serif" dy="1.5625" font-size="25" fill="#2A2C34"/><text text-anchor="middle" pointer-events="none" font-family="sans-serif" dy="1.5625" font-size="25" fill="#2A2C34"/><text text-anchor="middle" pointer-events="none" font-family="sans-serif" dy="1.5625" font-size="25" fill="#2A2C34"/><text text-anchor="middle" pointer-events="none" x="0" y="-5" font-size="10px" fill="#2A2C34" font-family="sans-serif"> The</text><text text-anchor="middle" pointer-events="none" x="0" y="5" font-size="10px" fill="#2A2C34" font-family="sans-serif"> Matrix</text><text text-anchor="middle" pointer-events="none" x="0" y="15" font-size="10px" fill="#2A2C34" font-family="sans-serif"> Revol…</text></g><g class="node" transform="translate(274.9617404753083,-71.13960574088154)"><circle class="outline" cx="0" cy="0" r="25" fill="#F79767" stroke="#f36924" stroke-width="2px"/><text text-anchor="middle" pointer-events="none" font-family="sans-serif" dy="1.5625" font-size="25" fill="#FFFFFF"/><text text-anchor="middle" pointer-events="none" font-family="sans-serif" dy="1.5625" font-size="25" fill="#FFFFFF"/><text text-anchor="middle" pointer-events="none" x="0" y="0" font-size="10px" fill="#FFFFFF" font-family="sans-serif"> Tom</text><text text-anchor="middle" pointer-events="none" x="0" y="10" font-size="10px" fill="#FFFFFF" font-family="sans-serif"> Tykwer</text></g><g class="node" transform="translate(149.5896472788801,-85.6184014737337)"><circle class="outline" cx="0" cy="0" r="25" fill="#57C7E3" stroke="#23b3d7" stroke-width="2px"/><text text-anchor="middle" pointer-events="none" font-family="sans-serif" dy="1.5625" font-size="25" fill="#2A2C34"/><text text-anchor="middle" pointer-events="none" font-family="sans-serif" dy="1.5625" font-size="25" fill="#2A2C34"/><text text-anchor="middle" pointer-events="none" x="0" y="0" font-size="10px" fill="#2A2C34" font-family="sans-serif"> Cloud</text><text text-anchor="middle" pointer-events="none" x="0" y="10" font-size="10px" fill="#2A2C34" font-family="sans-serif"> Atlas</text></g><g class="node" transform="translate(-176.79655138589692,-45.234919475789034)"><circle class="outline" cx="0" cy="0" r="25" fill="#F79767" stroke="#f36924" stroke-width="2px"/><text text-anchor="middle" pointer-events="none" font-family="sans-serif" dy="1.5625" font-size="25" fill="#FFFFFF"/><text text-anchor="middle" pointer-events="none" font-family="sans-serif" dy="1.5625" font-size="25" fill="#FFFFFF"/><text text-anchor="middle" pointer-events="none" x="0" y="0" font-size="10px" fill="#FFFFFF" font-family="sans-serif"> James</text><text text-anchor="middle" pointer-events="none" x="0" y="10" font-size="10px" fill="#FFFFFF" font-family="sans-serif"> Marshall</text></g><g class="node" transform="translate(-66.65229498578033,-97.23957161732791)"><circle class="outline" cx="0" cy="0" r="25" fill="#57C7E3" stroke="#23b3d7" stroke-width="2px"/><text text-anchor="middle" pointer-events="none" font-family="sans-serif" dy="1.5625" font-size="25" fill="#2A2C34"/><text text-anchor="middle" pointer-events="none" font-family="sans-serif" dy="1.5625" font-size="25" fill="#2A2C34"/><text text-anchor="middle" pointer-events="none" x="0" y="0" font-size="10px" fill="#2A2C34" font-family="sans-serif"> V for</text><text text-anchor="middle" pointer-events="none" x="0" y="10" font-size="10px" fill="#2A2C34" font-family="sans-serif"> Vendetta</text></g></g></svg>