<svg xmlns="http://www.w3.org/2000/svg" width="358.9250793457031" height="554.4553833007812" viewBox="-81.72201538085938 -185.48512268066406 358.9250793457031 554.4553833007812"><title>Neo4j Graph Visualization</title><desc>Created using Neo4j (http://www.neo4j.com/)</desc><g class="layer relationships"><g class="relationship" transform="translate(57.493829938955045 259.575986583567) rotate(500.9050000578189)"><path class="outline" fill="#A5ABB6" stroke="none" d="M 25 0.5 L 28.797092169479 0.5 L 28.797092169479 -0.5 L 25 -0.5 Z M 74.359592169479 0.5 L 78.156684338958 0.5 L 78.156684338958 3.5 L 85.156684338958 0 L 78.156684338958 -3.5 L 78.156684338958 -0.5 L 74.359592169479 -0.5 Z"/><text text-anchor="middle" pointer-events="none" font-size="8px" fill="#000000" x="51.578342169479" y="3" transform="rotate(180 51.578342169479 0)" font-family="sans-serif">ACTED_IN</text></g><g class="relationship" transform="translate(57.493829938955045 259.575986583567) rotate(406.1791092991603)"><path class="outline" fill="#A5ABB6" stroke="none" d="M 25 0.5 L 29.431454882552373 0.5 L 29.431454882552373 -0.5 L 25 -0.5 Z M 74.99395488255237 0.5 L 79.42540976510475 0.5 L 79.42540976510475 3.5 L 86.42540976510475 0 L 79.42540976510475 -3.5 L 79.42540976510475 -0.5 L 74.99395488255237 -0.5 Z"/><text text-anchor="middle" pointer-events="none" font-size="8px" fill="#000000" x="52.21270488255237" y="3" font-family="sans-serif">ACTED_IN</text></g><g class="relationship" transform="translate(57.493829938955045 259.575986583567) rotate(346.22362613928817)"><path class="outline" fill="#A5ABB6" stroke="none" d="M 25 0.5 L 30.414637489803503 0.5 L 30.414637489803503 -0.5 L 25 -0.5 Z M 75.97713748980351 0.5 L 81.391774979607 0.5 L 81.391774979607 3.5 L 88.391774979607 0 L 81.391774979607 -3.5 L 81.391774979607 -0.5 L 75.97713748980351 -0.5 Z"/><text text-anchor="middle" pointer-events="none" font-size="8px" fill="#000000" x="53.1958874898035" y="3" font-family="sans-serif">ACTED_IN</text></g><g class="relationship" transform="translate(57.493829938955045 259.575986583567) rotate(253.8994360647966)"><path class="outline" fill="#A5ABB6" stroke="none" d="M 25 0.5 L 29.22323651666892 0.5 L 29.22323651666892 -0.5 L 25 -0.5 Z M 74.78573651666892 0.5 L 79.00897303333784 0.5 L 79.00897303333784 3.5 L 86.00897303333784 0 L 79.00897303333784 -3.5 L 79.00897303333784 -0.5 L 74.78573651666892 -0.5 Z"/><text text-anchor="middle" pointer-events="none" font-size="8px" fill="#000000" x="52.00448651666892" y="3" transform="rotate(180 52.00448651666892 0)" font-family="sans-serif">ACTED_IN</text></g><g class="relationship" transform="translate(57.493829938955045 259.575986583567) rotate(201.4645997208445)"><path class="outline" fill="#A5ABB6" stroke="none" d="M 25 0.5 L 32.93358496865259 0.5 L 32.93358496865259 -0.5 L 25 -0.5 Z M 78.49608496865258 0.5 L 86.42966993730518 0.5 L 86.42966993730518 3.5 L 93.42966993730518 0 L 86.42966993730518 -3.5 L 86.42966993730518 -0.5 L 78.49608496865258 -0.5 Z"/><text text-anchor="middle" pointer-events="none" font-size="8px" fill="#000000" x="55.71483496865259" y="3" transform="rotate(180 55.71483496865259 0)" font-family="sans-serif">ACTED_IN</text></g><g class="relationship" transform="translate(147.3113377936563 -69.60119073819448) rotate(335.87511440645153)"><path class="outline" fill="#A5ABB6" stroke="none" d="M 25 0.5 L 28.992390566255047 0.5 L 28.992390566255047 -0.5 L 25 -0.5 Z M 74.55489056625504 0.5 L 78.5472811325101 0.5 L 78.5472811325101 3.5 L 85.5472811325101 0 L 78.5472811325101 -3.5 L 78.5472811325101 -0.5 L 74.55489056625504 -0.5 Z"/><text text-anchor="middle" pointer-events="none" font-size="8px" fill="#000000" x="51.77364056625505" y="3" font-family="sans-serif">ACTED_IN</text></g><g class="relationship" transform="translate(147.3113377936563 -69.60119073819448) rotate(232.603917163593)"><path class="outline" fill="#A5ABB6" stroke="none" d="M 25 0.5 L 28.40013965324618 0.5 L 28.40013965324618 -0.5 L 25 -0.5 Z M 73.96263965324619 0.5 L 77.36277930649236 0.5 L 77.36277930649236 3.5 L 84.36277930649236 0 L 77.36277930649236 -3.5 L 77.36277930649236 -0.5 L 73.96263965324619 -0.5 Z"/><text text-anchor="middle" pointer-events="none" font-size="8px" fill="#000000" x="51.18138965324618" y="3" transform="rotate(180 51.18138965324618 0)" font-family="sans-serif">ACTED_IN</text></g><g class="relationship" transform="translate(147.3113377936563 -69.60119073819448) rotate(530.8253543168385)"><path class="outline" fill="#A5ABB6" stroke="none" d="M 25 0.5 L 31.112450370039234 0.5 L 31.112450370039234 -0.5 L 25 -0.5 Z M 76.67495037003923 0.5 L 82.78740074007847 0.5 L 82.78740074007847 3.5 L 89.78740074007847 0 L 82.78740074007847 -3.5 L 82.78740074007847 -0.5 L 76.67495037003923 -0.5 Z"/><text text-anchor="middle" pointer-events="none" font-size="8px" fill="#000000" x="53.893700370039234" y="3" transform="rotate(180 53.893700370039234 0)" font-family="sans-serif">ACTED_IN</text></g><g class="relationship" transform="translate(147.3113377936563 -69.60119073819448) rotate(444.09479736140077)"><path class="outline" fill="#A5ABB6" stroke="none" d="M 25 0.5 L 28.18667143931775 0.5 L 28.18667143931775 -0.5 L 25 -0.5 Z M 73.74917143931775 0.5 L 76.9358428786355 0.5 L 76.9358428786355 3.5 L 83.9358428786355 0 L 76.9358428786355 -3.5 L 76.9358428786355 -0.5 L 73.74917143931775 -0.5 Z"/><text text-anchor="middle" pointer-events="none" font-size="8px" fill="#000000" x="50.96792143931775" y="3" font-family="sans-serif">ACTED_IN</text></g><g class="relationship" transform="translate(147.3113377936563 -69.60119073819448) rotate(391.82519624504835)"><path class="outline" fill="#A5ABB6" stroke="none" d="M 25 0.5 L 32.738360888434975 0.5 L 32.738360888434975 -0.5 L 25 -0.5 Z M 78.30086088843498 0.5 L 86.03922177686995 0.5 L 86.03922177686995 3.5 L 93.03922177686995 0 L 86.03922177686995 -3.5 L 86.03922177686995 -0.5 L 78.30086088843498 -0.5 Z"/><text text-anchor="middle" pointer-events="none" font-size="8px" fill="#000000" x="55.519610888434975" y="3" font-family="sans-serif">ACTED_IN</text></g></g><g class="layer nodes"><g class="node" transform="translate(57.493829938955045,259.575986583567)"><circle class="outline" cx="0" cy="0" r="25" fill="#F79767" stroke="#f36924" stroke-width="2px"/><text text-anchor="middle" pointer-events="none" font-family="sans-serif" dy="1.5625" font-size="25" fill="#FFFFFF"/><text text-anchor="middle" pointer-events="none" font-family="sans-serif" dy="1.5625" font-size="25" fill="#FFFFFF"/><text text-anchor="middle" pointer-events="none" x="0" y="0" font-size="10px" fill="#FFFFFF" font-family="sans-serif"> Hugo</text><text text-anchor="middle" pointer-events="none" x="0" y="10" font-size="10px" fill="#FFFFFF" font-family="sans-serif"> Weaving</text></g><g class="node" transform="translate(-27.998931577795684,329.0416819503653)"><circle class="outline" cx="0" cy="0" r="25" fill="#57C7E3" stroke="#23b3d7" stroke-width="2px"/><text text-anchor="middle" pointer-events="none" font-family="sans-serif" dy="1.5625" font-size="25" fill="#2A2C34"/><text text-anchor="middle" pointer-events="none" font-family="sans-serif" dy="1.5625" font-size="25" fill="#2A2C34"/><text text-anchor="middle" pointer-events="none" x="0" y="0" font-size="10px" fill="#2A2C34" font-family="sans-serif"> Cloud</text><text text-anchor="middle" pointer-events="none" x="0" y="10" font-size="10px" fill="#2A2C34" font-family="sans-serif"> Atlas</text></g><g class="node" transform="translate(134.64548452010803,339.9702907145933)"><circle class="outline" cx="0" cy="0" r="25" fill="#57C7E3" stroke="#23b3d7" stroke-width="2px"/><text text-anchor="middle" pointer-events="none" font-family="sans-serif" dy="1.5625" font-size="25" fill="#2A2C34"/><text text-anchor="middle" pointer-events="none" font-family="sans-serif" dy="1.5625" font-size="25" fill="#2A2C34"/><text text-anchor="middle" pointer-events="none" x="0" y="0" font-size="10px" fill="#2A2C34" font-family="sans-serif"> V for</text><text text-anchor="middle" pointer-events="none" x="0" y="10" font-size="10px" fill="#2A2C34" font-family="sans-serif"> Vendetta</text></g><g class="node" transform="translate(167.62361355746313,232.5736645877382)"><circle class="outline" cx="0" cy="0" r="25" fill="#57C7E3" stroke="#23b3d7" stroke-width="2px"/><text text-anchor="middle" pointer-events="none" font-family="sans-serif" dy="1.5625" font-size="25" fill="#2A2C34"/><text text-anchor="middle" pointer-events="none" font-family="sans-serif" dy="1.5625" font-size="25" fill="#2A2C34"/><text text-anchor="middle" pointer-events="none" font-family="sans-serif" dy="1.5625" font-size="25" fill="#2A2C34"/><text text-anchor="middle" pointer-events="none" x="0" y="-5" font-size="10px" fill="#2A2C34" font-family="sans-serif"> The</text><text text-anchor="middle" pointer-events="none" x="0" y="5" font-size="10px" fill="#2A2C34" font-family="sans-serif"> Matrix</text><text text-anchor="middle" pointer-events="none" x="0" y="15" font-size="10px" fill="#2A2C34" font-family="sans-serif"> Revol…</text></g><g class="node" transform="translate(26.70836531458012,152.92118237026543)"><circle class="outline" cx="0" cy="0" r="25" fill="#57C7E3" stroke="#23b3d7" stroke-width="2px"/><text text-anchor="middle" pointer-events="none" font-family="sans-serif" dy="1.5625" font-size="25" fill="#2A2C34"/><text text-anchor="middle" pointer-events="none" font-family="sans-serif" dy="1.5625" font-size="25" fill="#2A2C34"/><text text-anchor="middle" pointer-events="none" font-family="sans-serif" dy="1.5625" font-size="25" fill="#2A2C34"/><text text-anchor="middle" pointer-events="none" x="0" y="-5" font-size="10px" fill="#2A2C34" font-family="sans-serif"> The</text><text text-anchor="middle" pointer-events="none" x="0" y="5" font-size="10px" fill="#2A2C34" font-family="sans-serif"> Matrix</text><text text-anchor="middle" pointer-events="none" x="0" y="15" font-size="10px" fill="#2A2C34" font-family="sans-serif"> Reloa…</text></g><g class="node" transform="translate(-52.7220121135139,216.2394560103397)"><circle class="outline" cx="0" cy="0" r="25" fill="#57C7E3" stroke="#23b3d7" stroke-width="2px"/><text text-anchor="middle" pointer-events="none" font-family="sans-serif" dy="1.5625" font-size="25" fill="#2A2C34"/><text text-anchor="middle" pointer-events="none" font-family="sans-serif" dy="1.5625" font-size="25" fill="#2A2C34"/><text text-anchor="middle" pointer-events="none" x="0" y="0" font-size="10px" fill="#2A2C34" font-family="sans-serif"> The</text><text text-anchor="middle" pointer-events="none" x="0" y="10" font-size="10px" fill="#2A2C34" font-family="sans-serif"> Matrix</text></g><g class="node" transform="translate(147.3113377936563,-69.60119073819448)"><circle class="outline" cx="0" cy="0" r="25" fill="#F79767" stroke="#f36924" stroke-width="2px"/><text text-anchor="middle" pointer-events="none" font-family="sans-serif" dy="1.5625" font-size="25" fill="#FFFFFF"/><text text-anchor="middle" pointer-events="none" font-family="sans-serif" dy="1.5625" font-size="25" fill="#FFFFFF"/><text text-anchor="middle" pointer-events="none" x="0" y="0" font-size="10px" fill="#FFFFFF" font-family="sans-serif"> Hugo</text><text text-anchor="middle" pointer-events="none" x="0" y="10" font-size="10px" fill="#FFFFFF" font-family="sans-serif"> Weaving</text></g><g class="node" transform="translate(248.20305886467006,-114.7848380579824)"><circle class="outline" cx="0" cy="0" r="25" fill="#57C7E3" stroke="#23b3d7" stroke-width="2px"/><text text-anchor="middle" pointer-events="none" font-family="sans-serif" dy="1.5625" font-size="25" fill="#2A2C34"/><text text-anchor="middle" pointer-events="none" font-family="sans-serif" dy="1.5625" font-size="25" fill="#2A2C34"/><text text-anchor="middle" pointer-events="none" font-family="sans-serif" dy="1.5625" font-size="25" fill="#2A2C34"/><text text-anchor="middle" pointer-events="none" x="0" y="-5" font-size="10px" fill="#2A2C34" font-family="sans-serif"> The</text><text text-anchor="middle" pointer-events="none" x="0" y="5" font-size="10px" fill="#2A2C34" font-family="sans-serif"> Matrix</text><text text-anchor="middle" pointer-events="none" x="0" y="15" font-size="10px" fill="#2A2C34" font-family="sans-serif"> Revol…</text></g><g class="node" transform="translate(80.89296775137656,-156.48512261611623)"><circle class="outline" cx="0" cy="0" r="25" fill="#57C7E3" stroke="#23b3d7" stroke-width="2px"/><text text-anchor="middle" pointer-events="none" font-family="sans-serif" dy="1.5625" font-size="25" fill="#2A2C34"/><text text-anchor="middle" pointer-events="none" font-family="sans-serif" dy="1.5625" font-size="25" fill="#2A2C34"/><text text-anchor="middle" pointer-events="none" x="0" y="0" font-size="10px" fill="#2A2C34" font-family="sans-serif"> Cloud</text><text text-anchor="middle" pointer-events="none" x="0" y="10" font-size="10px" fill="#2A2C34" font-family="sans-serif"> Atlas</text></g><g class="node" transform="translate(33.99242163183732,-51.29898845065523)"><circle class="outline" cx="0" cy="0" r="25" fill="#57C7E3" stroke="#23b3d7" stroke-width="2px"/><text text-anchor="middle" pointer-events="none" font-family="sans-serif" dy="1.5625" font-size="25" fill="#2A2C34"/><text text-anchor="middle" pointer-events="none" font-family="sans-serif" dy="1.5625" font-size="25" fill="#2A2C34"/><text text-anchor="middle" pointer-events="none" font-family="sans-serif" dy="1.5625" font-size="25" fill="#2A2C34"/><text text-anchor="middle" pointer-events="none" x="0" y="-5" font-size="10px" fill="#2A2C34" font-family="sans-serif"> The</text><text text-anchor="middle" pointer-events="none" x="0" y="5" font-size="10px" fill="#2A2C34" font-family="sans-serif"> Matrix</text><text text-anchor="middle" pointer-events="none" x="0" y="15" font-size="10px" fill="#2A2C34" font-family="sans-serif"> Reloa…</text></g><g class="node" transform="translate(158.51896870600422,38.756581816483596)"><circle class="outline" cx="0" cy="0" r="25" fill="#57C7E3" stroke="#23b3d7" stroke-width="2px"/><text text-anchor="middle" pointer-events="none" font-family="sans-serif" dy="1.5625" font-size="25" fill="#2A2C34"/><text text-anchor="middle" pointer-events="none" font-family="sans-serif" dy="1.5625" font-size="25" fill="#2A2C34"/><text text-anchor="middle" pointer-events="none" x="0" y="0" font-size="10px" fill="#2A2C34" font-family="sans-serif"> V for</text><text text-anchor="middle" pointer-events="none" x="0" y="10" font-size="10px" fill="#2A2C34" font-family="sans-serif"> Vendetta</text></g><g class="node" transform="translate(247.60464661721463,-7.355627981388713)"><circle class="outline" cx="0" cy="0" r="25" fill="#57C7E3" stroke="#23b3d7" stroke-width="2px"/><text text-anchor="middle" pointer-events="none" font-family="sans-serif" dy="1.5625" font-size="25" fill="#2A2C34"/><text text-anchor="middle" pointer-events="none" font-family="sans-serif" dy="1.5625" font-size="25" fill="#2A2C34"/><text text-anchor="middle" pointer-events="none" x="0" y="0" font-size="10px" fill="#2A2C34" font-family="sans-serif"> The</text><text text-anchor="middle" pointer-events="none" x="0" y="10" font-size="10px" fill="#2A2C34" font-family="sans-serif"> Matrix</text></g></g></svg>